<?xml version="1.0" encoding="utf-8"?>
<!DOCTYPE svg PUBLIC "-//W3C//DTD SVG 20010904//EN" "http://www.w3.org/TR/2001/REC-SVG-20010904/DTD/svg10.dtd">
<svg version="1.0" xmlns="http://www.w3.org/2000/svg" width="180px" height="180px" viewBox="0 0 180 180" preserveAspectRatio="xMidYMid meet">
 <g fill="#000000">
  <path d="M22.2 163.8 c0.4 -18.8 1.6 -22.7 9 -27.5 3.6 -2.5 5.3 -2.8 13.6 -3.1 9.3 -0.4 9.4 -0.4 7.3 -2.3 -1.2 -1.1 -4.9 -6.7 -8.3 -12.4 l-6.1 -10.5 -4.9 0 c-4.6 0 -5.3 -0.3 -10.3 -5.3 -6.4 -6.5 -9.5 -14.9 -9.4 -25.6 0 -9.4 2 -14.1 6.7 -15.7 0.9 -0.3 -2.3 -6.4 -3.4 -6.4 -1.7 0 -2 -10.3 -0.4 -14.4 0.6 -1.7 0.6 -2.6 0 -2.6 -1.5 0 -1.2 -6.4 0.5 -8.6 0.8 -1 1.5 -3.3 1.5 -5 0 -1.7 1.3 -4.7 3 -7.1 1.9 -2.5 2.7 -4.4 2 -4.8 -0.5 -0.3 -1 -2.2 -1 -4.1 0 -2.7 0.4 -3.4 2 -3.4 1.5 0 2 -0.7 2 -2.5 0 -2.2 0.4 -2.5 3.4 -2.5 2.8 0 3.5 0.4 3.8 2.3 0.2 1.4 1.1 2.3 2.7 2.5 1.3 0.2 3.2 1.3 4.2 2.5 1.7 2.1 1.7 2.1 1.2 -2.6 l-0.6 -4.7 56.3 0 56.3 0 -0.5 5.1 c-0.5 4.5 -0.2 5.4 2.3 8.1 1.8 2 3.5 5.9 4.9 11.2 1.2 4.4 2.9 9 3.6 10.1 1.6 2.2 1.9 8.5 0.4 8.5 -0.5 0 -1 0.9 -1 2 0 1.1 -0.7 2 -1.5 2 -1.2 0 -1.5 1.3 -1.5 5.8 0 3.1 -0.4 6.4 -0.9 7.2 -0.7 1 -0.4 1.8 0.9 2.7 4.3 3.1 5.3 16.9 1.9 27.8 -1.7 5.5 -3.1 7.8 -7.4 12.2 -5.2 5.1 -5.6 5.3 -10.8 5.3 l-5.4 0 -2.4 5.2 c-2.8 6 -9.6 17 -11.3 18 -0.6 0.4 2.5 0.8 6.9 0.8 18.7 0.1 24.4 8.4 24.5 35.8 l0 12.2 -4.5 0 -4.5 0 0 -11.2 c0 -12.9 -1 -17.4 -4.7 -21.8 -3.8 -4.5 -7.4 -6 -14.7 -6 l-6.5 0 -3.6 11.3 c-1.9 6.2 -3.5 11.9 -3.5 12.5 0 2.1 -6.2 1.4 -8.7 -1 -1.9 -1.8 -2.3 -1.9 -2.3 -0.5 0 1.3 -1.2 1.7 -5.7 1.9 l-5.8 0.3 -0.5 7 -0.5 7 -4.4 0.3 -4.4 0.3 0.7 -5 c0.4 -3 0.3 -5.2 -0.4 -5.6 -0.5 -0.3 -1 -1.7 -1 -3.1 0 -1.9 -0.5 -2.4 -2.5 -2.4 -2.1 0 -2.5 -0.5 -2.5 -2.7 l-0.1 -2.8 -3.2 3.8 c-2.6 3 -3.9 3.7 -6.7 3.7 l-3.6 0 -4 -12.2 -4 -12.3 -3.5 -0.3 c-7.3 -0.7 -15.1 3.5 -18.5 10 -1 1.9 -1.4 6.5 -1.4 15.8 l0 13 -4.6 0 -4.6 0 0.4 -16.2z m48.5 -14 c2.5 -2.3 3 -3.8 1.2 -3.8 -0.6 0 -2.7 -1.2 -4.7 -2.7 -2.5 -1.9 -3.4 -2.3 -3 -1.2 0.4 1 1.2 3.5 1.9 5.8 0.7 2.3 1.5 4.1 1.7 4.1 0.3 0 1.6 -1 2.9 -2.2z m39.8 -5.7 l0.7 -2.4 -3 2.2 c-1.7 1.1 -3.8 2.1 -4.8 2.1 -1.5 0 -1.2 0.6 1.2 3.1 l2.9 3 1.1 -2.8 c0.6 -1.5 1.5 -3.9 1.9 -5.2z m-26.5 -19.6 c0 -2.3 0.3 -2.5 5 -2.5 3.3 0 5 0.4 5 1.3 0 1.1 6.3 3.7 9 3.7 1.7 0 1.1 -6.6 -0.7 -8.1 -1 -0.8 -4.6 -2.8 -8 -4.4 l-6.2 -2.8 -7.3 3.3 c-4 1.8 -7.8 3.9 -8.4 4.6 -0.6 0.8 -1.6 1.4 -2.3 1.4 -0.6 0 -1.1 0.7 -1.1 1.5 0 1 1.7 1.6 6 2.1 3.3 0.4 6 1.1 6 1.5 0 0.5 0.7 0.9 1.5 0.9 0.9 0 1.5 -0.9 1.5 -2.5z m-17.1 -21.8 c2.3 -1 4.8 -1.7 5.6 -1.7 0.9 0 1.5 -0.9 1.5 -2.2 0 -5.3 1.1 -6.8 4.7 -6.8 1.9 0 4.8 0.8 6.4 1.7 4.3 2.5 4.9 1 4.9 -12.9 0 -11 -0.1 -11.8 -1.9 -11.8 -3.8 0 -5.1 1.1 -5.1 4.6 0 3.4 -0.1 3.4 -4.4 3.4 l-4.5 0 -0.3 -5.2 -0.3 -5.3 -11.4 -0.3 c-13 -0.3 -13.1 -0.3 -13.1 7.1 0 4 -0.3 4.7 -2 4.7 -2.4 0 -2.6 1.3 -0.5 3.4 0.8 0.8 1.5 3.1 1.5 5 0 2.9 0.4 3.6 2 3.6 1.6 0 2 0.7 2 3.8 0 2.1 -0.5 4.3 -1.2 5 -0.9 0.9 -0.3 1.2 3 1.2 l4.2 0 0 4.4 c0 5.2 2 6.6 3.6 2.6 0.8 -1.7 2.7 -3.3 5.3 -4.3z m50.3 2.3 l-0.5 -5 4.2 0 c4 0 4.1 -0.1 4.1 -3.5 0 -2.4 0.5 -3.5 1.5 -3.5 1 0 1.5 -1 1.5 -3 0 -2 0.5 -3 1.5 -3 1 0 1.5 -1 1.5 -2.9 0 -1.6 0.3 -3.6 0.6 -4.5 0.4 -1.2 0 -1.6 -1.5 -1.6 -1.7 0 -2.1 -0.6 -2.1 -3.4 0 -1.9 -0.4 -4.6 -1 -6.1 l-1 -2.6 -11.2 0.3 -11.3 0.3 -0.3 5.3 c-0.3 5 -0.4 5.2 -3.3 5.2 -2.7 0 -2.9 0.3 -2.9 3.8 0 6.5 0.9 8.2 4.1 8.2 2.6 0 2.9 0.3 2.9 3.5 0 1.9 -0.4 3.5 -0.9 3.5 -0.5 0 -1.1 1.1 -1.3 2.5 -0.4 2 -0.1 2.5 1.6 2.5 3.6 0.1 9 3.4 10.4 6.3 2.2 4.6 4 3.4 3.4 -2.3z m-21.8 -47.5 c0.4 -1.4 1.3 -2.5 2 -2.5 0.8 0 1.6 -0.4 1.8 -0.8 0.4 -1.1 14.9 -4.1 23.2 -4.9 4.4 -0.4 7 -0.2 8 0.6 1.1 0.9 1.5 0.9 1.9 -0.1 0.6 -1.8 -0.4 -8.1 -1.4 -9.3 -0.5 -0.5 -0.9 -2.4 -0.9 -4.1 0 -1.8 -0.5 -3.6 -1.1 -3.9 -0.6 -0.4 -0.9 -2.5 -0.8 -4.6 0.4 -4.7 -0.2 -5.3 -6.9 -7.3 -4.5 -1.3 -7.1 -1.4 -16 -0.5 -5.9 0.6 -11 1.6 -11.3 2.1 -0.9 1.5 -10.7 0.1 -13.8 -1.9 -1.6 -1 -4.7 -1.5 -9.6 -1.5 -6.2 0.1 -8.3 0.6 -14.9 3.7 -7.3 3.5 -7.6 3.7 -7.6 7 0 1.9 -0.4 3.5 -0.8 3.5 -1.2 0 -4.2 11.2 -4.2 15.8 l0 4.2 3.3 -2 c3.9 -2.4 11.5 -2.6 20.2 -0.5 3.3 0.8 7.5 1.4 9.3 1.5 2.5 0 3.5 0.5 3.9 2 0.3 1.1 0.9 2 1.4 2 0.5 0 0.9 0.9 0.9 2 0 1.8 0.7 2 6.4 2 6 0 6.4 -0.2 7 -2.5z"/>
 </g>
 <g fill="#151515">
  <path d="M82.2 172.4 c0 -4.1 -0.2 -7.7 -0.4 -7.9 -0.1 -0.1 -3.1 -0.6 -6.5 -1 -6 -0.7 -6.3 -0.6 -6.3 1.4 0 1.7 -0.6 2.1 -3.3 2.1 l-3.3 0 -3.8 -11.7 c-2.1 -6.5 -4.2 -12.2 -4.7 -12.7 -0.5 -0.6 -0.9 -1.8 -0.9 -2.9 0 -1.3 0.6 -1.8 2.2 -1.5 1.8 0.2 2.8 2.2 6.2 12.6 2.2 6.7 4.3 12.1 4.7 12 1.5 -0.6 14 -15 13.5 -15.5 -0.3 -0.3 -3.4 2.5 -6.9 6.3 l-6.4 6.8 -3.6 -10.9 c-5.8 -17.2 -5 -19.1 4.5 -11.7 3.5 2.7 7.4 5.2 8.8 5.5 3.8 1 4.5 1.7 7.4 7.4 2.3 4.7 2.4 5.3 0.9 6.1 -1.4 0.9 -1.4 1.1 0.5 2.1 2.6 1.4 2.9 3.6 0.7 4.9 -1.4 0.7 -1.4 1.1 0 3.9 1.3 2.6 1.4 3.9 0.4 7.7 -1.9 7.4 -3.8 5.9 -3.7 -3z m-1 -17.9 c0.4 -1.7 0.1 -2.5 -0.8 -2.5 -1.4 0 -1.9 3.1 -0.7 4.3 0.9 1 1 0.9 1.5 -1.8z m-10.5 -5.7 c2.9 -2.8 2.9 -3.8 -0.2 -3.8 -1.3 0 -2.8 -0.8 -3.4 -1.7 -1.6 -3 -2.3 -0.7 -1 3.6 0.7 2.3 1.5 4.1 1.7 4.1 0.3 0 1.6 -1 2.9 -2.2z"/>
  <path d="M87.5 172.1 c0.1 -4.4 0.7 -8.6 1.3 -9.4 0.9 -1.1 0.8 -1.8 -0.8 -3.2 -1.7 -1.5 -1.8 -2 -0.6 -2.9 0.8 -0.6 2.8 -3.6 4.4 -6.6 1.9 -3.7 3.6 -5.6 5 -5.8 1.7 -0.3 2.2 0.2 2.2 1.8 0 1.7 -0.4 2 -2.2 1.5 -1.7 -0.6 -2 -0.4 -1.5 0.9 0.4 0.9 0.2 1.6 -0.3 1.6 -0.6 0 -1 0.7 -1 1.5 0 1 1 1.5 3.1 1.5 2.2 0 3.2 0.5 3.6 2 0.3 1.1 1.1 2 1.7 2 0.6 0 2.7 1.3 4.6 2.9 l3.4 2.8 3.7 -11.9 c2 -6.5 3.9 -12.1 4.2 -12.5 0.3 -0.3 0.9 0.7 1.3 2.3 0.7 2.8 -1 11.4 -2.5 12.4 -0.4 0.3 -1.1 2.5 -1.4 5 -0.3 2.4 -1.1 4.6 -1.6 4.8 -0.6 0.2 -1.1 1 -1.1 1.7 0 1.1 -2.1 1.4 -10.2 1.2 l-10.3 -0.2 -0.3 3 c-0.8 9.3 -1.3 11.5 -3.1 11.5 -1.5 0 -1.7 -1 -1.6 -7.9z"/>
  <path d="M149.1 158.8 c0 -1 -0.7 -1.8 -1.4 -1.8 -1.2 0 -3.4 -5 -4.4 -10.2 -0.4 -2.1 -1.1 -2.8 -2.9 -2.8 -1.3 0 -2.4 -0.4 -2.4 -1 0 -0.5 -0.9 -1 -2 -1 -1.3 0 -2 -0.7 -2 -2 0 -2.4 2 -2.6 5.9 -0.5 6.1 3.1 10.8 11.9 9.8 18.3 -0.2 1.5 -0.5 1.9 -0.6 1z"/>
  <path d="M153 159.7 c0 -3.6 -2.7 -13.1 -4.6 -15.9 l-2.4 -3.8 3 0 c2.8 0 3 0.3 3 3.5 0 2.3 0.5 3.5 1.4 3.5 0.8 0 1.6 1.5 2 3.8 1 6.3 0.7 9.2 -0.9 9.2 -0.8 0 -1.5 -0.1 -1.5 -0.3z"/>
  <path d="M107.3 157.9 c-1.1 -1.1 -0.7 -3.9 0.7 -4.9 1.1 -0.8 2.1 -10 1.1 -10 -0.5 0 -1.1 0.7 -1.5 1.5 -0.3 0.9 -1.9 1.5 -4.1 1.5 -2.4 0 -3.5 -0.4 -3.5 -1.5 0 -0.8 0.5 -1.5 1.1 -1.5 0.6 0 4.2 -2.2 7.9 -5 3.7 -2.7 7.1 -5 7.5 -5 0.4 0 0.5 1.4 0.1 3.1 -1 5.3 -6.8 22.9 -7.5 22.9 -0.4 0 -1.2 -0.5 -1.8 -1.1z"/>
  <path d="M22 152.5 c0 -1.9 0.5 -3.5 1 -3.5 0.6 0 1 -1.3 1 -3 0 -2.6 0.4 -3 2.6 -3 2.1 0 2.5 0.3 1.8 1.8 -0.4 0.9 -1.4 3.8 -2.3 6.5 -1.8 5.6 -4.1 6.3 -4.1 1.2z"/>
  <path d="M28.1 153.7 c-0.2 -5.5 5.4 -12.4 11.8 -14.6 4.8 -1.6 6.1 -1.4 6.1 0.9 0 1.6 -0.7 2 -3 2 -1.6 0 -3 0.5 -3 1 0 0.6 -1.3 1 -3 1 -2.5 0 -3 0.4 -3 2.5 0 3.2 -2 7.5 -3.6 7.5 -0.7 0 -1.5 0.6 -1.7 1.3 -0.3 0.6 -0.6 -0.1 -0.6 -1.6z"/>
  <path d="M84.2 148.5 c-1.8 -4 -1.5 -4.3 3.3 -4.3 4.8 0 5.1 0.3 3.3 4.3 -0.7 1.5 -1.9 2.5 -3.3 2.5 -1.4 0 -2.6 -1 -3.3 -2.5z"/>
  <path d="M30 139 c0 -2.7 0.3 -3 3 -3 2 0 3 -0.5 3 -1.5 0 -1 1.1 -1.5 3.5 -1.5 1.9 0 3.5 0.5 3.5 1 0 0.6 0.8 1 1.8 1.1 0.9 0.1 -0.3 0.5 -2.7 1 -2.4 0.5 -6.2 2 -8.3 3.4 l-3.8 2.5 0 -3z"/>
  <path d="M137.3 135.8 c-4.5 -1.5 -4.3 -3.8 0.2 -3.8 3.1 0 3.5 0.3 3.5 2.5 0 1.4 -0.1 2.5 -0.2 2.4 -0.2 -0.1 -1.8 -0.6 -3.5 -1.1z"/>
  <path d="M53 134.1 c0 -1.1 -0.7 -2.6 -1.5 -3.5 -0.8 -0.8 -1.5 -1.9 -1.5 -2.5 0 -0.6 -0.4 -1.1 -1 -1.1 -0.5 0 -1 -1.1 -1 -2.5 0 -1.6 -0.6 -2.5 -1.5 -2.5 -0.8 0 -1.5 -0.5 -1.5 -1.1 0 -0.6 -0.7 -1.7 -1.5 -2.5 -0.8 -0.9 -1.5 -3 -1.5 -4.8 0 -2.9 -0.4 -3.4 -3.1 -4 -1.7 -0.3 -4.2 -0.6 -5.5 -0.6 -1.3 0 -2.4 -0.4 -2.4 -1 0 -0.5 -1.1 -1 -2.5 -1 -2.1 0 -2.5 -0.5 -2.5 -3.1 l0 -3 2.9 2 c3.2 2.3 9.7 2.8 10.4 0.9 0.2 -0.7 1.4 0.7 2.7 3.2 4.3 8.3 12 20.3 14.5 22.2 2.1 1.6 2.3 2.2 1.3 4.3 -1.3 3 -4.8 3.4 -4.8 0.6z"/>
  <path d="M118.7 133.5 c-0.6 -1.5 -0.2 -2.5 1.5 -4 3.4 -2.9 7.9 -9.7 12.9 -19.5 2.7 -5.3 4.4 -7.8 4.7 -6.7 0.5 2.4 6.6 2.2 10.3 -0.4 l2.9 -2 0 3 c0 2.6 -0.4 3.1 -2.5 3.1 -1.4 0 -2.5 0.5 -2.5 1 0 0.6 -1.7 1 -3.8 1 -3.6 0 -4 0.3 -5.7 4 -1.2 2.6 -2.5 4 -3.7 4 -1.4 0 -1.8 0.8 -1.8 3.5 0 1.9 -0.4 3.5 -1 3.5 -0.5 0 -1 0.7 -1 1.5 0 0.8 -0.4 1.5 -1 1.5 -0.5 0 -1 0.5 -1 1.1 0 1.7 -2.7 3.9 -4.9 3.9 -1.1 0 -2.1 0.8 -2.3 1.8 -0.3 1.5 -0.4 1.5 -1.1 -0.3z"/>
  <path d="M99 130.5 c-5.4 -2.9 -6.1 -3 -5.3 -1 0.5 1.3 -0.5 1.5 -5.8 1.4 -3.5 -0.1 -7.2 0.1 -8.1 0.6 -1.4 0.5 -1.8 0.2 -1.8 -1.4 0 -2.6 -0.8 -2.6 -4 -0.1 -3.4 2.6 -4.2 2.5 -3.4 -0.7 0.7 -2.5 0.6 -2.6 -2.6 -2 l-3.2 0.7 0.6 -3.5 c0.6 -2.8 0.4 -3.5 -0.9 -3.5 -0.8 0 -1.5 -0.7 -1.5 -1.5 0 -1 1 -1.5 3 -1.5 1.7 0 3 -0.4 3 -1 0 -0.5 3.8 -2.7 8.3 -4.8 4.6 -2.2 8.7 -4.7 9.1 -5.7 0.3 -1 0.5 -1.8 0.4 -1.9 -0.2 -0.1 -1.2 -0.6 -2.2 -1.2 -1.5 -0.8 -3.6 -0.7 -8 0.3 -10 2.4 -12.6 4.3 -12.6 9.7 0 2.9 -3.8 2.8 -6.8 -0.2 -3.3 -3.3 -2.9 -5.6 0.8 -4.8 2.2 0.4 3 0.2 3 -0.9 0 -0.8 0.7 -1.5 1.5 -1.5 0.8 0 1.5 -0.7 1.5 -1.5 0 -0.8 1.7 -1.9 3.9 -2.6 3.8 -1.1 3.9 -1.3 3 -4.3 -2.1 -7.4 0 -11.6 5.9 -11.6 2.7 0 3.1 0.4 3.4 3.2 0.2 2.6 0.9 3.3 3.8 4.3 4.9 1.7 7 0.9 7 -2.6 0 -3.3 1.3 -3.8 3 -1.1 1 1.5 1.1 1.5 0.6 0 -0.5 -1.9 1.2 -2.8 5.4 -2.8 2.5 0 3 0.5 3.5 3.4 1.1 5.7 0.3 8 -3 8.7 -2.3 0.5 -2.5 0.7 -0.7 0.8 1.2 0 2.2 0.6 2.2 1.1 0 0.6 1.6 1 3.5 1 1.9 0 3.5 0.4 3.5 0.9 0 0.5 1 1.1 2.2 1.3 1.5 0.2 2.5 1.3 3.2 3.6 0.5 1.7 1.5 3.2 2.4 3.2 1 0 1.2 -0.6 0.7 -1.7 -0.4 -1 -1 -3.8 -1.3 -6.2 l-0.5 -4.4 4.7 0.5 c4.5 0.5 4.6 0.5 4.6 -2.3 0 -1.5 0.5 -3.1 1 -3.4 0.6 -0.3 1 -1.9 1 -3.6 0 -1.7 0.5 -2.9 1.3 -2.9 0.7 0 1.7 -2 2.3 -4.5 1 -4.3 1 -4.5 -1.3 -4.5 -1.8 0 -2.3 -0.5 -2.3 -2.6 0 -2.1 -0.3 -2.5 -1.7 -1.8 -1 0.4 -5.1 0.9 -9 1.2 l-7.3 0.4 0 -3.5 c0 -4 0.3 -4.1 11 -5.3 4.1 -0.4 6.9 -1.3 7.7 -2.3 1 -1.4 1.3 -1.2 2.2 1.2 0.6 1.6 1.1 4.4 1.1 6.3 0 2.4 0.5 3.4 1.5 3.4 0.8 0 1.5 -0.9 1.5 -2 0 -1.1 0.7 -2.3 1.5 -2.6 3.1 -1.2 3.4 0.7 0.9 7.1 -2.6 7.1 -2.9 9 -1.4 8 0.6 -0.4 1 0.5 1 1.9 0 2.1 -0.5 2.6 -2.6 2.6 -2.6 0 -2.6 0 -0.9 2.6 2.3 3.5 1.4 5.7 -2 4.4 -2.2 -0.9 -2.4 -0.8 -1.4 0.9 0.9 1.4 0.8 2.3 -0.6 4.5 -1.8 2.6 -2.3 2.7 -7.4 0.8 -1.1 -0.4 -1.3 -0.1 -0.8 1.2 1.8 4.7 1.9 6.7 0.2 8.6 -1.3 1.5 -2.2 1.7 -3.6 1 -2.3 -1.3 -3.2 -1.3 -2.4 0 0.3 0.6 0 1 -0.9 1 -0.8 0 -1.7 -1.3 -2.1 -2.9 -1 -4.6 -4.2 -6.6 -14.7 -9 -5.6 -1.3 -8 -0.6 -7.6 2.3 0.2 1.5 2.5 3.2 8 6.1 4.3 2.2 8.3 4.6 9 5.3 0.7 0.6 2 1.2 3.1 1.2 1.4 0 1.7 0.5 1.1 2.3 -0.3 1.2 -1.3 2.6 -2 3 -0.8 0.4 -1.4 2.4 -1.4 4.4 0 2.6 -0.4 3.4 -1.4 3 -0.8 -0.3 -1.6 0 -1.8 0.8 -0.2 1 -1.4 0.8 -4.8 -1z m6 -7 c0 -1.4 -0.4 -2.5 -1 -2.5 -0.5 0 -1 -0.7 -1 -1.5 0 -0.8 -0.7 -1.5 -1.5 -1.5 -0.8 0 -1.5 -0.4 -1.5 -1 0 -0.5 -0.9 -1 -1.9 -1 -1 0 -3.7 -0.8 -5.9 -1.8 -4.3 -1.9 -11.2 -1.8 -11.2 0.2 0 1.1 -8.7 5.6 -10.9 5.6 -0.6 0 -1.1 0.6 -1.1 1.4 0 1.7 10.3 3.3 10.8 1.7 0.4 -1.3 15.2 -1.5 15.2 -0.3 0 1.3 4.1 3.1 7.3 3.1 2.2 0.1 2.7 -0.3 2.7 -2.4z"/>
  <path d="M55 105 c0 -2.3 0 -2.3 -3.3 -1.1 -1.9 0.8 -2.9 0.5 -4.6 -1 -2.6 -2.4 -2.6 -2.7 -0.1 -5.9 2.5 -3.2 2.5 -4.4 0.1 -3 -3.1 1.6 -3.4 1.3 -2.9 -4 0.3 -2.7 0.2 -5 -0.2 -5 -0.8 0 -5 -10.9 -5 -12.9 0 -0.6 0.9 -1.1 2 -1.1 1.5 0 2 0.7 2 2.5 0 1.4 0.4 2.5 1 2.5 0.5 0 1.3 1.8 1.6 4 0.4 2.2 1 4 1.5 4 0.5 0 0.9 1.4 0.9 3 0 2.5 0.4 3 2.5 3 2.2 0 2.5 0.4 2.5 3.5 0 1.9 -0.4 3.5 -0.9 3.5 -0.5 0 -1.1 0.8 -1.4 1.9 -0.4 1.6 0 1.8 3.9 1.3 l4.4 -0.5 0 3.7 c0 2.9 -0.4 3.6 -2 3.6 -1.3 0 -2 -0.7 -2 -2z"/>
  <path d="M27.6 99 c-6.1 -5.6 -9 -12.6 -9.1 -21.6 0 -8 1.2 -10.4 5.4 -10.4 5 0 7.7 4.3 10.5 16.9 1.4 6.2 2.6 11.5 2.6 11.7 0 1 -2.6 0.2 -4.4 -1.3 -1.2 -1 -1.5 -1.1 -0.8 -0.3 1.8 2.1 1.5 3.3 -0.8 2.7 -1.1 -0.3 -1.7 -0.1 -1.4 0.5 0.3 0.5 1.9 0.6 3.5 0.3 2.2 -0.5 2.9 -0.3 2.9 0.9 0 0.9 0.5 1.6 1 1.6 0.6 0 1 0.7 1 1.5 0 3.1 -5.8 1.7 -10.4 -2.5z m-3.5 -16 c0.5 0 0.9 -0.4 0.9 -1 0 -0.5 -0.6 -0.7 -1.4 -0.4 -1.6 0.6 -2.7 3.9 -1.7 4.9 0.3 0.4 0.7 -0.3 0.9 -1.4 0.2 -1.2 0.8 -2.1 1.3 -2.1z m6.4 0 c0.8 0 1.5 -0.5 1.5 -1.1 0 -1.6 -4.3 1.3 -4.8 3.2 -0.2 0.8 0.2 0.6 0.8 -0.3 0.6 -1 1.8 -1.8 2.5 -1.8z m-1.2 -7.4 c-1.2 -2.2 -3.6 -4.6 -4.6 -4.6 -0.5 0 0.1 0.9 1.4 1.9 2.4 1.9 2.4 2 0.4 3.4 -1.9 1.4 -1.8 1.5 0.8 1 1.6 -0.3 2.4 -1 2 -1.7z"/>
  <path d="M139.8 102.3 c1.5 -0.6 1.6 -3.3 0.1 -3.3 -0.5 0 -0.7 -0.5 -0.3 -1.1 0.4 -0.6 2 -0.8 3.9 -0.5 1.9 0.4 3.6 0.2 3.9 -0.3 0.3 -0.5 -0.3 -0.7 -1.4 -0.4 -2.3 0.6 -2.6 -0.6 -0.7 -2.7 0.6 -0.8 0.2 -0.6 -1 0.4 -1.2 1 -2.8 1.6 -3.6 1.4 -1.1 -0.2 -0.9 -2.3 1.3 -11.6 2.1 -8.9 3.3 -11.9 5.5 -14.2 3.2 -3.4 7.5 -4 9.6 -1.3 2.3 2.7 1.7 14.9 -1 21 -3.1 7 -9.9 13.3 -14.3 13.2 -1.8 0 -2.7 -0.3 -2 -0.6z m10 -25.3 c1.5 0 1.5 -0.2 0.2 -1 -1.3 -0.9 -1.1 -1.4 1 -3.2 1.4 -1.1 1.8 -1.9 1 -1.6 -1.7 0.5 -6 6.5 -6 8.2 0 0.6 0.5 0.3 1.1 -0.6 0.5 -1 1.8 -1.8 2.7 -1.8z"/>
  <path d="M18 96 c0 -1.9 -0.5 -3 -1.4 -3 -2.6 0 -4.8 -13.4 -2.4 -14.2 0.8 -0.3 2 2.1 3.3 6.7 1.2 3.9 3.1 8.5 4.4 10.3 l2.2 3.2 -3 0 c-2.8 0 -3.1 -0.3 -3.1 -3z"/>
  <path d="M155.1 95.8 c1.3 -1.8 3.2 -6.4 4.4 -10.3 1.3 -4.6 2.5 -7 3.3 -6.7 2.4 0.8 0.2 14.2 -2.4 14.2 -0.9 0 -1.4 1.1 -1.4 3 0 2.7 -0.3 3 -3.1 3 l-3 0 2.2 -3.2z"/>
  <path d="M13 72.5 c0 -2.4 0.5 -3.5 1.5 -3.5 0.8 0 1.5 -0.7 1.5 -1.5 0 -0.8 0.6 -1.5 1.3 -1.5 1.1 0 1.1 0.9 -0.2 5 -1.8 5.9 -4.1 6.7 -4.1 1.5z"/>
  <path d="M94 71.5 c0 -3.3 0.4 -4.5 1.5 -4.5 1 0 1.5 1.1 1.5 3.5 0 2.4 0.5 3.5 1.5 3.5 0.8 0 1.5 0.5 1.5 1 0 0.6 -1.3 1 -3 1 -2.9 0 -3 -0.2 -3 -4.5z"/>
  <path d="M159.9 71 c-1.3 -4.1 -1.3 -5 -0.2 -5 0.7 0 1.3 0.7 1.3 1.5 0 0.8 0.7 1.5 1.5 1.5 1 0 1.5 1.1 1.5 3.5 0 5.2 -2.3 4.4 -4.1 -1.5z"/>
  <path d="M56 71.1 c0 -3.2 0.4 -4 2.3 -4.5 6.8 -1.8 10.7 0.1 10.7 5.3 l0 3.1 -6.5 0 -6.5 0 0 -3.9z"/>
  <path d="M80 69.1 c0 -1.9 1.8 -3.1 4.6 -3.1 1.9 0 1.8 3.6 -0.2 4.4 -2.8 1.1 -4.4 0.6 -4.4 -1.3z"/>
  <path d="M46 67.6 c0 -2.8 1.2 -4.6 3.1 -4.6 1.9 0 2.4 1.6 1.3 4.4 -0.8 2 -4.4 2.1 -4.4 0.2z"/>
  <path d="M72.7 67.3 c-0.4 -0.3 -0.7 -1.5 -0.7 -2.5 0 -1.4 0.6 -1.9 2.3 -1.6 2.9 0.4 3.8 4.8 0.9 4.8 -1 0 -2.2 -0.3 -2.5 -0.7z"/>
  <path d="M37.6 65.4 c-1 -2.7 -0.7 -6.4 0.9 -9.5 1.2 -2.2 1.3 -3.4 0.5 -5 -0.8 -1.4 -0.8 -2.4 -0.1 -3.3 0.6 -0.6 0.8 -2.2 0.4 -3.4 -0.3 -1.2 0 -2.8 0.6 -3.6 0.7 -0.8 1.1 -1.8 0.9 -2.2 -0.1 -0.5 0.3 -1.9 1 -3.2 0.7 -1.2 1 -2.7 0.7 -3.2 -0.3 -0.5 0.3 -1.3 1.2 -1.9 1 -0.6 1.2 -1.1 0.6 -1.1 -1.5 0 -1.2 -3.2 0.6 -5.3 0.6 -0.9 2.5 -2 4.2 -2.6 2.7 -0.9 2.9 -0.8 2.9 1.5 0 1.7 -0.5 2.4 -2 2.4 -1.6 0 -2 1 -2.6 6 -0.4 3.3 -1.1 6.3 -1.5 6.6 -0.5 0.3 -0.9 1.4 -0.9 2.5 0 1 -0.4 1.9 -1 1.9 -0.6 0 -1 2.8 -1 6.5 0 3.7 -0.4 6.5 -1 6.5 -0.5 0 -1 1 -1 2.1 0 1.8 0.2 1.9 1.5 0.9 0.8 -0.7 1.5 -2.1 1.5 -3.1 0 -1.1 0.5 -1.9 1 -1.9 0.6 0 1 -0.6 1 -1.4 0 -1.7 2.2 -2.6 6.1 -2.6 4 0 3.7 2.3 -0.5 3.8 -4 1.5 -7.1 4.4 -3.7 3.5 3.2 -0.8 9.1 0.6 9.1 2.2 0 1 -1.6 1.5 -5.2 1.7 -4.7 0.3 -5.5 0.7 -7.3 3.5 -2.2 3.5 -5.9 4.4 -6.9 1.7z"/>
  <path d="M133 64.6 c-1.7 -4.6 -4.3 -5.5 -14.8 -5 -10.9 0.6 -10.8 -0.4 0.3 -3 5.6 -1.4 7.7 -1.5 10 -0.6 l3 1.1 -2.5 -2.6 c-2.7 -2.9 -2 -2.9 -18.3 0.2 -6.5 1.3 -8.8 2.2 -9.3 3.5 -0.3 1 -1.1 1.8 -1.9 1.8 -0.7 0 -1.5 0.7 -1.7 1.7 -0.2 1.4 -1.7 1.6 -9 1.5 -5.7 0 -9.3 -0.5 -10.3 -1.4 -3.4 -2.8 -4.3 -3.8 -4.7 -4.8 -0.1 -0.5 -4.2 -2 -9.1 -3.2 -5.5 -1.3 -8.7 -2.6 -8.7 -3.5 0 -1.7 3.2 -1.7 12.2 0.2 4 0.8 8.9 1.7 10.9 2 3.1 0.5 3.8 1 4.3 3.5 0.5 2.6 1 3 4 3 2.9 0 3.6 -0.5 4.4 -3 1.2 -3.2 2.2 -3.6 12.2 -4.4 3.6 -0.3 9 -1 12 -1.6 3 -0.6 7.6 -0.8 10.2 -0.4 3.7 0.4 5.1 0.2 6.4 -1.1 1.1 -1 1.3 -1.9 0.7 -2.3 -1.2 -0.8 -3.3 -9 -3.3 -12.6 0 -2 0.5 -2.6 2.1 -2.6 1.8 0 2 0.5 1.6 2.7 -0.3 1.8 0.1 3.6 1.4 5.2 1.2 1.5 1.6 2.8 1 3.5 -0.6 0.7 -0.4 2 0.4 3.6 1.1 2 1 2.8 -0.2 4.6 -1.1 1.8 -1.2 3.3 -0.4 7.6 0.5 2.9 1.3 6.1 1.6 7.1 0.6 1.3 0.2 1.7 -1.4 1.7 -1.3 0 -2.5 -0.9 -3.1 -2.4z"/>
  <path d="M20.6 63.4 c-0.3 -0.9 -0.6 -2.4 -0.6 -3.5 0 -1 -0.4 -1.9 -1 -1.9 -0.5 0 -1 -0.9 -1 -2 0 -1.1 -0.7 -2 -1.5 -2 -1.2 0 -1.5 -1.4 -1.5 -6.5 0 -4.9 0.3 -6.5 1.4 -6.5 0.7 0 1.6 -0.9 1.9 -2 0.4 -1.5 0 -2 -1.4 -2 -1.5 0 -1.9 -0.7 -1.9 -3.5 0 -1.9 0.5 -3.5 1 -3.5 0.6 0 1 -0.7 1 -1.5 0 -0.8 0.4 -1.5 0.9 -1.5 0.5 0 1.5 -2.4 2.2 -5.4 1 -4.7 1.6 -5.5 4.3 -6.4 2.6 -0.8 2.7 -1 0.9 -1.1 -1.3 -0.1 -2.3 -0.7 -2.3 -1.6 0 -0.8 -0.4 -1.5 -1 -1.5 -0.5 0 -1 -1.6 -1 -3.5 0 -3.2 0.2 -3.5 3 -3.5 2.3 0 3 -0.4 3 -2 0 -1.1 0.5 -2 1 -2 0.6 0 1 2.1 1 4.6 0 4.2 -0.2 4.5 -2.1 3.9 l-2.2 -0.7 2.2 3 c2.5 3.5 2.7 5.1 0.7 5.8 -0.8 0.3 -2.7 2.3 -4.2 4.5 -2.1 3.1 -2.5 4.2 -1.5 4.9 1 0.6 0.7 1.6 -1.3 4.6 l-2.6 3.9 2.4 0.3 2.5 0.3 -2.4 5.2 c-1.5 3.1 -2 5.4 -1.4 5.7 0.6 0.5 0.6 1.6 0 3.3 -0.8 2.1 -0.7 2.7 0.3 2.7 1.2 0 3.2 4.3 5.1 10.8 0.5 1.7 0.2 2.2 -1.3 2.2 -1.1 0 -2.3 -0.7 -2.6 -1.6z"/>
  <path d="M148.3 64.3 c-2.9 -0.6 -2.9 -2 -0.1 -4.3 l2.2 -1.8 -3.3 -0.7 c-2.5 -0.5 -3 -1 -2 -1.6 0.8 -0.5 2.5 -0.9 3.8 -0.9 2.5 0 2.5 0 -0.7 -3.3 -3.9 -4 -4 -4.6 -0.7 -3.9 3.7 0.7 3.1 -1.5 -1.5 -6 -4.4 -4.1 -4.5 -4.8 -0.4 -2.2 1.3 0.9 2.7 1.4 3 1.1 0.6 -0.6 -4 -8.2 -5.6 -9.2 -1.9 -1.2 -1 -2.6 1.3 -2 2.8 0.9 6.7 4.4 6.7 6.1 0 0.8 0.6 1.1 1.4 0.8 1.2 -0.5 1.2 -0.8 -0.2 -2.3 -0.9 -1 -2.5 -3.2 -3.4 -5 -1.1 -1.9 -3.1 -3.6 -5 -4.3 -2.8 -1 -3 -1.2 -1.2 -1.9 1 -0.4 3.7 -0.5 5.9 -0.2 3.8 0.4 3.9 0.3 2.1 -1.1 -1.3 -1 -4 -1.6 -7.4 -1.6 l-5.3 0 2 -2.6 c3.1 -4 2.5 -4.8 -1.2 -2 -3.3 2.5 -8.7 3.5 -8.7 1.7 0 -0.5 1.3 -1.4 2.8 -2 1.6 -0.7 5.4 -3.9 8.6 -7.2 3.2 -3.3 6.1 -5.8 6.3 -5.5 1.2 1.2 -1 5.8 -3.2 6.8 -2.9 1.3 -3.4 3.2 -0.6 2.3 3.4 -1.1 9.5 7.4 12.1 16.9 1.2 4.4 2.6 8.6 3.1 9.2 0.6 0.8 0.3 1.3 -1.1 1.7 -1.3 0.3 -1.8 1 -1.4 2.1 0.4 1.2 0 1.6 -1.5 1.6 -2.5 0 -2.5 0.1 -0.9 3.5 1 2.1 0.9 2.8 -0.2 3.5 -1.2 0.7 -1.2 1.2 0.2 2.7 1.4 1.7 1.4 2.2 -0.4 7.1 -1.2 2.8 -2.3 5.1 -2.7 5.1 -0.3 -0.1 -1.6 -0.4 -2.8 -0.6z"/>
  <path d="M153.3 63.8 c0.3 -0.7 1.3 -3.2 2.2 -5.6 1.4 -3.5 1.5 -4.5 0.4 -5.8 -1 -1.3 -1 -1.7 0.2 -2.4 1.1 -0.8 1.2 -1.3 0.2 -3 -1.8 -2.8 -1.6 -3.2 1.5 -2.8 2.3 0.3 2.7 0.8 3 4.1 0.2 2 -0.1 3.7 -0.5 3.7 -0.5 0 -0.7 1.7 -0.5 3.8 0.3 2.6 -0.1 4.4 -1.2 5.5 -0.9 0.8 -1.6 2 -1.6 2.6 0 0.6 -0.9 1.1 -2.1 1.1 -1.3 0 -1.9 -0.5 -1.6 -1.2z"/>
  <path d="M25.1 59.8 c-0.4 -1.3 -1.4 -4 -2.2 -6 -0.7 -2.1 -1.7 -3.8 -2.1 -3.8 -0.4 0 -0.3 -1.1 0.2 -2.5 0.5 -1.4 0.7 -3.1 0.4 -3.9 -0.3 -0.8 0.4 -3.2 1.5 -5.5 2.6 -5 2.6 -5.5 0.1 -4.8 -2.5 0.6 -2.5 0 0 -4.1 1.6 -2.6 1.8 -3.7 1 -4.7 -0.9 -1.1 -0.2 -2.3 3.1 -5.5 3.7 -3.6 4.1 -4.4 3.1 -6.1 -1.5 -2.3 -1.5 -3.2 -0.2 -2.4 0.7 0.4 0.8 -1.3 0.4 -4.9 l-0.7 -5.6 7.1 0 7.1 0 0.7 4.5 c0.5 3.4 1.4 5.2 3.8 7.1 l3.1 2.5 -5.5 -0.6 c-3 -0.4 -6.5 -1.3 -7.7 -2.1 -2.1 -1.3 -2.3 -1.3 -2.3 0.9 0 1.2 0.7 3.2 1.5 4.4 1.4 2 1.3 2.3 -2.3 4.4 -4.4 2.6 -8.2 5.9 -8.2 7.1 0 0.4 2 0.8 4.5 0.8 5.3 0 6 1.8 1.8 4.5 -3.4 2.1 -8.3 6.6 -8.3 7.5 0 0.4 1.1 0.5 2.4 0.3 1.3 -0.3 3.2 0 4.2 0.5 1.7 0.9 1.6 1.1 -0.9 2.3 -3.4 1.5 -1.9 2.8 3.3 2.9 3.3 0.1 3.4 0.2 1.1 1.1 -1.4 0.5 -4 1.9 -5.9 3.1 -3.1 1.9 -3.2 2.1 -1.7 3.8 1.8 2 1.7 6.1 -0.2 6.8 -0.7 0.2 -1.7 -0.7 -2.2 -2z m15.9 -53.3 c0 -2.2 -0.4 -2.5 -3.5 -2.5 -1.9 0 -3.5 0.5 -3.5 1 0 0.6 1.4 1 3 1 2 0 3 0.5 3 1.5 0 0.8 0.2 1.5 0.5 1.5 0.3 0 0.5 -1.1 0.5 -2.5z"/>
  <path d="M60 58.4 c0 -1.4 0.7 -1.5 4.2 -1 7.1 1.2 8 2.5 1.6 2.6 -4.7 0 -5.8 -0.3 -5.8 -1.6z"/>
  <path d="M159.2 42.8 c-1.8 -1.8 -1.5 -2.8 0.9 -2.8 2 0 2 -0.1 0.6 -2.3 -0.8 -1.3 -2.5 -5.9 -3.7 -10.3 -1.7 -6.5 -3 -9 -6.5 -12.9 l-4.3 -4.9 1.9 -2.4 c1.2 -1.6 1.7 -3.3 1.3 -4.8 -0.5 -2 -0.2 -2.4 1.5 -2.4 1.7 0 2.1 0.6 2.1 3 0 1.7 -0.4 3 -1 3 -0.5 0 -1 0.9 -1 2 0 1.1 0.5 2 1 2 0.6 0 1 0.7 1 1.5 0 0.8 0.7 1.5 1.5 1.5 0.8 0 1.5 0.9 1.5 2 0 1 0.6 2.3 1.4 2.7 1.4 0.8 4.6 11.3 4.6 15.1 0 1.1 0.8 2.2 2 2.5 1.5 0.4 2 1.4 2 4.1 0 2.4 -0.5 3.6 -1.4 3.6 -0.8 0 -2 0.2 -2.8 0.5 -0.7 0.3 -1.9 0 -2.6 -0.7z"/>
  <path d="M126 22.1 c0 -0.5 -2.2 -1.1 -5 -1.5 -4.1 -0.5 -5 -1 -5 -2.6 0 -1.1 0.5 -2 1.2 -2 3.2 0 12.9 3.5 14.4 5.1 1.6 1.8 1.6 1.9 -1.9 1.9 -2.1 0 -3.7 -0.4 -3.7 -0.9z"/>
  <path d="M80.8 20.9 c-0.3 -0.9 -2.9 -1.5 -8.4 -1.7 -4.4 -0.3 -8.2 -0.9 -8.6 -1.6 -0.5 -0.7 -0.8 -0.5 -0.8 0.5 0 1.8 -2.8 2.9 -7.2 2.9 -3.9 0 -3.5 -1.5 0.9 -3.6 5.4 -2.5 22.7 -2.6 26.5 -0.1 2 1.4 2.7 1.5 3.1 0.5 0.3 -1 0.9 -0.8 2.6 0.6 2.1 1.9 2.1 1.9 2.1 -0.4 0 -1.8 0.3 -2 1.4 -1.1 0.9 0.8 3.2 1 6.5 0.5 4.7 -0.6 5.1 -0.5 5.1 1.5 0 1.9 -0.5 2.1 -6.2 2.1 -3.5 0 -8.6 0.3 -11.4 0.6 -3.9 0.5 -5.3 0.3 -5.6 -0.7z"/>
  <path d="M106 18.6 c0 -1.4 2.9 -2.6 6.8 -2.6 1.5 0 2.2 0.6 2.2 2 0 1.7 -0.7 2 -4.5 2 -3.2 0 -4.5 -0.4 -4.5 -1.4z"/>
  <path d="M87.7 12.7 c-0.4 -1.6 -2.8 -5.1 -5.4 -7.8 -4.3 -4.7 -4.4 -4.9 -2.1 -4.9 4 0 9.2 7.7 8.6 12.8 l-0.3 2.7 -0.8 -2.8z"/>
  <path d="M62.5 12.6 c-2.9 -1.3 -9.6 -7.6 -8.1 -7.6 0.9 0 15.6 8.1 15.6 8.6 0 0.9 -4.7 0.3 -7.5 -1z"/>
  <path d="M109.6 9.5 c1.8 -1.8 3.7 -4.6 4 -6.4 1 -5.1 2.7 -3.7 1.9 1.7 -0.8 5.6 -1.2 6.1 -5.8 7.2 l-3.6 0.8 3.5 -3.3z"/>
  <path d="M76.5 9.5 c-5.5 -1.9 -12.2 -9.5 -8.4 -9.5 0.7 0 3.3 2 5.8 4.3 2.6 2.4 5.3 4.6 6.1 4.9 0.8 0.3 1.3 0.8 1 1.1 -0.3 0.3 -2.3 -0.1 -4.5 -0.8z"/>
  <path d="M89 5.9 c0 -1.1 -0.5 -2.9 -1 -4 -0.9 -1.6 -0.7 -1.9 0.9 -1.9 2.3 0 3.3 2.3 2.5 5.6 -0.8 2.9 -2.4 3.2 -2.4 0.3z"/>
  <path d="M140 5.3 c0 -1.2 -0.3 -2.8 -0.6 -3.7 -0.4 -1.1 -0.1 -1.6 1 -1.6 1.8 0 2.2 3.6 0.6 6 -0.8 1.2 -1 1.1 -1 -0.7z"/>
  <path d="M56 2.5 l-2.3 -2.5 2.5 0 c1.9 0 2.7 0.6 3 2.5 0.3 1.4 0.2 2.5 -0.2 2.5 -0.3 0 -1.7 -1.1 -3 -2.5z"/>
  <path d="M128.2 2.5 c0.6 -1.4 1.8 -2.5 2.6 -2.5 1.2 0 1 0.6 -0.8 2.5 -1.3 1.4 -2.5 2.5 -2.7 2.5 -0.1 0 0.3 -1.1 0.9 -2.5z"/>
  <path d="M101 3.4 c0 -1.7 1.8 -3.6 3 -3.2 0.7 0.2 0.4 1 -0.9 2.2 -1.2 1.1 -2.1 1.5 -2.1 1z"/>
  <path d="M144 1.5 c0 -0.8 0.7 -1.5 1.5 -1.5 0.9 0 1.2 0.6 0.9 1.5 -0.4 0.8 -1 1.5 -1.5 1.5 -0.5 0 -0.9 -0.7 -0.9 -1.5z"/>
 </g>
 <g fill="#575757">
  <path d="M81 178.3 c0 -3.4 1.2 -6.3 2.6 -6.3 2.3 0 1.6 -1.8 -0.8 -2.2 -1.4 -0.2 -2.4 -1.2 -2.8 -2.8 -0.5 -2 -1.3 -2.6 -4.1 -2.8 -2.3 -0.2 -4 0.3 -4.9 1.2 -1.5 1.9 -6.7 2.1 -8.4 0.3 -0.7 -0.7 -3 -6.3 -5.1 -12.6 l-3.7 -11.3 -5.7 0.5 c-7.5 0.6 -13.1 2.7 -13.1 4.9 0 1 -0.7 1.8 -1.5 1.8 -1 0 -1.5 1 -1.5 3 0 2.3 -0.4 3 -2 3 -2.5 0 -2.5 -2 -0.1 -6.8 2.4 -4.7 5 -7 9.8 -8.8 4.9 -1.7 15.7 -1.8 17.1 -0.1 0.5 0.6 2.7 6.5 4.8 13.1 l3.9 11.8 7.3 -7.7 c3.9 -4.3 7.2 -8.2 7.2 -8.7 0 -2 -2.3 -0.4 -7.2 5.2 -2.9 3.3 -5.6 6 -5.9 6 -0.4 0 -2.4 -5 -4.4 -11.1 -2.6 -7.7 -3.5 -11.7 -2.9 -13 0.8 -1.7 1.3 -1.5 6.4 2.6 3 2.4 7.6 5.1 10.1 6 4 1.3 4.9 2.2 6.9 6.5 1.8 3.8 2 5.2 1.2 6.3 -0.9 1.1 -0.7 1.8 0.8 3.2 1.8 1.6 1.9 2 0.5 3.5 -1.2 1.3 -1.2 2.2 -0.3 4.6 0.6 1.8 0.8 4.9 0.4 7.7 -0.6 3.7 -1.1 4.7 -2.7 4.7 -1.1 0 -1.9 -0.7 -1.9 -1.7z m1.8 -18 c-1 -0.2 -2.6 -0.2 -3.5 0 -1 0.3 -0.2 0.5 1.7 0.5 1.9 0 2.7 -0.2 1.8 -0.5z m-9.4 -10.5 c0.3 -1.3 0.1 -2.4 -0.4 -2.6 -0.6 -0.2 -1 -1.2 -1 -2.3 0 -1.5 -0.7 -1.9 -3.4 -1.9 l-3.5 0 1.6 4.5 c1.2 3.6 2 4.5 3.8 4.5 1.5 0 2.5 -0.7 2.9 -2.2z"/>
  <path d="M87 179.3 c0 -0.5 0.5 -2.4 1 -4.4 0.7 -2.5 0.7 -4.6 0 -6.4 -0.9 -2.3 -0.7 -3.2 1 -5 l2.1 -2.2 -2.2 -1.4 -2.1 -1.5 2.4 -3.6 c1.4 -2 3 -5 3.7 -6.6 1.2 -2.9 5.1 -5.2 8.9 -5.2 0.8 0 4.3 -2.3 7.7 -5 3.5 -2.8 6.6 -4.6 7 -4.1 0.5 0.9 -6 23.7 -7.2 25 -0.2 0.3 -3.3 -2.4 -6.8 -5.9 -3.5 -3.5 -6.8 -6.1 -7.2 -5.7 -0.6 0.7 13.4 15.7 14.8 15.7 0.3 0 1.1 -1.9 1.8 -4.2 4.6 -15.9 6.5 -20.8 7.7 -20.8 0.9 0 1.4 1.1 1.4 3 0 1.7 -0.4 3 -1 3 -0.5 0 -1 1.2 -1 2.7 0 1.4 -1.2 6.6 -2.7 11.5 -2.6 8.8 -2.6 8.8 -6 8.8 -2.9 0 -3.3 -0.3 -3.3 -2.5 0 -1.8 -0.5 -2.5 -2 -2.5 -1.1 0 -2 0.5 -2 1 0 0.6 -0.9 1 -2 1 -1.1 0 -2 0.5 -2 1 0 0.6 -1.6 1 -3.5 1 l-3.5 0 0 5.4 c0 3 -0.3 6.1 -0.6 7 -0.6 1.6 -4.4 2.3 -4.4 0.9z m15 -18.2 c0 -0.6 -1.7 -0.7 -3.7 -0.4 -5.2 0.8 -5.4 1.3 -0.5 1.3 2.3 0 4.2 -0.4 4.2 -0.9z m-5.5 -4.1 c1.3 -0.5 1.4 -0.9 0.5 -0.9 -0.8 0 -2.4 0.4 -3.5 0.9 -1.3 0.5 -1.4 0.9 -0.5 0.9 0.8 0 2.4 -0.4 3.5 -0.9z m12.7 -8 c0.4 0 0.8 -1.1 0.8 -2.5 0 -2.1 -0.5 -2.5 -3 -2.5 -2 0 -3 0.5 -3 1.5 0 0.8 -0.7 1.5 -1.5 1.5 -2.2 0 -1.9 1 1.3 4.3 l2.7 2.9 0.9 -2.6 c0.6 -1.4 1.3 -2.6 1.8 -2.6z"/>
  <path d="M145.5 153.5 c-0.5 -3.7 -1.2 -5.5 -2.1 -5.5 -0.8 0 -1.4 -0.7 -1.4 -1.5 0 -0.8 -0.7 -1.5 -1.5 -1.5 -0.8 0 -1.5 -0.4 -1.5 -1 0 -0.5 -0.6 -1 -1.4 -1 -0.7 0 -1.6 -1.1 -1.8 -2.5 -0.5 -2.2 -0.3 -2.5 1.6 -1.9 6.1 1.9 10.9 8.3 12.2 16.3 0.6 3.7 0.4 4.1 -1.4 4.1 -1.7 0 -2.2 -0.8 -2.7 -5.5z"/>
  <path d="M152.1 153 c-2 -9.2 -6.2 -14.5 -13.6 -17.1 -4.3 -1.6 -4.6 -3.9 -0.5 -3.9 3.1 0 8 1.8 8 3 0 0.4 0.9 1 2.1 1.3 1.1 0.3 2.3 1.5 2.6 2.6 0.3 1.2 0.9 2.1 1.4 2.1 1.1 0 3.9 9.6 3.9 13.7 0 5.3 -2.6 4.2 -3.9 -1.7z"/>
  <path d="M22.3 150 c0.8 -6.9 2.2 -9 5.7 -9 2.6 0 3 -0.4 3 -2.8 0 -4 3.4 -5.4 14.3 -6 6.5 -0.3 8.7 -0.8 8.7 -1.8 0 -0.8 -1 -1.4 -2.5 -1.4 -1.6 0 -2.5 -0.6 -2.5 -1.5 0 -0.8 -0.4 -1.5 -1 -1.5 -0.5 0 -1.2 -1.1 -1.6 -2.5 -0.3 -1.4 -1 -2.5 -1.5 -2.5 -0.5 0 -0.9 -1.1 -0.9 -2.5 0 -1.5 -0.6 -2.5 -1.4 -2.5 -0.8 0 -2 -1.6 -2.7 -3.5 -1.2 -3.3 -1.5 -3.5 -6 -3.5 -2.9 0 -5.3 -0.6 -6.3 -1.5 -0.8 -0.8 -1.9 -1.5 -2.4 -1.5 -1.4 0 -5.2 -4.5 -5.2 -6.3 0 -0.9 -0.6 -1.7 -1.4 -1.7 -0.8 0 -2.3 -2.4 -3.5 -5.5 -2.2 -5.9 -2.8 -12.5 -1.1 -12.5 0.6 0 1 -1.1 1 -2.5 0 -1.4 -0.4 -2.5 -1 -2.5 -1.4 0 -1.3 -6.6 0.1 -9.3 0.6 -1.2 2 -2.9 3 -3.7 1.6 -1.3 1.7 -2 0.7 -5.2 -0.6 -2.1 -1.5 -3.8 -1.9 -3.8 -1.4 0 -2.2 -9 -1 -11.6 0.6 -1.5 0.7 -2.4 0.1 -2.4 -1.3 0 -1.3 -7.7 0 -8.2 0.5 -0.1 1.4 -2.5 1.9 -5.3 0.5 -2.7 1.4 -5.1 2 -5.3 0.6 -0.2 1.1 -1 1.1 -1.8 0 -0.8 0.9 -1.4 2 -1.4 1.3 0 2 -0.7 2 -2 0 -1.1 -0.4 -2 -1 -2 -0.5 0 -1 -1.6 -1 -3.5 0 -2.4 0.5 -3.5 1.5 -3.5 1 0 1.5 -1 1.5 -3 0 -2.3 0.4 -3 2 -3 1.7 0 2 0.7 2 4.5 0 4.2 -0.2 4.5 -1.9 3.5 -3.3 -1.7 -3.4 -1.1 -0.7 2.4 3.1 4.1 3.2 5.2 0.7 6.6 -2.8 1.4 -6.7 8 -5.3 8.9 0.8 0.5 0.4 1.9 -1.3 4.3 -3 4.5 -3.1 4.8 -0.5 4.8 2.5 0 2.5 1.1 -0.1 6.2 -1.4 2.7 -1.7 4.4 -1.1 4.6 0.8 0.2 0.8 1.1 0.1 2.8 -1.2 3.2 -1.2 3.4 0.4 3.4 0.7 0 2.3 2.7 3.5 6 1.8 5.2 1.9 6.2 0.7 6.5 -0.8 0.3 -2.2 0.7 -3 1 -4.9 1.5 -5.7 15.7 -1.6 25.1 4.3 9.6 14.2 17 19.1 14.4 1.2 -0.6 2.3 -1 2.4 -0.8 0.1 0.2 1.5 2.8 3.1 5.8 4.6 8.7 11.4 19 13 19.6 1.8 0.7 2 3.5 0.3 5.2 -0.7 0.7 -4.3 1.2 -9 1.2 -12.2 0 -18.8 4.5 -21.9 14.8 -0.7 2.5 -1.8 4.2 -2.7 4.2 -1.2 0 -1.4 -1 -0.9 -5z"/>
  <path d="M84.5 148 c-1.7 -3.3 -1.8 -4 -0.7 -4 0.5 0 1.5 1.4 2.3 3.2 l1.5 3.1 1.3 -3.1 c1.2 -2.7 3.1 -4.4 3.1 -2.7 0 1.8 -3.3 6.5 -4.5 6.5 -0.8 0 -2.1 -1.3 -3 -3z"/>
  <path d="M118.6 133.3 c-0.4 -1.1 0.5 -2.6 2.7 -4.7 3.4 -3.2 10.2 -14 14 -22.4 1.4 -3.1 2.2 -4.1 2.5 -3 0.9 4.5 8.3 2.5 14.4 -3.8 4.8 -5.1 7.9 -12.3 8.5 -19.8 0.6 -7.1 -1.5 -13.5 -4.7 -14.3 -2.4 -0.7 -2.5 -2.2 -0.3 -6.8 1.4 -2.8 1.5 -4 0.6 -5.5 -1 -1.4 -0.9 -2.1 0.3 -3.1 1 -0.8 1.2 -1.5 0.4 -2.3 -1.7 -1.7 -1.1 -3.6 1.1 -3.6 1.7 0 1.9 -0.3 1 -1.3 -1.3 -1.7 -0.5 -2.7 2.2 -2.7 2 0 2 0 0 -2.3 -1.1 -1.2 -2.6 -4.7 -3.3 -7.7 -1.8 -8 -3.4 -11.3 -7.5 -15.8 -3.6 -4 -3.6 -4.1 -2 -7.2 0.9 -1.7 1.3 -4 1 -5 -0.5 -1.6 -0.2 -2 1.4 -2 1.8 0 2.1 0.6 2.1 4.3 0 2.3 -0.4 4.9 -1 5.7 -1.1 1.8 0.5 4 3.1 4 1 0 2.2 0.8 2.7 1.8 1.6 2.9 5.1 16.8 5.8 22.6 0.6 4.8 0.4 5.5 -1.4 6 -1.9 0.7 -3.8 6.6 -2 6.6 1.1 0 1 5.3 -0.2 8.4 -0.6 1.6 -0.6 2.6 0 2.6 1.6 0 4 5.7 4 9.5 0 1.9 -0.4 3.5 -1 3.5 -0.5 0 -1 1.1 -1 2.5 0 1.4 0.5 2.5 1 2.5 1.7 0 1.1 6.6 -1.1 12.5 -1.2 3.1 -2.7 5.5 -3.5 5.5 -0.8 0 -1.4 0.8 -1.4 1.8 0 1.8 -3.8 6.2 -5.4 6.2 -0.4 0 -1.4 0.7 -2.2 1.5 -1 0.9 -3.4 1.5 -6.5 1.5 -3.7 0 -4.9 0.4 -4.9 1.5 0 0.8 -0.9 1.5 -2 1.5 -1.5 0 -2 0.7 -2 3 0 3.2 -1.9 8 -3.2 8 -0.4 0 -0.8 0.7 -0.8 1.5 0 0.8 -0.4 1.5 -1 1.5 -0.5 0 -1 0.7 -1 1.5 0 0.8 -0.8 1.5 -1.9 1.5 -1.3 0 -2 0.9 -2.4 3 -0.7 3.3 -4 4.2 -5.1 1.3z"/>
  <path d="M101 131.4 c-1.4 -1 -2.7 -1.9 -2.9 -2 -0.7 -0.6 2.8 -3.4 4.3 -3.4 1 0 1.6 -0.9 1.6 -2.1 0 -1.6 -0.4 -1.9 -1.7 -1.4 -1 0.4 -3.2 0.9 -5 1.2 -2.5 0.4 -3.3 1.2 -3.8 3.4 -0.5 2.4 -1.2 2.9 -5 3.5 -2.4 0.3 -4.8 0.3 -5.4 0 -0.6 -0.4 -2 -0.2 -3.1 0.4 -1.8 0.9 -2 0.8 -2 -1.5 l0 -2.6 -3.7 2.5 c-2 1.4 -3.8 2.4 -4 2.2 -0.2 -0.2 0.1 -1.5 0.6 -2.8 0.9 -2.5 0.9 -2.5 -2.5 -1.8 l-3.5 0.8 0.7 -3.4 c0.5 -2.7 0.3 -3.4 -1 -3.4 -2.7 0 -1.8 -1.8 1.4 -2.5 1.6 -0.4 3.2 -1.1 3.5 -1.6 0.3 -0.5 4.1 -2.5 8.3 -4.6 9.9 -4.7 11.6 -6.9 6.8 -9.1 -1.8 -0.8 -4 -0.6 -9.5 0.7 -8 2 -11.1 4.2 -11.1 8 0 3.6 -3.5 3.8 -6.8 0.6 -1.9 -1.9 -2.3 -3.2 -2 -6 l0.4 -3.5 -3.6 0.6 c-2.7 0.4 -3.9 0.1 -5.2 -1.3 -1.7 -1.8 -1.6 -2.1 0.7 -5.6 l2.5 -3.7 -3.1 0.7 -3.2 0.6 0.7 -4.3 c0.4 -2.4 0.3 -4.6 -0.2 -4.9 -1 -0.7 -5.2 -11.7 -5.2 -13.7 0 -0.8 0.9 -1.4 2 -1.4 1.5 0 2 0.7 2 2.5 0 1.6 0.6 2.5 1.5 2.5 1.1 0 1.5 -1.1 1.5 -4.1 0 -7.7 0.3 -7.9 15.3 -7.9 9 0 13.7 0.4 14.5 1.2 0.7 0.7 1.2 3.1 1.2 5.5 0 3.2 0.4 4.3 1.5 4.3 0.8 0 1.5 0.7 1.5 1.5 0 1.7 -6.6 2.2 -7.2 0.5 -0.2 -0.7 -4.1 -1.1 -9.6 -1.1 l-9.2 0 0 -3.4 c0 -2.3 0.5 -3.5 1.8 -3.9 0.9 -0.2 0.1 -0.4 -1.8 -0.3 -3.5 0.2 -3.5 0.2 -3.8 5.5 -0.3 4.4 -0.6 5.2 -2.3 5.2 -1.7 0 -1.9 0.5 -1.3 4.3 0.9 6.3 1.1 6.7 4 6.7 2.6 0 2.6 0.2 2.1 4.6 -0.2 2.6 -1 5 -1.7 5.4 -0.7 0.4 0.8 0.5 3.4 0.3 l4.6 -0.6 0 4.1 c0 2.2 0.3 4.7 0.6 5.6 1 2.6 2.4 1.8 2.4 -1.4 0 -2.7 0.3 -3 3 -3 2 0 3 -0.5 3 -1.5 0 -0.9 0.9 -1.5 2.5 -1.5 1.6 0 2.5 -0.6 2.5 -1.5 0 -0.8 -0.7 -1.5 -1.5 -1.5 -1.1 0 -1.5 -1.1 -1.5 -3.8 0 -4.7 2.4 -7.2 6.8 -7.2 2.7 0 3.2 0.4 3.2 2.4 0 1.8 0.7 2.5 2.9 2.9 2.1 0.4 3 1.3 3.3 2.8 0.3 2.1 0.4 2.2 1.9 0.6 1.4 -1.3 1.6 -3.2 1.1 -10.6 -0.5 -8.8 -0.4 -9.1 1.7 -9.1 1.9 0 2.1 0.5 2.1 5.9 0 3.3 0.5 7.2 1 8.6 0.9 2.3 0.6 3 -1.9 5.6 -3.4 3.3 -5.1 3.6 -8.8 1.2 -2.7 -1.8 -9.3 -2.6 -9.3 -1.2 0 1.3 4 3.1 5.8 2.6 1.2 -0.3 1.1 -0.5 -0.5 -0.6 -1.3 0 -2.3 -0.5 -2.3 -1.1 0 -1.7 2.5 -1.1 5.9 1.4 3.9 2.9 7.2 2.2 11 -2.5 2 -2.6 2.2 -3.4 1.2 -5.5 -1.4 -3.1 -1.5 -23.4 -0.1 -23.4 0.6 0 1 1.4 1 3.1 0 2.2 0.5 3.2 2 3.6 1.1 0.3 2 1.2 2 1.9 0 0.8 -0.9 1.4 -2 1.4 -1.7 0 -2 0.7 -2 4 0 2.2 0.5 4 1 4 0.6 0 1 0.7 1 1.5 0 1 1 1.5 2.9 1.5 1.7 0 3.1 0.6 3.5 1.6 1.1 3 0.6 6.7 -1.1 8 -2.3 1.6 -1.1 2.7 4.5 4.3 3.1 0.9 4.2 1.7 4.2 3.1 0 1.1 0.7 2 1.5 2 0.8 0 1.5 0.5 1.5 1 0 0.6 0.7 1 1.5 1 0.8 0 1.5 -0.4 1.5 -1 0 -0.5 -0.5 -1 -1.1 -1 -0.6 0 -0.9 -1.6 -0.7 -3.7 0.3 -3.6 0.5 -3.8 4.1 -4.1 3.4 -0.3 3.7 -0.6 3.7 -3.3 0 -2.4 0.4 -2.9 2.5 -2.9 2.2 0 2.5 -0.5 2.5 -3.2 0 -4.3 1.9 -11.1 3.4 -12 0.6 -0.4 -0.4 -0.8 -2.1 -0.8 -2.3 0 -3.3 -0.5 -3.3 -1.6 0 -1.3 -0.6 -1.4 -3.2 -0.7 -1.8 0.4 -6.2 0.8 -9.8 0.8 l-6.5 0 -0.3 -3.7 c-0.3 -3.1 0 -3.7 2 -4.2 1.3 -0.3 -0.3 -0.3 -3.5 0 -5.6 0.4 -5.8 0.3 -5.5 -1.8 0.3 -2.3 0.6 -2.3 14.6 -2.6 16 -0.3 15.6 -0.5 15.7 7.5 0 3.4 0.4 4.3 1.8 4.3 1.2 0 1.7 -0.8 1.7 -2.5 0 -1.8 0.5 -2.5 2 -2.5 2.6 0 2.5 1.4 -0.5 9.4 -2.1 5.6 -2.2 6.6 -0.9 6.6 2.8 0 1.1 3.5 -1.9 3.8 l-2.7 0.3 2 2.6 c2.8 3.6 2.5 4.7 -1 4 -2.8 -0.6 -4.1 0.5 -2 1.8 1.5 0.9 -1.1 5.5 -3.1 5.5 -1 0 -2.9 -0.4 -4.3 -1 l-2.5 -0.9 1.4 4 c2 5.5 0.6 8.4 -3.6 7.5 -1.9 -0.3 -2.8 -0.2 -2.4 0.4 0.3 0.6 0 1 -0.8 1 -0.9 0 -1.7 -1.4 -2.1 -3.5 -0.8 -4.1 -3.1 -5.5 -12.3 -7.9 -9 -2.3 -10.3 -2.2 -10.3 1.3 0 3.5 0.7 4 9.4 7.6 3.7 1.6 7 3.5 7.3 4.2 0.3 0.7 1.3 1.3 2.3 1.3 2.8 0 3.2 1.5 1 4 -1.2 1.4 -2 3.8 -2 5.8 0 2.9 -0.2 3.2 -1.4 2.3 -1.2 -1 -1.5 -0.8 -1.8 0.9 -0.3 2 -0.4 2 -2.8 0.4z m-10.5 -5.5 c3 -0.3 -7.4 -1.7 -12 -1.7 -2.2 0.1 -3 0.3 -1.7 0.5 1.2 0.2 2.2 1 2.2 1.7 0 1 1.2 1.1 4.8 0.5 2.6 -0.4 5.6 -0.9 6.7 -1z m8.8 -29.7 c0.9 -0.8 1.7 -2.2 1.6 -3.1 0 -1.1 -0.3 -0.8 -0.9 0.6 -0.5 1.3 -2.4 2.9 -4.2 3.8 -2.3 1 -2.5 1.3 -0.8 0.9 1.4 -0.4 3.3 -1.3 4.3 -2.2z m-33.3 -24.6 c0 -0.2 -1.6 -0.6 -3.5 -0.8 -1.9 -0.2 -3.5 0 -3.5 0.4 0 0.4 1.6 0.8 3.5 0.8 1.9 0 3.5 -0.2 3.5 -0.4z"/>
  <path d="M30.4 101.1 c-9 -5.5 -14.8 -21.4 -11.1 -30.4 1.9 -4.3 4.9 -4.9 9 -1.7 2.9 2.3 3.9 5.1 6.2 16 0.9 4.1 1.8 8.3 2.1 9.3 0.8 2.7 -2.3 2.1 -4.2 -0.9 -1.5 -2.2 -1.6 -3.1 -0.5 -5.9 1 -2.7 0.9 -4 -0.5 -7.7 -3 -7.6 -8.3 -11.6 -10.4 -7.8 -1.2 2.3 -1.3 6 -0.1 7.8 0.5 0.8 0.7 -0.4 0.7 -3 -0.1 -4.8 1.9 -6.1 4.9 -3.2 1.6 1.6 1.6 1.8 -0.7 3.1 l-2.3 1.3 2.7 -0.6 c4.2 -0.9 5.3 2.2 2.1 6 -1.7 2.1 -2.3 3.8 -2.1 5.8 0.4 2.7 0.4 2.7 -1.4 1.1 -2.8 -2.5 -2.1 -0.2 1.2 3.7 2.5 3 3.5 3.5 7.2 3.5 3.9 0 4.3 0.2 4.6 2.8 0.3 2.3 0 2.7 -2 2.7 -1.3 0 -3.7 -0.9 -5.4 -1.9z"/>
  <path d="M139.2 100.3 c0.3 -2.6 0.7 -2.8 4.6 -2.8 3.7 0 4.7 -0.5 7.2 -3.5 3.3 -3.9 4 -6.2 1.2 -3.7 -1.8 1.6 -1.8 1.6 -1.4 -1.1 0.2 -2 -0.4 -3.7 -2.1 -5.8 -3.1 -3.7 -2.1 -7 1.9 -6 3 0.8 3.2 -0.2 0.3 -1.2 -2 -0.8 -2 -0.9 -0.4 -2.6 3 -2.9 5 -1.6 4.9 3.2 0 2.6 0.2 3.8 0.7 3 1.2 -1.8 1.1 -5.5 -0.1 -7.8 -2.1 -3.9 -7.4 0.2 -10.4 7.9 -1.4 3.7 -1.5 4.9 -0.5 6.8 0.9 1.6 1 3.2 0.3 5 -1 2.7 -3.9 5.2 -4.9 4.1 -0.4 -0.4 0.3 -5.5 1.6 -11.4 1.9 -8.9 2.8 -11.2 5.5 -14 4.4 -4.8 8 -4.6 10.1 0.3 4.7 11.4 -6 32.3 -16.5 32.3 -2 0 -2.3 -0.4 -2 -2.7z"/>
  <path d="M29.3 95.8 c-0.4 -0.7 -0.9 -1.7 -1 -2.3 -1.4 -5.3 -1.3 -6.2 0.5 -8.5 2.3 -2.8 4.3 -1.9 2.4 1 -1.6 2.7 -1.5 6.1 0.4 8.8 1.3 1.9 1.3 2.2 0 2.2 -0.8 0 -1.8 -0.6 -2.3 -1.2z"/>
  <path d="M145.4 94.8 c1.9 -2.6 2 -6.1 0.5 -9 -1.6 -3 0 -3.6 2.3 -0.8 1.8 2.3 1.9 3.2 0.5 8.5 -0.5 2.1 -1.9 3.5 -3.3 3.5 -1.3 0 -1.3 -0.3 0 -2.2z"/>
  <path d="M89 68 c0 -1.3 0.7 -2 2 -2 1.3 0 2 0.7 2 2 0 1.3 -0.7 2 -2 2 -1.3 0 -2 -0.7 -2 -2z"/>
  <path d="M37.5 63.7 c-0.4 -2.1 -0.1 -4.7 0.8 -6.8 0.7 -1.9 1.3 -6 1.2 -9.1 -0.2 -5.5 -0.1 -5.8 2.1 -5.8 2.2 0 2.4 0.4 2.4 5 0 3.8 0.4 5 1.5 5 0.8 0 1.5 -0.7 1.5 -1.5 0 -1 1.1 -1.5 3.5 -1.5 2.4 0 3.5 0.5 3.5 1.5 0 0.8 -0.6 1.5 -1.4 1.5 -0.8 0 -2.7 1.1 -4.2 2.4 l-2.8 2.3 10.5 0.5 c5.7 0.2 11.3 1 12.4 1.6 1.6 0.9 -0.5 1.1 -10 1.2 -8.3 0 -12.5 0.4 -13.4 1.3 -1.1 1 -1.3 1 -0.7 0 0.5 -0.9 0 -1.3 -1.3 -1.3 -1.7 0 -2.1 0.6 -2.1 3.5 0 4.7 -2.7 4.8 -3.5 0.2z"/>
  <path d="M133.4 64.5 c-0.9 -3.8 -3.2 -4.5 -13.9 -4.5 -5.3 0 -9.4 -0.4 -9.1 -0.8 0.8 -1.3 13.9 -3.5 17.5 -3 3.7 0.5 4 -0.6 0.6 -2.8 -2.6 -1.7 -4.3 -1.6 -18.4 1.2 -5.1 1 -7.9 2.1 -8.9 3.5 -0.7 1 -1.7 1.7 -2.2 1.4 -0.4 -0.3 -1.1 0.6 -1.4 2 -0.4 1.6 -1.1 2.2 -2 1.9 -0.9 -0.3 -1.2 -1.2 -0.8 -2.2 0.5 -1.6 0.5 -1.6 -1.1 0 -0.9 0.9 -2.5 1.4 -3.7 1.1 -2.3 -0.6 -2.7 -3.3 -0.5 -3.3 0.8 0 1.5 -0.4 1.5 -1 0 -1.8 3.4 -5 5.5 -5 1.1 0 6.6 -0.9 12.3 -2 5.6 -1.1 13.3 -2 17 -2 l6.8 0 -0.4 -4 c-0.2 -2.2 -0.8 -4 -1.3 -4 -0.5 0 -0.9 -1.6 -0.9 -3.5 0 -2.4 0.5 -3.5 1.5 -3.5 0.8 0 1.5 0.6 1.5 1.4 0 0.7 0.9 2.5 2 3.9 1.2 1.5 1.6 2.7 0.9 2.9 -0.7 0.2 -0.7 1.2 0.2 3.1 1 2.2 1 3.2 -0.1 5.2 -1.1 2.1 -1.1 3.5 0.2 8.7 0.8 3.5 1.3 6.6 1.1 7.1 -0.9 1.6 -3.3 0.5 -3.9 -1.8z m-36.9 -5.6 c-0.5 -1.6 -0.4 -1.9 0.5 -1.4 0.9 0.6 1.1 0.4 0.5 -0.4 -1 -1.8 -2.7 0.2 -1.9 2.2 0.9 2.5 1.7 2.1 0.9 -0.4z"/>
  <path d="M148.1 63.3 l-2.4 -0.5 2.9 -2.3 2.9 -2.3 -3.5 -1 -3.5 -0.9 3.8 -0.8 3.8 -0.8 -3.3 -3.4 -3.3 -3.4 2.7 0.6 c2.4 0.6 2.6 0.5 2.1 -1.7 -0.3 -1.2 -1.3 -3.1 -2.1 -4.1 -1.4 -1.6 -1.4 -1.7 0.1 -1.1 2.4 0.9 2.2 0 -1.8 -6.1 -3.8 -6.1 -2.8 -7.3 2.4 -2.9 l3 2.5 -1 -2.8 c-1.4 -3.9 -2.9 -5.7 -6.4 -7.6 l-3 -1.6 5.3 -0.1 c2.8 0 5.2 -0.4 5.2 -0.8 0 -1.4 -4.8 -3.2 -8.5 -3.2 -3.4 0 -3.4 -0.1 -2.3 -2.7 2.3 -5.5 3.1 -5.6 7.6 -1 3.6 3.7 4.7 5.8 6.7 13 1.3 4.8 2.6 9.1 3 9.7 0.3 0.6 -0.3 1 -1.5 1 -1.6 0 -2 0.4 -1.6 1.6 0.4 1.1 -0.1 1.8 -1.4 2.1 -1.9 0.5 -2 0.7 -0.5 3 1.2 1.8 1.4 2.8 0.5 3.8 -0.8 1 -0.8 1.8 0.1 3.3 1 1.6 0.9 2.8 -0.7 6.6 -1 2.5 -2.1 4.5 -2.4 4.5 -0.3 -0.1 -1.6 -0.4 -2.9 -0.6z"/>
  <path d="M79 61.1 c0 -1.4 -0.5 -1.8 -1.9 -1.4 -1.3 0.3 -2.1 -0.2 -2.6 -1.6 -0.6 -2 -5.1 -3.8 -14.2 -5.6 -2.1 -0.4 -3.3 -1.3 -3.3 -2.2 0 -1.3 1 -1.5 5.7 -1 3.2 0.3 5.9 1.1 6.1 1.7 0.2 0.5 3.3 1 7.2 1 l6.9 0 0.7 3.5 c0.3 2 1.2 3.5 2 3.5 2.3 0 1.6 2.7 -0.8 3.4 -4.1 1.1 -5.8 0.7 -5.8 -1.3z m-1.4 -5 c-1.2 -1.9 -2.4 -1.2 -1.9 1 0.4 1.3 0.9 1.7 1.5 1.1 0.6 -0.6 0.7 -1.5 0.4 -2.1z"/>
  <path d="M23.8 55.3 c-2.8 -7.5 -3 -12.2 -0.5 -17 2.2 -4.2 2.1 -5.3 -0.3 -5.3 -2 0 -2 -0.1 0.4 -3.7 1.8 -2.6 2.2 -4 1.5 -4.9 -0.7 -0.9 -0.1 -2.3 2.5 -5.2 3.6 -4 4.7 -7.2 2.4 -7.2 -1 0 -1 -0.2 0 -0.9 0.8 -0.5 1.3 -2.4 1.2 -4.7 -0.3 -6.5 -0.5 -6.3 6.2 -6.1 l6.3 0.2 0.6 3.8 c0.3 2.1 1.8 5 3.3 6.6 l2.7 2.8 -6 -1.1 c-3.8 -0.7 -6.6 -1.8 -7.6 -3.1 -1.5 -1.9 -1.6 -1.8 -1 2 0.4 2.2 1.2 4.6 1.8 5.4 0.9 1.1 0.7 1.7 -1.2 3 -4 2.8 -10.1 8.3 -10.1 9.1 0 0.5 2.1 0.8 4.6 0.7 5.2 -0.2 7.1 1.7 3.2 3.2 -1.3 0.5 -4.1 2.8 -6.3 5.1 l-4 4.2 3.7 -0.6 c4.4 -0.8 6 0.9 2.3 2.6 -3.2 1.4 -1.6 2.8 3.5 2.8 l3.5 0 -4.2 2.1 c-5.9 2.9 -7 4.5 -4.8 6.8 1.6 1.9 1.4 6.1 -0.4 6.1 -0.4 0 -1.9 -3 -3.3 -6.7z"/>
  <path d="M42.9 34.7 c0.6 -0.8 0.8 -1.7 0.4 -2 -0.3 -0.4 0 -1.3 0.7 -2.2 1 -1.2 1 -1.5 0 -1.5 -1 0 -1 -0.3 0 -1.5 1 -1.2 1 -1.5 -0.1 -1.5 -2.6 0 1.8 -3.2 9.2 -6.6 6.1 -2.7 8.5 -3.3 13.4 -3.2 4.9 0.1 5.2 0.2 1.8 0.5 -2.9 0.3 -4.3 0.9 -4.3 1.9 0 0.8 -1 1.4 -2.5 1.4 -1.4 0 -2.5 0.4 -2.5 0.8 0 1.1 -4.6 3.2 -7 3.2 -1.1 0 -2 0.5 -2 1 0 0.6 -0.7 1 -1.5 1 -1.1 0 -1.5 1.2 -1.5 5 0 4.7 -0.1 5 -2.6 5 -2.1 0 -2.4 -0.3 -1.5 -1.3z"/>
  <path d="M127.5 32 c-0.4 -0.6 -0.6 -2.5 -0.5 -4.3 0.3 -5.1 0.1 -5.7 -2 -5.7 -1.3 0 -2 -0.7 -2 -2 0 -2.6 2.5 -2.6 6.8 0 2.5 1.5 3.2 2.7 3.2 5 0 1.6 -0.5 3 -1.2 3 -0.6 0 -0.4 0.7 0.5 1.8 1 1 1.7 2.2 1.7 2.5 0 1.1 -5.8 0.8 -6.5 -0.3z"/>
  <path d="M82 19.9 c0 -2.7 0.2 -3 1.5 -1.9 1.2 1 1.9 1 2.7 0.2 0.9 -0.9 1.6 -0.8 3 0.5 1.7 1.5 1.8 1.5 1.9 -0.8 0 -1.3 0.3 -1.8 0.6 -1.1 0.2 0.6 1.1 1.2 1.9 1.2 0.8 0 1.4 0.5 1.4 1 0 0.6 -0.5 1 -1.1 1 -0.6 0 -1.7 0.7 -2.5 1.5 -0.9 0.8 -3.3 1.5 -5.5 1.5 -3.7 0 -3.9 -0.2 -3.9 -3.1z"/>
  <path d="M98 19.6 c0 -0.7 1 -1.6 2.3 -2 4.1 -1.1 5.7 -0.7 5.7 1.4 0 1.7 -0.7 2 -4 2 -2.7 0 -4 -0.4 -4 -1.4z"/>
  <path d="M109 18.6 c0 -0.8 1.4 -1.7 3.1 -2.1 4.2 -0.9 9.9 0.2 9.9 2 0 1.2 -1.5 1.5 -6.5 1.5 -4.9 0 -6.5 -0.3 -6.5 -1.4z"/>
  <path d="M132 16 c1.4 -1.1 3 -2 3.7 -2 0.6 0 2.7 -1.9 4.7 -4.1 4.2 -4.9 7.6 -7.5 7.6 -5.9 0 0.7 -1.3 2.5 -3 4 -1.6 1.5 -3 3.2 -3 3.8 0 1.6 -7.5 6.2 -10.1 6.2 l-2.4 0 2.5 -2z"/>
  <path d="M64.8 13 c-2.9 -0.9 -10.1 -6 -9.4 -6.7 0.2 -0.3 3.4 1.2 7 3.2 8 4.5 8.7 5.4 2.4 3.5z"/>
  <path d="M87.7 11.8 c-0.4 -1.3 -2.4 -4.4 -4.6 -6.8 -4.5 -5 -3.6 -6.9 1 -2.4 2.6 2.5 5.7 9.9 4.6 11 -0.3 0.3 -0.7 -0.6 -1 -1.8z"/>
  <path d="M109.7 10.2 c1.2 -0.9 2.9 -3.3 3.7 -5.2 l1.5 -3.5 0.1 3.3 c0 3.5 -2.9 7.2 -5.7 7.2 -1.5 0 -1.5 -0.3 0.4 -1.8z"/>
  <path d="M73.4 7.4 c-5.5 -3.8 -8 -7.4 -5.1 -7.4 0.7 0 1.8 0.9 2.5 2 0.7 1.1 3.1 3.3 5.4 5 5 3.7 2.6 4 -2.8 0.4z"/>
  <path d="M89.1 3.9 c-1.4 -4 -1.4 -3.9 0.4 -3.9 1 0 1.5 1.1 1.5 3.5 0 4.3 -0.5 4.4 -1.9 0.4z"/>
  <path d="M140 3.1 c0 -1.7 0.5 -3.1 1 -3.1 0.6 0 1 1.1 1 2.4 0 1.4 -0.4 2.8 -1 3.1 -0.6 0.4 -1 -0.7 -1 -2.4z"/>
  <path d="M56.5 2 c-1.5 -1.7 -1.6 -2 -0.3 -2 0.9 0 1.9 0.7 2.2 1.6 1 2.5 0.1 2.7 -1.9 0.4z"/>
  <path d="M128.7 2 c0.3 -1.1 1.2 -2 2.1 -2 1.3 0 1.2 0.3 -0.3 2 -1 1.1 -1.9 2 -2.1 2 -0.1 0 0 -0.9 0.3 -2z"/>
 </g>
 <g fill="#9e8c86">
  <path d="M87.4 178.4 c0.3 -0.9 0.6 -2 0.6 -2.5 0 -0.5 0.7 -0.9 1.5 -0.9 0.9 0 1.5 0.9 1.5 2.5 0 1.9 -0.5 2.5 -2.1 2.5 -1.5 0 -1.9 -0.4 -1.5 -1.6z"/>
  <path d="M82 168.3 c0 -3.5 0 -3.6 2 -1.8 1.1 1 2 2.6 2 3.7 0 1.1 -0.7 1.8 -2 1.8 -1.6 0 -2 -0.7 -2 -3.7z"/>
  <path d="M99 163 c0 -0.5 0.7 -1 1.5 -1 0.8 0 1.5 -0.4 1.5 -1 0 -0.5 -0.7 -1 -1.5 -1 -0.8 0 -1.5 -0.7 -1.5 -1.5 0 -2.3 2.9 -1.8 6.8 1.2 3.2 2.4 3.3 2.7 1.6 3.4 -2.8 1.1 -8.4 1.1 -8.4 -0.1z"/>
  <path d="M81 162 c0 -0.5 0.7 -0.7 1.5 -0.4 0.8 0.4 1.5 0.1 1.5 -0.5 0 -0.6 -0.7 -1.1 -1.5 -1.1 -0.8 0 -1.5 -0.9 -1.5 -2 0 -1.1 0.7 -2 1.5 -2 0.8 0 1.5 -0.5 1.5 -1.2 0 -0.6 0.3 -0.8 0.6 -0.5 0.4 0.4 0.1 1.4 -0.6 2.2 -1.1 1.3 -1 1.8 0.9 3.1 1.2 0.9 1.9 2 1.6 2.5 -0.8 1.2 -5.5 1.2 -5.5 -0.1z"/>
  <path d="M88.8 159.3 c-1.3 -1.6 -1.3 -2 0.3 -3.4 1.6 -1.6 1.7 -1.5 1.6 1.7 -0.1 1.9 -0.2 3.4 -0.2 3.4 -0.1 0 -0.9 -0.8 -1.7 -1.7z"/>
  <path d="M146 156.5 c0 -4 2.4 -4.9 3.4 -1.2 1 3.7 0.7 4.7 -1.4 4.7 -1.6 0 -2 -0.7 -2 -3.5z"/>
  <path d="M105.3 155.5 l-2.8 -2.4 3.8 -0.1 c3.3 0 3.7 0.3 3.7 2.5 0 3.1 -1.1 3.2 -4.7 0z"/>
  <path d="M114 153.9 c0 -0.6 1 -4.4 2.2 -8.5 1.6 -5.7 2.5 -7.4 4 -7.4 1.1 0 1.8 0.7 1.8 2 0 1.1 -0.4 2 -1 2 -0.5 0 -1 1.4 -1 3 0 1.7 -0.4 3 -1 3 -0.5 0 -1 1.6 -1 3.5 0 2.8 -0.4 3.5 -2 3.5 -1.1 0 -2 -0.5 -2 -1.1z"/>
  <path d="M92.8 149.1 c1.5 -3.4 2.3 -4.1 6.9 -5.4 l5.3 -1.4 0 2.3 c0 2 -0.5 2.4 -2.9 2.4 -1.6 0 -3.2 0.6 -3.4 1.3 -0.4 1 -0.6 1 -0.6 0 -0.1 -0.7 -0.8 -1.3 -1.7 -1.3 -1.1 0 -1.5 0.6 -1.1 2 0.3 1.3 0 2 -0.9 2 -0.8 0 -1.4 0.5 -1.4 1 0 0.6 -0.4 1 -0.9 1 -0.5 0 -0.2 -1.8 0.7 -3.9z"/>
  <path d="M73 149.3 c0 -2.6 -0.4 -3.3 -2 -3.3 -1.5 0 -2 -0.7 -2 -2.8 l0 -2.8 5.8 2.8 c3.8 1.7 6.3 3.7 7.1 5.4 1 2.3 0.9 2.6 -0.4 2.1 -0.8 -0.4 -1.5 -0.2 -1.5 0.3 0 0.6 -0.5 1 -1 1 -0.7 0 -0.7 -0.6 0 -1.9 2.1 -4.1 0 -4.3 -3.5 -0.3 l-2.4 2.7 -0.1 -3.2z"/>
  <path d="M109 148.5 c0 -2.8 0.4 -3.5 2 -3.5 1.3 0 2 -0.7 2 -2 0 -1.6 -0.7 -2 -3.2 -2 l-3.3 -0.1 4 -3.4 c4.7 -4.1 7 -4.6 5.9 -1.2 -0.4 1.2 -1.1 2.5 -1.6 2.8 -0.5 0.3 -0.8 1 -0.6 1.5 0.1 0.5 -0.4 3.3 -1.1 6.2 -1.5 6.1 -4.1 7.2 -4.1 1.7z"/>
  <path d="M84.5 148 c-0.8 -1.6 -1.5 -3.1 -1.5 -3.5 0 -0.3 2 -0.5 4.5 -0.5 2.5 0 4.5 0.2 4.5 0.5 0 1.8 -3.3 6.5 -4.5 6.5 -0.8 0 -2.1 -1.3 -3 -3z"/>
  <path d="M140.7 146.3 c-0.4 -0.3 -0.7 -1.9 -0.7 -3.5 0 -2.8 0.1 -2.8 2.1 -1.4 1.1 0.8 2.7 2.4 3.5 3.5 1.4 2 1.4 2.1 -1.4 2.1 -1.6 0 -3.2 -0.3 -3.5 -0.7z"/>
  <path d="M32 145.1 c0 -1.1 3.9 -4.1 5.2 -4.1 0.5 0 0.8 1.1 0.8 2.5 0 2.1 -0.5 2.5 -3 2.5 -1.6 0 -3 -0.4 -3 -0.9z"/>
  <path d="M60 138.5 c-1.2 -1.5 -0.7 -4.5 0.8 -4.5 0.4 0 2.3 1.3 4.2 3 l3.5 2.9 -3.6 0.1 c-2.1 0 -4.2 -0.7 -4.9 -1.5z"/>
  <path d="M101.3 131.3 c-0.7 -0.2 -1.3 -1.8 -1.3 -3.4 0 -2.6 0.3 -2.9 3.5 -2.9 3.1 0 3.5 0.3 3.5 2.6 0 2.1 -0.3 2.4 -2.2 1.9 -1.7 -0.6 -2 -0.4 -1.5 0.9 0.6 1.6 0.2 1.8 -2 0.9z"/>
  <path d="M71.4 128.7 c0.6 -2.5 0.5 -2.6 -2.9 -2 l-3.4 0.6 0.9 -3.2 c0.5 -1.7 0.7 -3.2 0.4 -3.2 -0.2 -0.1 -0.8 -0.2 -1.3 -0.3 -1.9 -0.2 -2.3 -1.6 -0.5 -1.6 1.1 0 2.9 -0.6 4 -1.4 1.8 -1.3 2.2 -1.2 4.3 1 2.1 2.2 3.1 2.4 12.2 2.4 9.7 0 13.6 -0.9 18 -4.1 1.3 -1 2.1 -0.8 4 0.9 l2.3 2.2 -2.5 0 c-1.3 0 -3.2 0.9 -4.2 2 -0.9 1.1 -2.4 2 -3.2 2 -0.9 0 -1.5 0.9 -1.5 2.5 0 2.8 -0.3 2.9 -3.1 1.5 -1.6 -0.9 -1.9 -0.7 -1.9 0.8 0 1.5 -0.5 1.8 -2.5 1.4 -2.6 -0.5 -3.5 -3.2 -1.1 -3.2 0.8 0 1.8 -0.4 2.1 -1 0.4 -0.6 -1.2 -1 -3.9 -1 -2.5 0 -4.6 0.5 -4.6 1 0 0.6 0.7 1 1.5 1 0.8 0 1.5 0.7 1.5 1.5 0 0.8 -0.8 1.5 -1.7 1.5 -1 0 -2.9 0.3 -4.2 0.7 -2.3 0.6 -2.4 0.4 -1.8 -2.5 0.5 -2.7 0.3 -3.2 -1.2 -3.2 -1.1 0 -2.1 -0.6 -2.4 -1.2 -0.2 -0.7 -0.8 -1 -1.2 -0.6 -0.5 0.5 0.1 1.6 1.3 2.6 l2.1 1.8 -3.1 1.9 -3.1 1.8 0.7 -2.6z"/>
  <path d="M73.6 118.1 c-3.1 -3.4 -1.1 -4.4 7.2 -3.8 4.2 0.3 9.8 0.2 12.5 -0.4 5.4 -1 10 -0.3 9.4 1.5 -0.9 2.9 -7.2 4.6 -17.3 4.6 -8.7 0 -10.3 -0.3 -11.8 -1.9z"/>
  <path d="M57.4 112.5 l-2.2 -2.4 2.7 -0.3 c1.8 -0.2 2.7 -1 2.9 -2.5 0.2 -1.5 1 -2.3 2.3 -2.3 1 0 1.9 -0.7 1.9 -1.5 0 -1 1 -1.5 3.1 -1.5 1.7 0 3.7 -0.7 4.5 -1.5 1.4 -1.3 1.3 -1.5 -0.5 -1.5 -1.7 0 -2.1 -0.6 -2.1 -3.5 0 -2.4 0.5 -3.5 1.5 -3.5 1 0 1.5 -1 1.5 -3 l0 -3 -12.5 0 c-10.4 0 -12.5 0.2 -12.5 1.5 0 1 1 1.5 3 1.5 2.8 0 3 0.3 3 3.5 0 2.4 -0.5 3.5 -1.5 3.5 -0.8 0 -1.5 0.7 -1.5 1.5 0 1 1.1 1.5 3.5 1.5 3.3 0 3.5 0.2 3.5 3.5 0 1.9 -0.4 3.5 -1 3.5 -0.5 0 -1 -0.9 -1 -1.9 0 -1.7 -0.3 -1.8 -3.5 -0.8 -3 0.9 -3.8 0.8 -5.3 -0.7 -1.6 -1.6 -1.6 -1.9 0.6 -5.6 2.7 -4.8 2.7 -5.4 0.3 -4 -3.4 1.8 -4.1 1.2 -3.6 -3.1 0.3 -2.3 0.2 -4.6 -0.3 -5.3 -1.1 -1.3 -5.2 -12.2 -5.2 -13.6 0 -0.6 0.9 -1 2 -1 1.5 0 2 0.7 2 2.5 0 1.8 0.5 2.5 2 2.5 1.6 0 1.9 -0.5 1.4 -2.7 -0.3 -1.6 -0.1 -4 0.5 -5.5 l1.1 -2.8 12.4 0 c6.8 0 13.1 0.3 14 0.6 1.1 0.4 1.6 1.9 1.6 5 0 3.7 0.3 4.4 2 4.4 1.6 0 2 -0.7 2 -3 0 -1.9 0.7 -3.3 1.9 -4 3.1 -1.6 5.1 -1.2 5.1 1 0 1.1 -0.7 2 -1.5 2 -1 0 -1.5 1 -1.5 3 0 1.7 -0.5 3 -1.3 3 -0.6 0 -1.9 2 -2.8 4.4 -1.3 3.7 -1.4 4.6 -0.3 5 0.9 0.3 1.4 2.1 1.4 4.5 0 5.4 4.1 7 8 3.1 1.1 -1.1 1.6 -2 1 -2 -0.5 0 -1 -1.6 -1 -3.5 0 -5 2.2 -4.4 4.1 1 l1.7 4.5 -2.8 3 c-3.3 3.6 -5.1 3.7 -9 0.9 -2 -1.5 -3.6 -2 -5.4 -1.5 -2.1 0.5 -2.6 0.3 -2.6 -1.3 0 -1.1 0.5 -2.3 1 -2.6 0.6 -0.3 1 -1.1 1 -1.8 0 -0.6 -1 -0.1 -2.2 1.1 -2.1 2.1 -2.2 2.4 -0.7 5 1.2 2.1 2.2 2.7 5.1 2.8 2 0 4.4 0.6 5.2 1.3 1.7 1.4 5.2 0.7 7.9 -1.7 1.7 -1.5 1.7 -1.4 1.1 0.4 -0.6 1.6 -0.5 1.7 0.7 0.7 0.7 -0.7 2 -1.3 2.9 -1.3 0.8 0 2.3 -1.1 3.2 -2.4 1.5 -2.1 1.6 -2.5 0.2 -4.2 -1.5 -1.8 -1.5 -1.8 -1 -0.1 0.8 2.6 -1.1 5.7 -3.4 5.7 -2.2 0 -2.6 -1 -0.9 -2.7 0.7 -0.7 0.7 -2.2 -0.2 -5.2 -0.7 -2.3 -0.9 -4.4 -0.4 -4.9 0.4 -0.4 1 -0.1 1.2 0.6 0.3 0.6 1.4 1.2 2.4 1.2 1.9 0 1.9 -0.1 0.2 -2.4 -1 -1.3 -2.4 -2.1 -3 -1.9 -1 0.4 -1.3 -1.4 -1.3 -7.1 0 -4.4 0.4 -7.6 1 -7.6 0.6 0 1 1.6 1 3.5 0 2.8 0.4 3.5 1.9 3.5 1.7 0 2 -0.8 2.3 -4.7 l0.3 -4.8 14.5 0 14.5 0 0.3 5.3 c0.3 4.4 0.6 5.2 2.3 5.2 1.4 0 1.9 -0.7 1.9 -2.5 0 -1.8 0.5 -2.5 2 -2.5 2.6 0 2.5 0.6 -0.5 8.6 -2.9 7.7 -3 8.5 -1 7.8 1.1 -0.5 1.3 -0.2 0.9 0.9 -0.3 0.9 -1.2 1.3 -2.1 1 -1.1 -0.4 -1.4 -0.2 -0.9 0.5 0.4 0.7 0.1 1.2 -0.7 1.2 -1.3 0 -1.3 0.4 -0.4 2.5 0.7 1.4 1.5 2.5 2 2.5 0.4 0 0.7 0.5 0.7 1 0 0.7 -1.4 0.8 -3.7 0.4 -3.7 -0.7 -3.7 -0.6 -2.1 1.2 1.4 1.6 1.4 2.2 0.4 3.7 -1.7 2.3 -2.4 2.2 -2.9 -0.5 -0.4 -2 -0.4 -1.9 -0.6 0.4 -0.1 2.5 -0.3 2.7 -2.7 1.7 -3.3 -1.2 -3.9 -0.7 -2.5 1.9 1.7 3.2 1.3 5.2 -0.9 5.2 -1.2 0 -2 0.7 -2 1.6 0 1 -0.6 1.4 -1.4 1.1 -0.9 -0.4 -1.6 0.1 -1.9 1.1 -0.3 1.5 -0.5 1.4 -1.1 -0.3 -2.1 -6 -3.2 -7 -9.6 -9.2 -7.6 -2.5 -13.5 -2.9 -14.3 -0.9 -0.3 0.7 0.1 2.5 0.8 4 1.3 2.5 1.2 2.6 -1 2.6 -2.1 0 -2.3 -0.3 -1.8 -3.4 0.5 -3 0.2 -3.4 -2.1 -4 -2.9 -0.7 -10.1 0.7 -15.9 3.2 -2.8 1.1 -4 2.3 -4.4 4.4 -0.3 1.6 -1.4 3.3 -2.4 3.8 -2.3 1.3 -2.1 1.4 -4.5 -1.5z m60 -8.5 c0.6 -4.5 0.9 -5 3.1 -5 2.2 0 2.5 -0.4 2.5 -3.5 0 -3.1 0.3 -3.5 2.5 -3.5 2.1 0 2.5 -0.5 2.5 -3 l0 -3 -12.5 0 -12.6 0 0.3 7.3 c0.3 6.6 0.5 7.2 2.6 7.5 1.2 0.2 2.2 1 2.2 1.8 0 0.9 1.1 1.4 3 1.4 2.5 0 3 0.4 3 2.5 0 4.8 2.7 2.8 3.4 -2.5z m5.1 -33 c2.3 -0.9 2.6 -1.3 1.5 -2 -2.3 -1.4 -4 -1.2 -4 0.6 0 1.1 -0.8 1.5 -2.7 1.3 -5.1 -0.4 -7.4 0.1 -6.7 1.2 0.7 1.3 7.3 0.7 11.9 -1.1z m-48.5 0.2 c0 -1.1 -2.2 -3.2 -3.3 -3.2 -0.4 0 -0.6 0.4 -0.3 0.9 0.3 0.5 -0.1 1.1 -0.9 1.5 -0.9 0.3 -1.5 0 -1.5 -0.9 0 -1.8 -3.6 -1.5 -8 0.7 l-3.5 1.7 8.8 0.1 c4.8 0 8.7 -0.4 8.7 -0.8z"/>
  <path d="M81.5 113.1 c-3.6 -0.7 -3.7 -0.8 -1.5 -1.4 7.1 -1.7 18.1 -1.3 16 0.6 -1 1 -10.7 1.4 -14.5 0.8z"/>
  <path d="M24 101.5 c-2 -2.4 -0.6 -2.8 1.5 -0.5 1 1.1 1.3 2 0.8 2 -0.6 0 -1.6 -0.7 -2.3 -1.5z"/>
  <path d="M30.4 101 c-6.4 -4.2 -11.6 -14.4 -11.6 -23 0 -11 3.8 -14.1 9.9 -7.7 2.6 2.7 3.5 5 5.6 14.5 2.1 9.8 2.2 11.3 0.8 11 -0.8 -0.2 -2.2 -1.5 -3.1 -3 -1.2 -2.3 -1.3 -3.1 -0.2 -4.8 1.7 -2.8 1.5 -4.1 -1.4 -10.8 -2 -4.6 -3.2 -6.2 -5.2 -6.7 -1.9 -0.5 -3 -0.2 -3.9 1.1 -1.7 2.3 -1.7 8.1 0.1 9.1 0.7 0.4 1.6 1.5 1.9 2.3 0.4 1 0.6 0.7 0.6 -0.7 0.1 -1.3 -0.3 -2.3 -0.8 -2.3 -1.2 0 -2 -3.6 -1.4 -6 0.9 -3.4 3.5 -2.4 3.1 1.2 -0.2 1.9 0.2 3.3 1 3.5 0.6 0.3 1.2 0 1.2 -0.6 0 -1.9 1.8 -1.2 2.5 1 0.5 1.4 0 2.8 -1.4 4.3 -1.2 1.2 -2.1 3.5 -2.1 5 0 2.4 -0.2 2.7 -1.5 1.6 -2.6 -2.2 -1.6 0.4 1.7 4.4 2.9 3.5 3.4 3.8 6.9 3.2 3.2 -0.5 3.9 -0.3 4.4 1.4 1.4 4.3 -2 5.2 -7.1 2z"/>
  <path d="M139.5 102 c-0.3 -0.6 -0.3 -1.9 0 -3 0.5 -1.7 1.2 -1.9 4.4 -1.4 3.5 0.6 4 0.3 6.9 -3.2 3.3 -4 4.3 -6.6 1.7 -4.4 -1.3 1.1 -1.5 0.8 -1.5 -1.6 0 -1.5 -0.9 -3.8 -2.1 -5 -3 -3.2 -1.8 -6.8 1.9 -6 2.5 0.6 2.6 0.5 0.8 -0.9 -1.6 -1.2 -1.7 -1.7 -0.6 -3 0.7 -0.8 1.9 -1.5 2.6 -1.5 1.5 0 1.9 1.6 1.5 6.4 -0.2 1.8 0.1 2.6 0.8 2.1 1.6 -0.9 1.4 -6.8 -0.3 -9 -2.3 -3.2 -6.2 -0.6 -9.2 6 -2.7 6.3 -2.9 7.7 -1.2 10.5 1.1 1.7 1 2.5 -0.2 4.8 -0.9 1.5 -2.4 2.8 -3.4 3 -1.5 0.3 -1.8 0 -1.2 -1.9 0.3 -1.3 1.3 -5.8 2.2 -9.9 2.1 -10.5 2.2 -10.6 5.5 -14 6.2 -6.1 10.1 -3 10.1 8 0 6 -1.8 11.4 -5.9 17.3 -4 5.7 -11.1 9.5 -12.8 6.7z"/>
  <path d="M151.5 101 c1 -1.1 2 -1.8 2.3 -1.5 0.7 0.6 -1.8 3.5 -3.1 3.5 -0.5 0 -0.2 -0.9 0.8 -2z"/>
  <path d="M77 97 c0 -1.3 1.1 -1.3 3 0 1.2 0.8 1.1 1 -0.7 1 -1.3 0 -2.3 -0.4 -2.3 -1z"/>
  <path d="M28.6 93.8 c-1 -3.9 -0.7 -8.5 0.7 -9.7 2.2 -1.7 2.8 -0.1 1.1 3 -1.3 2.6 -1.3 3.2 0.1 5.9 1.3 2.5 1.3 3 0.1 3 -0.7 0 -1.6 -1 -2 -2.2z"/>
  <path d="M146.5 93 c1.4 -2.7 1.4 -3.4 0.2 -6 -1.6 -3.2 -1.1 -4.6 1 -2.9 2.4 2 1.3 11.9 -1.3 11.9 -1.2 0 -1.2 -0.5 0.1 -3z"/>
  <path d="M16.6 88.4 c-0.4 -1.4 -0.5 -2.8 -0.3 -3.1 0.3 -0.2 0.8 0.8 1.1 2.3 0.4 1.4 0.5 2.8 0.3 3.1 -0.3 0.2 -0.8 -0.8 -1.1 -2.3z"/>
  <path d="M159.1 90 c0 -0.8 0.4 -2.4 0.9 -3.5 0.5 -1.3 0.9 -1.4 0.9 -0.5 0 0.8 -0.4 2.4 -0.9 3.5 -0.5 1.3 -0.9 1.4 -0.9 0.5z"/>
  <path d="M15.3 77.5 c0 -2.7 0.2 -3.8 0.4 -2.2 0.2 1.5 0.2 3.7 0 5 -0.2 1.2 -0.4 0 -0.4 -2.8z"/>
  <path d="M89 78.5 c0 -1.9 0.5 -3.5 1 -3.5 0.6 0 1 -0.9 1 -2 0 -1.1 -0.4 -2 -1 -2 -0.5 0 -1 -1.2 -1 -2.6 0 -1.9 0.5 -2.5 1.8 -2.2 3.1 0.6 2.8 15.8 -0.3 15.8 -1 0 -1.5 -1.1 -1.5 -3.5z"/>
  <path d="M161.3 77.5 c0 -2.7 0.2 -3.8 0.4 -2.2 0.2 1.5 0.2 3.7 0 5 -0.2 1.2 -0.4 0 -0.4 -2.8z"/>
  <path d="M17 66.5 c0 -0.9 0.7 -1.8 1.5 -2.2 2.3 -0.8 2.4 0 0.3 2 -1.5 1.4 -1.8 1.5 -1.8 0.2z"/>
  <path d="M157.8 65.8 c-1.5 -1.5 -1.6 -1.8 -0.3 -1.8 0.9 0 1.8 0.7 2.2 1.5 0.8 2.3 0 2.4 -1.9 0.3z"/>
  <path d="M37.7 63.4 c-0.4 -2.6 0 -4.8 1.3 -7.4 1.4 -2.7 1.6 -4 0.8 -4.8 -0.8 -0.8 -0.8 -1.8 -0.1 -3.6 0.8 -1.6 0.8 -2.7 0.1 -3.4 -0.7 -0.7 -0.6 -1.7 0.3 -3.3 0.7 -1.3 1.2 -2.8 1.1 -3.3 -0.2 -0.5 0.5 -1.7 1.4 -2.7 1 -1.1 1.4 -2.2 1.1 -2.6 -0.4 -0.3 -0.2 -1.2 0.4 -2 0.9 -1 0.8 -1.3 -0.2 -1.3 -1 0 -1 -0.3 -0.2 -1.1 0.6 -0.6 0.9 -1.7 0.6 -2.5 -0.5 -1.4 12.2 -7.9 17.6 -9 2.7 -0.6 3.1 -0.4 3.1 1.4 0 1.7 -0.8 2.2 -4.5 2.8 -2.7 0.4 -4.5 1.2 -4.5 1.9 0 0.8 -1.5 1.7 -3.2 2 -4.1 0.9 -4.8 1.9 -4.8 7.3 0 3.1 -0.4 4.2 -1.5 4.2 -1 0 -1.5 1 -1.5 3.3 0 1.8 -0.5 3.8 -1.1 4.4 -0.6 0.6 -0.9 2.3 -0.7 3.9 0.3 2.7 0.5 2.9 4.6 2.6 2.3 -0.2 4.2 0 4.2 0.5 0 0.4 -1.7 1.9 -3.7 3.3 l-3.7 2.5 3.7 0.3 c4.6 0.4 4.8 1.6 0.5 2.8 -2.3 0.6 -3.8 1.9 -4.8 4.1 -2.2 4.7 -5.5 4.5 -6.3 -0.3z"/>
  <path d="M133.3 64 c-1.4 -3.8 -4.6 -5 -14.1 -5.1 l-7.7 -0.1 6 -1.5 c3.5 -0.8 7.9 -1.2 10.5 -0.9 3.2 0.5 4.1 0.3 3.3 -0.5 -1.2 -1.2 -0.6 -4.9 0.8 -4.9 0.5 0 0.9 -1.1 0.9 -2.5 0 -1.4 -0.4 -2.5 -1 -2.5 -0.5 0 -1 -1.3 -1 -3 0 -1.6 -0.4 -3 -1 -3 -0.6 0 -1 -3.4 -1 -8.2 l0 -8.3 -6 -1.7 c-3.2 -1 -7.5 -1.8 -9.5 -1.8 -4.4 0 -4.8 -2.6 -0.5 -3.5 3.5 -0.8 14.1 1.8 17.5 4.2 2.8 2.1 3.2 5.8 0.8 7.1 -1.4 0.9 -1.4 1.1 0.6 2.1 1.8 1 2.1 1.8 1.6 4.2 -0.5 2.2 -0.2 3.6 1 4.9 0.9 1 1.4 2.4 1 3 -0.4 0.6 -0.1 2.5 0.5 4.1 1.1 2.5 1 3.2 -0.4 4.8 -1.5 1.6 -1.5 2.2 -0.1 6.7 1.8 6 1.9 9.4 0.2 9.4 -0.7 0 -1.8 -1.3 -2.4 -3z"/>
  <path d="M79.7 62.3 c-0.4 -0.3 -0.7 -1.3 -0.7 -2.2 0 -1.4 0.2 -1.4 1 -0.1 0.9 1.3 1 1.3 0.9 0 0 -0.8 -0.4 -2.4 -0.9 -3.5 l-0.9 -2 -0.1 2 c-0.1 1.8 -0.1 1.9 -1.1 0.3 -1.5 -2.6 -3.2 -2.2 -2.4 0.5 l0.7 2.2 -1.6 -2.1 c-0.8 -1.2 -3.1 -2.5 -5.1 -2.8 -2.2 -0.4 -3.5 -1.3 -3.5 -2.2 0 -1.4 1 -1.5 7.3 -0.9 3.9 0.4 7.4 1.1 7.5 1.6 0.2 0.5 1 0.9 1.8 0.9 0.8 0 1.4 1 1.4 2.5 0 1.4 0.5 2.5 1 2.5 2 0 0.9 2.8 -1.2 3.4 -2.9 0.7 -3.3 0.7 -4.1 -0.1z"/>
  <path d="M93.3 62.3 c-1.8 -0.7 -1.6 -4.1 0.2 -5.9 0.8 -0.9 1.5 -2.5 1.5 -3.6 0 -1.8 0.5 -2 4.4 -1.6 2.4 0.3 7.5 -0.1 11.2 -0.8 9.2 -1.8 12.4 -1.8 12.4 0.1 0 0.9 -1.4 1.7 -3.7 2.1 -2.1 0.3 -6.7 1.3 -10.3 2 -3.6 0.8 -7.1 1.6 -7.9 1.8 -0.7 0.1 -1.9 1.3 -2.7 2.7 -0.7 1.3 -1.3 1.8 -1.4 1.1 0 -0.7 0.5 -2.2 1.1 -3.3 0.9 -1.8 0.8 -1.9 -0.9 -1 -2 1 -3.2 3.2 -3.2 5.4 0 0.8 0.3 0.7 0.9 -0.1 0.7 -1.1 0.9 -1.1 1.4 0.2 0.6 1.6 -0.6 1.9 -3 0.9z"/>
  <path d="M57 58 c0 -1.1 3.1 -1.1 7.5 0 2.6 0.7 2.2 0.8 -2.2 0.9 -3 0 -5.3 -0.3 -5.3 -0.9z"/>
  <path d="M86.4 22.5 c-0.4 -0.9 -1.9 -1.5 -4 -1.5 -3 0 -3.4 -0.3 -3.4 -2.5 0 -3.1 0.9 -3.1 4.5 -0.3 1.9 1.5 3 1.8 3.3 1 0.2 -0.8 0.9 -0.9 2.3 -0.2 1.5 0.8 1.9 0.7 1.9 -0.4 0 -1 0.6 -1.3 1.5 -1 0.9 0.4 1.5 1.9 1.5 3.5 0 2.7 -0.3 2.9 -3.5 2.9 -2.2 0 -3.8 -0.6 -4.1 -1.5z"/>
  <path d="M100 19.6 c0 -1.3 2.8 -2.6 5.8 -2.6 0.6 0 1.2 0.9 1.2 2 0 1.6 -0.7 2 -3.5 2 -2.3 0 -3.5 -0.5 -3.5 -1.4z"/>
 </g>
 <g fill="#d99e8e">
  <path d="M85.1 148.8 c-0.7 -1.9 -0.5 -2.4 1.1 -2.6 2.6 -0.5 4 1 3.2 3.1 -0.9 2.4 -3.3 2.1 -4.3 -0.5z"/>
  <path d="M98.1 129.5 c-5.1 -2.9 -5.1 -2.9 -5.1 -0.9 0 1.2 -1.1 1.5 -5.8 1.3 -3.3 -0.1 -6.4 0.1 -7.1 0.5 -0.8 0.5 -1.4 0 -1.8 -1.3 l-0.5 -2.1 -3.5 2.1 -3.5 2.2 0.7 -2.4 c1.7 -5.3 1.7 -5.4 0.8 -4.2 -0.4 0.6 -2.1 1.5 -3.6 1.8 -2.8 0.7 -2.9 0.6 -2.5 -2.6 0.2 -2.3 -0.1 -3.3 -0.9 -3.2 -0.7 0.2 -1.3 -0.2 -1.3 -0.7 0 -0.5 0.8 -1 1.8 -1 1 0 2.3 -0.5 2.9 -1.1 0.8 -0.8 1.9 -0.5 4.2 1.2 5.7 4.2 22.7 3.8 28 -0.7 2.9 -2.4 3 -2.4 6 -0.7 3.3 1.9 4 3.8 1.6 4.7 -0.9 0.3 -1.5 1.9 -1.5 4.1 0 3.7 -0.8 4.3 -2.9 2.3 -1.1 -1.1 -1.3 -0.9 -0.8 1 0.7 2.8 0.2 2.8 -5.2 -0.3z m-6.1 -3.5 c0 -0.5 -2.2 -1 -5 -1 -2.7 0 -5 0.5 -5 1 0 0.6 2.3 1 5 1 2.8 0 5 -0.4 5 -1z m12.6 -1 c0.8 0 1.4 -0.7 1.4 -1.5 0 -1.1 -1.1 -1.5 -4 -1.5 -2.7 0 -4 0.4 -4 1.3 0 1.6 4.3 3.9 4.8 2.6 0.2 -0.5 1 -0.9 1.8 -0.9z"/>
  <path d="M74 118.2 c-1.4 -1.1 -2.1 -2.4 -1.7 -2.9 1.1 -1 29.7 -1.4 29.7 -0.4 0 0.4 -0.9 1.6 -2.1 2.7 -1.7 1.5 -4 1.9 -12.8 2.2 -9.5 0.4 -10.9 0.2 -13.1 -1.6z"/>
  <path d="M57.3 112.4 c-1.3 -1.4 -1.9 -3.1 -1.6 -4.4 0.5 -2 3.3 -2.9 3.3 -1 0 0.6 0.9 1 2 1 1.5 0 2 -0.7 2 -2.5 0 -2.2 0.4 -2.5 3.5 -2.5 4.3 0 4.4 1 0.5 3.3 -1.6 1 -3 2.7 -3 3.7 0 1.8 -2.5 5.1 -3.8 4.9 -0.4 -0.1 -1.7 -1.2 -2.9 -2.5z"/>
  <path d="M112.7 114.3 c-0.2 -0.5 -0.7 -2.1 -1.1 -3.8 -0.4 -1.6 -1.3 -3.3 -1.9 -3.7 -0.7 -0.4 0.2 -0.8 2.1 -0.8 1.9 0 3.2 0.5 3.2 1.3 0 0.6 0.3 2.2 0.6 3.5 0.5 1.8 0.3 2.1 -1 1.6 -1.2 -0.5 -1.5 -0.2 -1 1 0.6 1.6 -0.1 2.3 -0.9 0.9z"/>
  <path d="M82.5 113.1 c-2.2 -0.3 -3.5 -0.9 -3 -1.2 1.4 -1 14.2 -1.5 15 -0.7 0.6 0.6 -6.2 3 -7.5 2.7 -0.3 -0.1 -2.3 -0.5 -4.5 -0.8z"/>
  <path d="M85.8 108.8 c0.7 -0.7 1.2 -2.2 1.2 -3.4 0 -2.9 -4.3 -4 -9.7 -2.5 -5.3 1.5 -6.3 1.4 -6.3 -0.9 0 -1.3 0.7 -2 2 -2 1.1 0 2 -0.5 2 -1.1 0 -0.7 0.4 -0.8 1.3 -0.2 0.6 0.5 2.6 0.8 4.2 0.8 1.7 -0.1 3.6 0.2 4.2 0.8 0.7 0.5 2.5 0.6 4 0.1 1.6 -0.4 3.5 -0.9 4.3 -1 4.5 -0.8 5.4 -1.3 7 -3.4 1.4 -1.9 1.6 -2.9 0.7 -4.7 -0.5 -1.3 -1.4 -2.3 -1.9 -2.3 -1.2 0 -1 1.4 0.4 2.8 1.4 1.4 -1.2 4.7 -4.4 5.5 -2 0.6 -2 0.5 0.2 -1.8 2 -2.2 2.1 -2.5 0.6 -5.4 -1.2 -2.3 -1.6 -5.5 -1.4 -13 0.2 -5.4 0.6 -9.7 1.1 -9.4 0.4 0.2 0.7 1.7 0.7 3.3 0 1.5 0.7 3 1.5 3.4 0.8 0.3 1.5 1.2 1.5 2 0 0.8 1.1 2.8 2.5 4.5 1.9 2.2 2.4 3.6 1.9 5.5 -0.4 1.6 -0.2 2.6 0.5 2.6 1.2 0 1.4 4.1 0.5 7.7 -0.3 1.2 -1.6 2.4 -2.8 2.6 -1.7 0.3 -1.5 0.5 0.7 0.6 2 0.1 2.7 0.6 2.7 2.1 0 2.4 -0.9 2.4 -8 0.6 -3.6 -1 -6.1 -1.1 -7.2 -0.5 -2.1 1.1 -2.2 1.8 -0.8 5.3 0.9 2.4 0.7 2.6 -1.7 2.6 -2.1 0 -2.4 -0.3 -1.5 -1.2z"/>
  <path d="M116 104.5 c0 -3 0.3 -3.5 2.4 -3.5 2.7 0 5.6 -2.4 5.6 -4.6 0 -2 1.4 -1.7 3.5 0.6 1.5 1.7 1.6 2.4 0.7 4.5 -1.3 2.8 -2 3 -5.7 1.3 -3.2 -1.4 -3.8 -0.8 -2.6 2.6 1 2.4 0.8 2.6 -1.4 2.6 -2.2 0 -2.5 -0.4 -2.5 -3.5z"/>
  <path d="M47.8 102.6 c-2.3 -1.7 -2.3 -1.9 0.8 -6.8 2.7 -4.3 2.8 -4.2 -2.4 -2.1 -0.8 0.3 -1 0 -0.6 -1.1 0.4 -1 1.8 -1.6 3.8 -1.6 3 0 3.3 0.3 4.5 5.1 0.8 2.8 0.9 5.4 0.5 5.9 -1.8 1.6 -4.9 1.9 -6.6 0.6z"/>
  <path d="M27.3 97.8 c-1.7 -2.2 -2.5 -4.4 -0.9 -2.4 0.8 1 3.2 2.2 5.3 2.6 l3.8 0.8 -3.6 0.1 c-2 0 -4.1 -0.5 -4.6 -1.1z"/>
  <path d="M83.2 96.9 c-1.9 -1.3 -4.2 -1.9 -5.7 -1.7 -1.9 0.4 -2.5 0.1 -2.5 -1.3 0 -1 0.5 -2.1 1 -2.4 0.6 -0.3 1 -0.2 1 0.2 0 0.5 1.8 0.7 4 0.5 3.5 -0.4 4 -0.2 4 1.7 0 1.2 0.5 2.1 1 2.1 0.6 0 1 -0.4 1 -1 0 -0.5 0.6 -1 1.4 -1 1.7 0 3.3 -12.3 1.7 -12.8 -0.7 -0.2 -1.1 -3.4 -1.1 -7.8 0 -5.9 0.3 -7.4 1.5 -7.4 2 0 2.5 3 2.3 13.5 -0.1 5 0.1 10.1 0.5 11.5 0.5 1.7 0.2 3.1 -1.1 4.6 -2.8 3.3 -5.3 3.6 -9 1.3z"/>
  <path d="M145.3 98.1 c2.1 -0.4 4.5 -1.7 5.3 -2.7 1.5 -1.8 1.5 -1.7 0.1 0.6 -1.1 1.9 -2.3 2.5 -5.3 2.7 l-3.9 0.1 3.8 -0.7z"/>
  <path d="M130.3 96.2 c-1.5 -0.2 -2.3 -1 -2.3 -2.3 0 -2.5 2.6 -2.4 4 0.2 1.4 2.4 1.2 2.6 -1.7 2.1z"/>
  <path d="M28.6 92.9 c-0.9 -4.6 -0.7 -7.7 0.5 -8.4 1.7 -1.1 1.9 -0.1 0.7 3.2 -1 2.6 -0.9 3.5 0.5 5.7 1.4 2.1 1.5 2.6 0.3 2.6 -0.7 0 -1.6 -1.4 -2 -3.1z"/>
  <path d="M142 94.3 c0 -1.2 0.5 -2.5 1 -2.8 0.6 -0.3 0.8 -1.8 0.4 -3.3 -0.5 -2.6 -0.5 -2.6 1 -0.8 2 2.5 2 2.5 -0.4 6.1 -1.8 2.7 -2 2.8 -2 0.8z"/>
  <path d="M146.6 93.4 c1.5 -2.1 1.5 -3.1 0.6 -5.8 -1.6 -4.3 -1.5 -5.1 0.3 -3.6 2.4 2 1.5 12 -1.1 12 -1.2 0 -1.1 -0.5 0.2 -2.6z"/>
  <path d="M32.6 92.8 c-1.4 -2.1 -1.5 -3.1 -0.6 -4.7 1.4 -2.8 2.4 -2.7 1.7 0.1 -0.4 1.2 -0.1 2.8 0.4 3.5 0.6 0.7 0.9 1.8 0.7 2.5 -0.3 0.8 -1.1 0.2 -2.2 -1.4z"/>
  <path d="M70 91.5 c0 -3.2 0.2 -3.5 3 -3.5 3.3 0 3.8 1.1 1.5 3 -0.8 0.7 -1.5 1.9 -1.5 2.6 0 0.8 -0.7 1.4 -1.5 1.4 -1 0 -1.5 -1.1 -1.5 -3.5z"/>
  <path d="M25.1 90.3 c0 -0.7 -0.8 -1.3 -1.6 -1.3 -0.8 0 -1.5 -0.9 -1.5 -2 0 -1.1 0.6 -2 1.4 -2 0.7 0 1.6 -0.9 1.9 -2 0.3 -1.3 1.4 -2 2.8 -2 2.1 0 2.2 0.1 0.5 1.3 -1 0.8 -2.2 3.1 -2.6 5.3 -0.4 2.1 -0.8 3.3 -0.9 2.7z"/>
  <path d="M151.1 88.3 c-0.1 -1.9 -1 -4.2 -2.2 -5.4 -1.1 -1.1 -1.8 -2.3 -1.5 -2.6 1 -1 3.8 0.7 4.3 2.7 0.3 1.1 1.2 2 1.9 2 0.8 0 1.4 0.9 1.4 2 0 1.1 -0.6 2 -1.4 2 -0.8 0 -1.7 0.6 -1.9 1.3 -0.3 0.6 -0.6 -0.3 -0.6 -2z"/>
  <path d="M70 84.6 c0 -0.8 1.2 -1.7 2.6 -2 1.8 -0.5 3.1 -1.9 4.1 -4.6 2.1 -5.3 4.3 -6 4.3 -1.5 0 2.8 -0.4 3.5 -2 3.5 -1.6 0 -2 0.7 -2 3 0 2.8 -0.3 3 -3.5 3 -2.3 0 -3.5 -0.5 -3.5 -1.4z"/>
  <path d="M21.8 77.8 c-0.9 -5.2 1.5 -7.6 4.2 -4.3 1.1 1.3 1 1.8 -0.6 3.1 -1.8 1.5 -1.8 1.5 0.4 1.1 1.4 -0.4 2.2 0 2.2 0.9 0 0.9 -1.1 1.4 -2.9 1.4 -2.2 0 -3 -0.5 -3.3 -2.2z"/>
  <path d="M19.3 75.5 c0 -2.2 0.2 -3 0.4 -1.7 0.2 1.2 0.2 3 0 4 -0.3 0.9 -0.5 -0.1 -0.4 -2.3z"/>
  <path d="M148 78 c0 -0.6 1.1 -0.8 2.5 -0.4 1.5 0.4 2.5 0.2 2.5 -0.5 0 -0.6 -0.7 -1.1 -1.5 -1.1 -1.8 0 -1.9 -1.2 -0.3 -2.8 2.7 -2.7 5 -0.3 4 4.1 -0.3 1.2 -1.4 1.7 -3.8 1.7 -1.9 0 -3.4 -0.5 -3.4 -1z"/>
  <path d="M157.3 75.5 c0 -2.2 0.2 -3 0.4 -1.7 0.2 1.2 0.2 3 0 4 -0.3 0.9 -0.5 -0.1 -0.4 -2.3z"/>
  <path d="M24 70.4 l-3.5 -1.3 3.8 0 c2.6 -0.1 3.7 0.3 3.7 1.4 0 0.8 -0.1 1.4 -0.2 1.4 -0.2 -0.1 -1.9 -0.7 -3.8 -1.5z"/>
  <path d="M81 69.1 c0 -1 0.9 -2.1 2 -2.4 1.6 -0.4 2 0 2 1.9 0 1.7 -0.6 2.4 -2 2.4 -1.3 0 -2 -0.7 -2 -1.9z"/>
  <path d="M79.5 62.1 c-0.3 -0.6 -0.1 -1.1 0.4 -1.1 0.6 0 1.1 -0.7 1.1 -1.5 0 -1.7 0.2 -1.8 2.4 -0.9 1.7 0.7 2.2 3.4 0.7 3.4 -0.5 0 -1.6 0.3 -2.4 0.6 -0.8 0.3 -1.8 0.1 -2.2 -0.5z"/>
  <path d="M92.3 62.3 c-1.3 -0.2 -2.3 -1 -2.3 -1.6 0 -2.9 1.3 -5.7 2.6 -5.7 0.8 0 1.4 -0.7 1.4 -1.5 0 -1.2 1.3 -1.5 6 -1.5 4.1 0 6 0.4 6 1.3 0 1.6 -5 4 -5 2.4 -0.1 -0.7 -1 0.4 -2.1 2.3 -1.1 1.9 -1.7 2.6 -1.3 1.5 1.9 -5.7 1.8 -6.1 -0.9 -3.2 -3.1 3.2 -3.4 5.4 -0.9 6 2.2 0.6 -0.5 0.6 -3.5 0z"/>
  <path d="M130.5 60.4 c-1.2 -0.9 -4.7 -1.4 -9.4 -1.5 l-7.6 -0.1 6.3 -1.6 c4.9 -1.2 7 -1.3 9.3 -0.5 3.3 1.3 3.6 0.8 1.2 -1.9 -1.6 -1.8 -0.8 -2.3 2.1 -1.2 1 0.4 1.6 1.8 1.6 3.9 0 4.1 -0.9 4.8 -3.5 2.9z"/>
  <path d="M44 57.5 c0 -2.6 0.4 -3.5 1.6 -3.5 1.4 0 1.4 0.3 0.4 1.5 -1.1 1.3 -0.4 1.5 5.6 1.6 3.8 0 8.7 0.4 10.9 0.8 3.4 0.7 2.6 0.9 -4.7 1 -4.8 0 -9.8 0.5 -11.2 1.1 -2.5 0.9 -2.6 0.8 -2.6 -2.5z"/>
  <path d="M74.6 57.2 c-0.8 -2.4 -14.1 -5.6 -20.9 -5.1 -4.4 0.4 -4.7 0.3 -4.7 -2 0 -2.4 0.1 -2.4 7.8 -1.7 4.2 0.3 9.3 1.1 11.2 1.6 1.9 0.6 5.2 1 7.2 1 3.6 0 3.8 0.1 3.7 3.3 0 1.7 -0.3 2.6 -0.6 2 -0.8 -2.2 -3.5 -1.5 -2.8 0.7 0.3 1.1 0.4 2 0.1 2 -0.2 0 -0.7 -0.8 -1 -1.8z"/>
  <path d="M115 51 c0 -1.6 0.7 -2 3.5 -2 4 0 4.9 2.4 1.3 3.4 -3.8 1 -4.8 0.7 -4.8 -1.4z"/>
  <path d="M88 21.4 c0 -2.2 0.2 -2.5 1.5 -1.4 1.2 1 1.5 0.9 1.5 -0.7 0 -1.6 0.6 -1.8 4 -1.5 3.1 0.3 4 0.8 4 2.3 0 1.2 -0.7 1.9 -2 1.9 -1.1 0 -2 0.5 -2 1 0 0.6 -1.6 1 -3.5 1 -3.1 0 -3.5 -0.3 -3.5 -2.6z"/>
  <path d="M80 21 c0 -0.5 -1.1 -1 -2.5 -1 -1.8 0 -2.5 -0.5 -2.5 -2 0 -2.8 4 -2.6 8.5 0.3 4.4 2.8 4.4 3.7 0 3.7 -1.9 0 -3.5 -0.4 -3.5 -1z"/>
  <path d="M101 19.6 c0 -0.7 1 -1.6 2.3 -2 4.1 -1.1 5.7 -0.7 5.7 1.4 0 1.7 -0.7 2 -4 2 -2.7 0 -4 -0.4 -4 -1.4z"/>
  <path d="M59 18.6 c0 -0.7 1 -1.6 2.3 -2 4.1 -1.1 5.7 -0.7 5.7 1.4 0 1.7 -0.7 2 -4 2 -2.7 0 -4 -0.4 -4 -1.4z"/>
 </g>
 <g fill="#78c3eb">
  <path d="M0 90 l0 -90 14.3 0 14.2 0 0.2 4.1 c0.1 3.8 0 4 -2.3 3.5 -3 -0.8 -3 -0.8 0.1 3.4 l2.4 3.3 -3.3 3.8 c-4.8 5.2 -6.1 7.9 -4.1 7.9 1.2 0 0.9 1 -1.5 4.4 -3.6 5.4 -3.7 6 -0.5 5.2 3.1 -0.8 3.1 -0.7 0 5.4 -1.4 2.8 -2 5 -1.4 5 0.7 0 0.8 1.1 0.4 3 -0.4 1.9 -0.3 3 0.4 3 1 0 3.6 5.2 4.7 9.6 0.4 1.7 0 2.3 -2 2.8 -3.7 0.9 -5.6 5.4 -5.6 12.9 0 7.3 1.8 13.4 5.8 19.1 5.1 7.4 13.7 11.7 16.8 8.6 0.8 -0.8 2.7 1.8 6.5 8.6 3 5.3 7.1 11.5 9.2 13.9 5.2 6 4.4 7.5 -4.2 7.5 -9.1 0 -13.6 1.5 -18.7 6.2 -5.6 5.2 -6.4 8.2 -6.4 25.1 l0 13.7 -12.5 0 -12.5 0 0 -90z"/>
  <path d="M152.8 165.3 c-0.4 -17.9 -2 -22.6 -9.6 -27.4 -4.2 -2.7 -5.4 -2.9 -13.9 -2.9 -11 0 -12.4 -1.2 -7.6 -6.3 4.1 -4.4 6.4 -7.9 10.8 -16.7 4.7 -9.1 4.3 -8.6 5.7 -7.2 3.3 3.3 11.8 -0.9 17 -8.4 4 -5.7 5.8 -11.8 5.8 -19.1 0 -7.1 -1.8 -11.8 -5 -12.8 -2.4 -0.8 -2.4 -1 -0.1 -5.9 1.5 -3.1 1.6 -4.4 0.8 -5.8 -0.9 -1.3 -0.8 -2.1 0 -2.9 0.9 -0.9 0.9 -1.8 0.2 -3.1 -0.9 -1.6 -0.7 -2 1 -2.5 1.1 -0.3 1.7 -1.1 1.5 -1.8 -0.3 -0.7 0.4 -1.6 1.6 -2 1.9 -0.6 2 -0.9 0.7 -2.3 -0.9 -1 -2.7 -5.7 -4 -10.6 -2.1 -7.4 -3.2 -9.5 -6.7 -13.1 -4.1 -4.2 -4.2 -4.4 -2.6 -6.6 0.9 -1.3 1.6 -3.6 1.6 -5.1 l0 -2.8 15 0 15 0 0 90 0 90 -13.4 0 -13.4 0 -0.4 -14.7z"/>
  <path d="M31.4 145.9 c0.8 -1.1 2.5 -2.8 3.8 -3.6 1.5 -1.1 1.1 -0.4 -1.1 2 -3.9 4.1 -4.9 4.7 -2.7 1.6z"/>
  <path d="M27.3 97.8 c-3.8 -4 -6.3 -7.7 -6.3 -9.4 0 -0.4 1.4 1.4 3.1 3.9 1.7 2.6 4.5 5.8 6.2 7.2 1.8 1.4 2.7 2.5 2.2 2.5 -0.6 0 -2.9 -1.9 -5.2 -4.2z"/>
  <path d="M148.9 97.2 c2.7 -2.6 5.2 -5.8 5.6 -7.1 0.4 -1.2 0.9 -2 1.2 -1.8 1.2 1.3 -8.6 13.7 -10.9 13.7 -0.4 0 1.4 -2.2 4.1 -4.8z"/>
  <path d="M19 72.5 c0 -1.6 3 -5.5 4.2 -5.5 0.7 0 0.5 0.6 -0.4 1.3 -0.8 0.6 -2 2.1 -2.6 3.2 -0.6 1.1 -1.2 1.5 -1.2 1z"/>
  <path d="M157 72.2 c0 -0.7 -0.9 -2.1 -2 -3.2 -1.1 -1.1 -1.6 -2 -1 -2 1.3 0 4.4 4.9 3.6 5.7 -0.3 0.3 -0.6 0.1 -0.6 -0.5z"/>
 </g>
 <g fill="#c3bcba">
  <path d="M146 168.3 c-0.1 -7.7 -0.6 -13.2 -1.5 -15.8 -0.8 -2.2 -1.5 -5 -1.5 -6.1 0 -2.5 -2.7 -3.2 -14.7 -4.1 l-7.2 -0.5 -0.7 3.6 c-0.5 2.9 -1.1 3.6 -2.9 3.6 -2.3 0 -2.3 -0.1 -0.9 -4.5 0.7 -2.5 1.6 -5 1.9 -5.5 1 -1.6 17.2 -1.2 20.3 0.4 3.6 1.9 7.8 6.4 9.3 10.1 0.6 1.7 1.4 9.2 1.7 16.8 0.4 13.5 0.4 13.7 -1.7 13.7 -2 0 -2.1 -0.4 -2.1 -11.7z"/>
  <path d="M60.6 153.5 c-2.2 -6.8 -3.1 -8.5 -4.7 -8.5 -1.4 0 -1.9 -0.7 -1.9 -3 0 -1.9 0.5 -3 1.4 -3 0.9 0 2.7 3.9 5.1 11.1 2 6 3.5 11.2 3.3 11.4 -0.2 0.3 -1.6 -3.4 -3.2 -8z"/>
  <path d="M112.2 160 c0 -0.8 0.6 -3.1 1.3 -5 0.7 -1.9 1.3 -2.8 1.3 -2 0 0.8 -0.6 3.1 -1.3 5 -0.7 1.9 -1.3 2.8 -1.3 2z"/>
  <path d="M63.1 148.9 c-1.9 -5.7 -3.5 -10.8 -3.7 -11.4 -0.2 -0.5 0 -1.6 0.5 -2.4 0.7 -1.1 2.1 -0.4 6.7 3.1 3.3 2.5 7.6 5.1 9.7 5.7 2.4 0.8 4.3 2.3 5.2 4.2 1.4 2.7 1.4 2.9 -0.2 2.9 -1 0 -2.4 0.9 -3.1 2 -0.7 1.1 -1.7 2 -2.3 2 -0.6 0 0.1 -1.4 1.5 -3.1 2.4 -2.8 3.4 -5.9 2 -5.9 -0.3 0 -3.4 3 -6.8 6.6 l-6.1 6.6 -3.4 -10.3z m7.3 0.4 c0.7 -5.2 0.6 -5.3 -2 -5.3 -1.8 0 -2.5 0.4 -2.1 1.4 0.3 0.8 1.1 3.2 1.8 5.5 0.7 2.3 1.3 4 1.4 3.9 0.1 -0.2 0.5 -2.7 0.9 -5.5z"/>
  <path d="M97.5 153.9 c-2.6 -2.7 -4.5 -5.3 -4.1 -5.6 0.3 -0.4 0.7 -0.4 0.9 -0.2 0.1 0.2 2.4 2.8 5.2 5.7 2.7 2.8 4.5 5.2 3.9 5.2 -0.6 0 -3.2 -2.3 -5.9 -5.1z"/>
  <path d="M101.8 152 c-3.4 -3.2 -6.5 -5.7 -7 -5.4 -0.4 0.3 -0.8 0 -0.8 -0.5 0 -0.6 1.8 -1.4 4.1 -1.7 2.5 -0.4 6.5 -2.5 10.7 -5.5 3.7 -2.7 6.9 -4.4 7.1 -3.8 0.5 1.5 -6.1 22.9 -7.1 22.9 -0.5 0 -3.6 -2.7 -7 -6z m7.3 -4 c0.5 0 0.9 -1.5 0.8 -3.2 0 -2.9 -0.1 -3 -0.9 -1.1 -0.5 1.2 -1.8 2.4 -3 2.8 -2.1 0.7 -2.1 0.7 -0.3 2.7 1.5 1.7 1.8 1.8 2.1 0.4 0.2 -0.9 0.8 -1.6 1.3 -1.6z"/>
  <path d="M28 154.3 c0 -3.9 4.3 -10.4 8.4 -12.8 5.2 -3 7.6 -3.2 7.6 -0.5 0 1.3 -0.7 2 -2 2 -1.1 0 -2 0.5 -2 1 0 0.6 -0.4 1 -1 1 -1.7 0 -4.7 3.7 -6.1 7.4 -1.4 3.8 -4.9 5.1 -4.9 1.9z"/>
  <path d="M58 112 c0 -0.5 -0.6 -1 -1.4 -1 -0.9 0 -1.2 -0.7 -0.9 -2 0.8 -3.2 3.3 -2.4 3.3 1 0 1.7 -0.2 3 -0.5 3 -0.3 0 -0.5 -0.4 -0.5 -1z"/>
  <path d="M33 102.3 c-3.5 -1.3 -10.1 -9 -12 -14.1 -2.6 -6.9 -2.7 -16.1 -0.2 -19.2 1.7 -2.1 2.1 -2.2 4.7 -0.9 3.8 1.9 6.2 5.5 6.9 10.4 0.5 3.8 0.5 3.9 -0.6 1 -2.6 -7.2 -8.7 -11.8 -10.9 -8.4 -1.2 1.9 -1.1 8.6 0.1 9.4 0.6 0.4 1 -1.2 1 -3.9 0 -2.5 0.4 -4.6 0.8 -4.6 1.6 0 4.7 2.8 3.9 3.6 -0.4 0.4 -0.7 0.2 -0.7 -0.4 0 -0.7 -0.6 -1.2 -1.3 -1.2 -1 0 -1.3 1.6 -1.3 5.8 0.1 3.1 0.4 5.9 0.7 6.2 0.4 0.3 0.9 1.6 1.3 3 0.3 1.4 0.3 1.9 0 1.3 -0.3 -0.7 -1.2 -1.3 -2 -1.3 -1.1 0 -0.8 1.1 1.3 4 2.9 4.1 5.8 5.6 9.3 4.7 1.3 -0.3 2.4 0.1 3.1 1.4 1.7 3.2 -0.2 4.6 -4.1 3.2z"/>
  <path d="M139.6 102.1 c-1.2 -1.9 1.2 -5 3.4 -4.4 3.5 0.9 6.4 -0.6 9.3 -4.7 2.1 -2.9 2.4 -4 1.3 -4 -0.8 0 -1.7 0.6 -2 1.3 -0.3 0.6 -0.3 0.1 0 -1.3 0.4 -1.4 1.1 -2.6 1.5 -2.8 0.5 -0.2 0.9 -3.1 0.9 -6.4 0 -5.6 -0.1 -6 -2.1 -5.5 -1.6 0.4 -1.8 0.3 -0.8 -0.9 2.3 -2.8 3.9 -1.6 3.9 3.1 0 2.5 0.5 4.5 1 4.5 1.2 0 1.3 -8 0.1 -9.9 -1.3 -2 -5.6 -0.6 -7.9 2.7 -1.1 1.5 -2.5 4.4 -3.2 6.5 -1.7 5.3 -2.3 4 -1 -1.9 1.2 -5.3 6.1 -11.4 9.1 -11.4 5 0 6.5 11.6 2.9 21.2 -3.1 8.4 -14.1 17.7 -16.4 13.9z"/>
  <path d="M125 95.5 c0 -1.9 0.5 -3.5 1 -3.5 0.6 0 1 -1.3 1 -3 0 -1.6 -0.4 -3 -1 -3 -1.9 0 -1 -2.5 1.2 -3.5 1.2 -0.6 2.9 -2.3 3.8 -4 0.8 -1.6 1.8 -3.1 2.3 -3.3 0.4 -0.2 0.7 -1.5 0.7 -2.8 0 -1.4 0.6 -2.4 1.4 -2.4 2.6 0 2.6 1.6 0.1 8.1 -3 7.5 -3.1 9 -0.7 8.3 0.9 -0.4 0.2 0.3 -1.6 1.5 -2.8 1.8 -3.1 2.4 -2.2 4.1 1.5 2.8 0.3 4.3 -2.8 3.5 -2.1 -0.5 -2.3 -0.4 -1.4 0.8 0.7 0.8 0.9 1.7 0.5 2 -1.5 1.5 -2.3 0.5 -2.3 -2.8z"/>
  <path d="M33.1 93.4 c-2.5 -3.1 -2.5 -3.5 -0.8 -5.9 1.7 -2.2 2.2 -1.4 3.2 4.3 0.8 4.9 0.4 5.2 -2.4 1.6z"/>
  <path d="M140.7 92.8 c0.3 -1.8 0.9 -4.4 1.3 -5.8 l0.6 -2.5 1.8 2.7 c1.7 2.6 1.7 2.8 0 5.8 -2.5 4.1 -4.5 4 -3.7 -0.2z"/>
  <path d="M44.7 90.6 c0.4 -2.5 -0.3 -5.6 -2.6 -11.1 -3.5 -8.8 -3.7 -9.5 -1.6 -9.5 0.9 0 1.5 0.9 1.5 2.5 0 1.4 0.4 2.5 1 2.5 0.5 0 1.6 1.6 2.5 3.6 0.8 2 2.4 3.8 3.5 4.1 1.9 0.5 2.9 3.3 1.1 3.3 -1.4 0 -2 3.8 -0.7 4.4 0.7 0.3 0.4 1 -0.8 2 -3.3 2.6 -4.5 2 -3.9 -1.8z"/>
  <path d="M76.9 90.7 c0.6 -0.8 0.8 -1.7 0.4 -2 -0.3 -0.4 -1.2 0.1 -1.9 1.1 -1.2 1.5 -1.3 1.4 -1.4 -1.5 0 -3.1 0.2 -3.3 3.5 -3.3 3.3 0 3.5 0.2 3.5 3.5 0 3.1 -0.3 3.5 -2.6 3.5 -2.1 0 -2.4 -0.3 -1.5 -1.3z"/>
  <path d="M27.8 79.5 c-0.6 -2.8 0.6 -3.4 1.6 -0.9 0.8 2.2 0.7 3.4 -0.3 3.4 -0.5 0 -1.1 -1.1 -1.3 -2.5z"/>
  <path d="M78 75.6 c0 -0.8 0.7 -1.6 1.5 -2 0.8 -0.3 1.5 -1.2 1.5 -2.1 0 -0.8 0.7 -1.5 1.5 -1.5 1 0 1.5 1.1 1.5 3.5 0 3.2 -0.2 3.5 -3 3.5 -1.9 0 -3 -0.5 -3 -1.4z"/>
  <path d="M47.2 68.8 c0.3 -3.6 0.7 -4.4 2.7 -4.6 1.5 -0.2 2.1 0 1.7 0.7 -0.5 0.8 0.1 0.8 1.9 0.1 4.5 -1.7 5.2 -1 1.1 1.1 -2.7 1.5 -3.5 2.4 -2.8 3.1 0.8 0.8 1.5 0.8 2.4 0.1 2.5 -1.9 4.8 -2.3 4.8 -0.8 0 0.9 -1 1.5 -2.6 1.5 -1.4 0 -2.3 0.4 -2 0.9 0.5 0.7 -3.8 2.1 -6.6 2.1 -0.5 0 -0.8 -1.9 -0.6 -4.2z"/>
  <path d="M101 72.1 c0 -0.9 5.2 -5.1 6.3 -5.1 0.3 0 0.5 0.9 0.4 2 -0.1 1.1 -0.7 2 -1.5 2 -0.7 0 -1 0.5 -0.7 1 0.4 0.6 -0.5 1 -1.9 1 -1.4 0 -2.6 -0.4 -2.6 -0.9z"/>
  <path d="M116.6 69.4 c-0.3 -0.8 0.1 -1.4 0.9 -1.4 2 0 2.8 1.7 1.1 2.3 -0.8 0.3 -1.7 -0.1 -2 -0.9z"/>
  <path d="M68 69 c0 -0.5 -0.9 -1 -2 -1 -1.1 0 -2 -0.5 -2 -1 0 -0.6 1.1 -0.8 2.6 -0.4 1.8 0.5 2.5 0.3 2.1 -0.3 -0.8 -1.3 1.5 -2.3 4.9 -2.3 1.8 0 2.4 0.5 2.4 2.1 0 1.9 -0.4 2.1 -3.5 1.6 -3.3 -0.5 -4.9 0.6 -2.2 1.6 0.7 0.3 0.5 0.6 -0.5 0.6 -1 0.1 -1.8 -0.3 -1.8 -0.9z"/>
  <path d="M101 67.1 c0 -3.2 1.9 -4.1 4.8 -2.2 1.1 0.6 0.6 1.4 -1.7 3 l-3.1 2.2 0 -3z"/>
  <path d="M121.4 67.1 c-1.7 -1 -4 -2.1 -5 -2.4 -1.8 -0.4 -1.8 -0.5 0.1 -0.5 1.1 -0.1 3.1 0.5 4.5 1.3 3.3 1.9 5 1.8 2.6 0 -1.9 -1.4 -1.8 -1.5 1.6 -1.5 3.4 0 4.8 1.2 4.8 4.1 0 1.6 -5.4 1 -8.6 -1z"/>
  <path d="M38.5 66 c-1 -1.7 -0.8 -7.5 0.4 -9.8 1.5 -2.7 3.1 -2.9 3.1 -0.2 0 1.6 0.7 2 3 2 1.7 0 3 0.5 3 1 0 0.6 -0.6 1 -1.4 1 -0.7 0 -2.1 1.6 -3 3.5 -1.6 3.4 -3.9 4.5 -5.1 2.5z"/>
  <path d="M134 65.1 c0 -1.1 -1.1 -2.9 -2.5 -4 -2.4 -1.8 -2.5 -2 -0.8 -3 1.7 -1 1.5 -1.3 -1.4 -4.1 -1.8 -1.6 -3.3 -3.2 -3.3 -3.5 0 -0.3 1.4 -0.5 3 -0.5 2.9 0 3.1 -0.2 2.6 -3.2 -1.5 -9.8 -2.8 -24.9 -2.3 -25.5 0.9 -0.8 3.7 1.6 3.7 3.3 0 0.7 -0.7 1.9 -1.5 2.8 -1.4 1.3 -1.3 1.6 0.6 2.9 1.7 1.3 1.9 1.9 0.9 3.6 -0.9 1.8 -0.7 2.6 1 4.9 1.2 1.5 1.7 2.8 1.1 3 -0.7 0.2 -0.5 1.4 0.5 3.4 1.4 2.7 1.4 3.2 -0.1 5.4 -1.4 2.2 -1.4 3 0 8.3 1.9 7.3 1.9 8.1 0 8.1 -0.8 0 -1.5 -0.9 -1.5 -1.9z"/>
  <path d="M39.5 48.3 c0.4 -1 0.7 -2.6 0.7 -3.5 0 -1.1 0.7 -1.8 1.9 -1.8 1.5 0 1.9 0.7 1.9 3.5 0 3.1 -0.3 3.5 -2.6 3.5 -2.1 0 -2.5 -0.3 -1.9 -1.7z"/>
  <path d="M41.6 38.1 c-0.3 -0.5 0.4 -2 1.5 -3.5 1.2 -1.5 1.6 -2.6 0.9 -2.6 -1 0 -0.9 -0.4 0 -1.5 0.7 -0.8 1 -2.4 0.7 -3.4 -0.5 -2.2 1.6 -4.5 5.2 -5.6 1.4 -0.4 3.8 -1.6 5.5 -2.6 4 -2.4 6.6 -2.4 6.6 -0.1 0 2.2 -3.9 4.2 -8 4.2 -2 0 -3 0.5 -3 1.5 0 0.8 -0.4 1.5 -1 1.5 -0.5 0 -1 1.6 -1 3.5 0 2.2 -0.6 3.8 -1.5 4.1 -0.8 0.4 -1.5 1.7 -1.5 3 0 1.7 -0.6 2.4 -1.9 2.4 -1.1 0 -2.2 -0.4 -2.5 -0.9z"/>
  <path d="M119.8 21.3 c-2 -0.5 -2.5 -4.3 -0.7 -4.3 2.9 0 8.9 2.5 8.9 3.7 0 1.3 -4.4 1.6 -8.2 0.6z"/>
  <path d="M150 13.1 c0 -1.3 2.9 -3.5 3.7 -2.8 0.7 0.8 -1.5 3.7 -2.8 3.7 -0.5 0 -0.9 -0.4 -0.9 -0.9z"/>
  <path d="M147 10.6 c0 -1.2 4.3 -7.6 5.1 -7.6 1.5 0 1 2 -1.2 5.1 -1.8 2.5 -3.9 3.8 -3.9 2.5z"/>
 </g>
 <g fill="#afc2c9">
  <path d="M2.2 178.8 c0.3 -0.7 1.5 -1.5 2.8 -1.6 2.1 -0.3 2.2 -0.2 1.1 1.2 -1.6 1.9 -4.4 2.1 -3.9 0.4z"/>
  <path d="M32 164.9 c0 -21.1 1 -22.9 12.8 -22.9 3.9 0 5.2 -0.4 5.2 -1.5 0 -1 1 -1.5 3.4 -1.5 l3.3 0 4.3 12.5 c2.3 6.9 4.5 12.5 4.9 12.5 0.4 0 3.8 -3.6 7.6 -8 3.9 -4.3 7.3 -7.9 7.6 -8 0.3 0 1.3 1.6 2.2 3.6 1.4 2.9 1.5 3.9 0.5 5.1 -1 1.2 -0.8 1.8 1.1 3.2 l2.2 1.7 -2 1.8 c-1.8 1.7 -1.9 2.1 -0.6 3.9 1.8 2.5 1.9 5.3 0.4 9.6 l-1.1 3.1 -25.9 0 -25.9 0 0 -15.1z m52 -3.9 c0 -0.5 -0.6 -1 -1.4 -1 -0.7 0 -2.8 -0.3 -4.5 -0.6 -1.9 -0.4 -3.1 -0.2 -3.1 0.4 0 0.6 1.7 1.3 3.8 1.5 2 0.2 4 0.4 4.5 0.5 0.4 0.1 0.7 -0.2 0.7 -0.8z"/>
  <path d="M88.3 175.4 c0.8 -3.2 0.8 -5.4 0 -7.4 -0.9 -2.4 -0.8 -3.2 0.8 -4.6 1.7 -1.6 1.8 -1.9 0.4 -3.4 -1.5 -1.7 -1.3 -2.5 3.9 -11.7 0.1 -0.1 4 3.4 8.6 7.9 l8.4 8.1 4.1 -12.4 4 -12.4 3.8 -0.3 c2.8 -0.2 3.7 0 3.7 1.2 0 1.3 1.2 1.6 5.9 1.6 4.8 0 6.5 0.5 8.7 2.3 l2.7 2.4 0.5 16.6 0.5 16.7 -28.5 0 -28.5 0 1 -4.6z m14.2 -14.7 c0.7 -0.6 -0.3 -0.8 -3 -0.3 -2.2 0.3 -4.6 0.6 -5.2 0.6 -0.7 0 -1.3 0.5 -1.3 1 0 1.3 8.1 0.2 9.5 -1.3z m-5 -3.8 c1.1 -1.1 0 -1.1 -4.4 -0.3 -1.7 0.4 -3.1 1.1 -3.1 1.6 0 1.1 6 0.1 7.5 -1.3z"/>
  <path d="M155 175.9 c-2.4 -3.3 -1.9 -5.4 0.5 -2.3 2.7 3.3 3.6 5.4 2.6 5.4 -0.5 0 -1.9 -1.4 -3.1 -3.1z"/>
  <path d="M158.2 173.4 c-5.2 -6.7 -6.7 -10 -3.4 -7 1.2 1.1 2.2 2.3 2.2 2.8 0 0.5 1.6 2.2 3.5 3.9 3.2 2.8 4.6 5.9 2.8 5.9 -0.5 0 -2.7 -2.5 -5.1 -5.6z"/>
  <path d="M1 172.7 c0 -1.2 5.1 -5.7 6.5 -5.7 1.6 0 0.1 2.9 -2.5 4.8 -3.4 2.6 -4 2.7 -4 0.9z"/>
  <path d="M10 166.1 c0 -1.4 6 -5.5 6.8 -4.7 0.3 0.4 -0.7 1.8 -2.3 3.1 -3.2 2.6 -4.5 3.1 -4.5 1.6z"/>
  <path d="M173.7 162.2 c-6.5 -6.6 -5.9 -8.4 0.8 -2.7 3 2.6 5.5 5.4 5.5 6.1 0 2.3 -1.4 1.6 -6.3 -3.4z"/>
  <path d="M21 163.8 c0 -1.8 2.7 -4.4 3.7 -3.4 0.4 0.4 -0.3 1.6 -1.5 2.9 -1.8 1.7 -2.2 1.8 -2.2 0.5z"/>
  <path d="M170 163.4 c0 -1.4 0.3 -1.4 1.5 -0.4 0.8 0.7 1.5 1.4 1.5 1.6 0 0.2 -0.7 0.4 -1.5 0.4 -0.8 0 -1.5 -0.7 -1.5 -1.6z"/>
  <path d="M18.2 160 c0.2 -0.6 1.9 -2.1 3.8 -3.2 l3.5 -2.2 -2 2.3 c-2.4 2.8 -5.9 4.8 -5.3 3.1z"/>
  <path d="M163 157.5 c-1.9 -1.9 -2.9 -3.5 -2.4 -3.5 1.3 0 6.9 5.8 6.3 6.5 -0.3 0.2 -2.1 -1.1 -3.9 -3z"/>
  <path d="M0 157.8 c0 -0.8 1.6 -2.2 3.6 -3.1 4.4 -2.1 4.1 -0.4 -0.4 2.4 -2.5 1.6 -3.2 1.8 -3.2 0.7z"/>
  <path d="M66 157.7 c0 -0.8 12.2 -12.7 13 -12.7 0.5 0 1.2 0.4 1.5 1 0.3 0.5 0 0.7 -0.8 0.4 -0.9 -0.3 -3.4 1.8 -6.7 5.5 -4.3 5.1 -7 7.3 -7 5.8z"/>
  <path d="M102.4 151.9 c-3.2 -3.3 -6.5 -5.7 -7.2 -5.4 -0.7 0.2 -1 0 -0.7 -0.5 1.1 -1.8 2.3 -1.1 8.1 5 4.1 4.3 6 5.7 6.6 4.8 0.5 -0.9 0.8 -1 0.8 -0.1 0 2.8 -2 1.8 -7.6 -3.8z"/>
  <path d="M13 150.2 c0 -0.5 1.6 -1.6 3.6 -2.5 1.9 -1 3.3 -1.3 2.9 -0.7 -0.9 1.4 -6.5 4.2 -6.5 3.2z"/>
  <path d="M6.2 144.9 c0.2 -0.5 1.8 -1.9 3.6 -3 2.4 -1.6 3.2 -1.8 3.2 -0.7 0 0.7 -1.3 2.1 -2.9 3.1 -3.3 2 -4.4 2.1 -3.9 0.6z"/>
  <path d="M0 139.6 c0 -0.7 1.1 -1.8 2.5 -2.4 3.3 -1.5 3.5 -1.5 3.5 0.2 0 0.8 -1.3 1.9 -3 2.5 -2.3 0.8 -3 0.7 -3 -0.3z"/>
  <path d="M9 135.6 c0 -0.8 1.4 -1.9 3.1 -2.5 3.8 -1.3 3.9 -1.3 3.9 -0.3 0 0.5 -1.6 1.6 -3.5 2.5 -2.8 1.4 -3.5 1.4 -3.5 0.3z"/>
  <path d="M26 128.1 c0 -1 5.8 -3.6 6.5 -2.9 0.3 0.2 -1.1 1.2 -3 2.1 -1.9 0.9 -3.5 1.3 -3.5 0.8z"/>
  <path d="M0 119.1 c0 -0.5 1.1 -1.2 2.4 -1.5 1.3 -0.3 3.1 -0.9 4 -1.2 0.9 -0.3 1.6 -0.2 1.6 0.4 0 0.6 -1.4 1.5 -3.1 2.1 -3.9 1.3 -4.9 1.4 -4.9 0.2z"/>
  <path d="M0 116.1 c0 -1.1 2.5 -2.1 5.3 -2.1 1.2 0 1.7 0.4 1.2 0.9 -1.5 1.3 -6.5 2.3 -6.5 1.2z"/>
  <path d="M173 91 c0 -0.5 1.6 -1 3.5 -1 1.9 0 3.5 0.5 3.5 1 0 0.6 -1.6 1 -3.5 1 -1.9 0 -3.5 -0.4 -3.5 -1z"/>
  <path d="M161.6 77.1 c0.5 -0.4 4.1 -1.6 7.9 -2.5 3.9 -0.9 7.8 -1.9 8.8 -2.2 0.9 -0.3 1.7 -0.1 1.7 0.4 0 0.5 -1.2 1.2 -2.7 1.5 -1.6 0.3 -5.5 1.2 -8.8 2.1 -7 1.8 -8.3 1.9 -6.9 0.7z"/>
  <path d="M161 75.1 c0 -0.4 3.7 -1.9 8.3 -3.5 4.5 -1.5 8.8 -3 9.5 -3.3 0.6 -0.2 1.2 0 1.2 0.6 0 1.3 -1.9 2.1 -11.7 4.9 -4 1.1 -7.3 1.7 -7.3 1.3z"/>
  <path d="M10 71.8 c-5.9 -1.2 -7.4 -1.7 -6.7 -2.4 0.8 -0.8 12.7 1.7 12.7 2.7 0 1 0.1 1 -6 -0.3z"/>
  <path d="M155 60.1 c0 -1.1 3.1 -2.4 3.9 -1.6 0.3 0.3 -0.1 1 -0.9 1.5 -1.9 1.2 -3 1.2 -3 0.1z"/>
  <path d="M168 54.6 c0 -0.7 1.8 -2 4 -2.9 3.1 -1.2 4 -1.2 4 -0.3 0 0.7 -1.8 2 -4 2.9 -3.1 1.2 -4 1.2 -4 0.3z"/>
  <path d="M157.8 52.8 c1.6 -1.6 21.6 -13.6 22.1 -13.2 1.4 1.2 -2.1 3.9 -11.3 8.8 -10.5 5.6 -13 6.6 -10.8 4.4z"/>
  <path d="M166.9 38.1 c4.8 -3.7 13.1 -8 13.1 -6.8 0 0.7 -3.1 2.9 -6.9 5 -7.4 4 -10.1 4.8 -6.2 1.8z"/>
  <path d="M4.2 35.9 c-2.4 -1.7 -4.1 -3.3 -3.9 -3.6 0.7 -0.6 8.7 4.7 8.7 5.8 0 1.2 0.1 1.2 -4.8 -2.2z"/>
  <path d="M13.7 29.4 c-2.1 -1.9 -3.7 -4 -3.5 -4.5 0.2 -0.5 2.3 1.1 4.8 3.6 5.2 5.3 4.2 6 -1.3 0.9z"/>
  <path d="M160.8 27.9 c1.9 -1.7 3.7 -2.8 4 -2.4 0.7 0.7 -4.8 5.4 -6.3 5.4 -0.5 0 0.5 -1.3 2.3 -3z"/>
  <path d="M157 26.1 c0 -1.1 5.8 -6.1 7.1 -6.1 1.8 0 0.9 1.5 -2.5 4.3 -3.7 2.9 -4.6 3.2 -4.6 1.8z"/>
  <path d="M169 16.2 c0 -2.1 3.4 -5.2 5.7 -5.2 2.1 0 1.4 1.3 -2.3 4.3 -3.2 2.7 -3.4 2.8 -3.4 0.9z"/>
  <path d="M24.8 13.5 c-1 -1.3 -1.8 -3.1 -1.8 -3.9 0 -0.9 -0.4 -1.6 -1 -1.6 -0.5 0 -1 -0.7 -1 -1.6 0 -1 1.6 0.4 3.7 3.2 2.1 2.7 3.7 5.1 3.6 5.4 -0.4 1.3 -2 0.7 -3.5 -1.5z"/>
  <path d="M24.4 5.3 c-3.4 -4.6 -3.6 -5.3 -2 -5.3 1.3 0 5.6 5.7 5.6 7.4 0 1.4 -1.8 0.4 -3.6 -2.1z"/>
 </g>
 <g fill="#99d2f0">
  <path d="M3 177.1 c1.9 -1.5 7.4 -6.1 12.3 -10 4.8 -4 8.7 -6.6 8.7 -5.8 0 1.4 -12.8 13.5 -18 17 -1.3 0.9 -3.3 1.7 -4.5 1.7 -1.6 0 -1.4 -0.5 1.5 -2.9z"/>
  <path d="M156.2 178 c-2.4 -3.9 -0.3 -4.4 2.2 -0.5 1.2 1.8 1.3 2.5 0.4 2.5 -0.7 0 -1.9 -0.9 -2.6 -2z"/>
  <path d="M162.2 178.8 c-0.7 -0.7 -1.2 -1.5 -1.2 -1.9 0 -0.5 -1.6 -2.5 -3.5 -4.6 -2.9 -3.2 -4.5 -6.3 -3.1 -6.3 0.1 0 3.1 3.2 6.5 7 4.7 5.3 5.8 7 4.4 7 -1.1 0 -2.4 -0.5 -3.1 -1.2z"/>
  <path d="M0.2 173.4 c0.1 -0.9 1.2 -2.2 2.3 -2.8 1.1 -0.6 2.4 -1.6 3 -2.2 2.1 -2.2 14.4 -10.4 15.6 -10.4 1.3 0 -4.9 5.9 -6.3 6 -0.4 0 -2.4 1.6 -4.5 3.5 -2.1 1.9 -4.4 3.5 -5 3.5 -0.7 0 -1.3 0.4 -1.3 1 0 0.5 -0.9 1.4 -2.1 2 -1.8 1 -2 0.9 -1.7 -0.6z"/>
  <path d="M171.8 166.9 c-4 -4.5 -8.8 -9.6 -10.7 -11.3 -1.8 -1.7 -5.2 -5.3 -7.5 -8.1 -2.2 -2.7 2.8 1.5 11.2 9.5 8.4 8 15.2 15.3 15.2 16.2 0 1 -0.2 1.8 -0.4 1.8 -0.3 0 -3.8 -3.7 -7.8 -8.1z"/>
  <path d="M175.8 164.3 c-2.1 -2.1 -9.8 -9.4 -17.1 -16.3 -7.4 -6.9 -13.3 -12.7 -13.1 -12.9 0.4 -0.5 26.4 22 26.4 22.9 0 0.4 1.1 1.2 2.4 1.8 2.8 1.2 6 5.6 5.4 7.2 -0.2 0.6 -2 -0.6 -4 -2.7z"/>
  <path d="M0 157.7 c0 -0.7 3.6 -3.1 8 -5.4 4.4 -2.4 8 -4 8 -3.5 0 0.9 -10.4 7.2 -11.9 7.2 -0.6 0 -1.1 0.4 -1.1 0.9 0 0.5 -0.7 1.1 -1.5 1.5 -0.8 0.3 -1.5 0 -1.5 -0.7z"/>
  <path d="M168.6 144.5 c-5.9 -4.7 -10.5 -8.5 -10.1 -8.5 1.2 0 21.5 15.3 21.5 16.2 0 0.4 -0.1 0.8 -0.2 0.8 -0.2 0 -5.2 -3.8 -11.2 -8.5z"/>
  <path d="M0 148.5 c0 -0.8 2 -2.5 4.8 -3.8 2.6 -1.2 4.9 -2.5 5.2 -2.8 0.3 -0.3 4.5 -2.7 9.5 -5.3 5 -2.7 11.4 -6.2 14.3 -7.8 2.8 -1.6 5.2 -2.7 5.2 -2.4 0 0.3 -32.7 20.3 -38.2 23.3 -0.5 0.2 -0.8 -0.3 -0.8 -1.2z"/>
  <path d="M17 148.2 c0 -0.4 2.3 -2 5 -3.5 6.5 -3.6 6.5 -2.8 0 1.2 -2.7 1.7 -5 2.7 -5 2.3z"/>
  <path d="M0 139.7 c0 -1.2 8.1 -5.5 11.5 -6.1 0.5 -0.1 1.9 -0.7 3 -1.3 4.1 -2.2 14.5 -6.1 14.5 -5.4 0 0.6 -24.6 12.6 -26 12.6 -0.3 0 -1.1 0.4 -1.7 0.8 -0.8 0.5 -1.3 0.3 -1.3 -0.6z"/>
  <path d="M30 126.2 c0 -0.4 2.4 -1.6 5.3 -2.7 7.3 -2.7 7.6 -2.8 4.3 -0.9 -4.6 2.6 -9.6 4.5 -9.6 3.6z"/>
  <path d="M2.2 118.9 c0.2 -0.7 2.9 -2.1 5.9 -3.1 3.4 -1.1 4.1 -1.6 1.9 -1.2 -1.9 0.3 -4.2 0.7 -5 0.8 -0.9 0.1 -2.1 0.6 -2.8 1 -1.4 0.9 -3 0 -1.9 -1 1.5 -1.6 28.7 -6.1 28.7 -4.8 0 0.3 -21.6 7.5 -23.3 7.8 -0.7 0.1 -1.8 0.5 -2.6 1 -0.9 0.6 -1.2 0.5 -0.9 -0.5z m16.3 -5.9 c1.3 -0.5 1.4 -0.9 0.5 -0.9 -0.8 0 -2.4 0.4 -3.5 0.9 -1.3 0.5 -1.4 0.9 -0.5 0.9 0.8 0 2.4 -0.4 3.5 -0.9z"/>
  <path d="M165.3 116.2 c-6.2 -1.4 -11.1 -2.7 -10.9 -2.9 0.7 -0.7 25.6 4.1 25.6 4.9 0 1.2 -2.4 0.9 -14.7 -2z"/>
  <path d="M177.5 115.5 c-0.5 -0.2 -7.6 -1.3 -15.8 -2.6 -8.1 -1.2 -14.6 -2.4 -14.4 -2.6 0.4 -0.4 26.6 2.4 30.5 3.2 1.2 0.3 2.2 1 2.2 1.5 0 1 -0.7 1.1 -2.5 0.5z"/>
  <path d="M159.5 97 c-3.7 -0.5 -1.6 -0.7 7.8 -0.8 7.9 -0.1 12.7 0.2 12.7 0.8 0 1.1 -12.4 1.1 -20.5 0z"/>
  <path d="M159 92.2 c2.1 -1.4 21 -2.4 21 -1.2 0 0.6 -2.2 1 -4.9 1 -2.6 0 -7.7 0.3 -11.2 0.6 -4.3 0.3 -5.9 0.2 -4.9 -0.4z"/>
  <path d="M0 86 c0 -1.1 4 -1.1 12 0 5.3 0.7 5.2 0.7 -3.2 0.9 -5.3 0 -8.8 -0.3 -8.8 -0.9z"/>
  <path d="M2.5 83 c-2.9 -0.7 -2.8 -0.8 1 -0.8 2.2 0 6 0.3 8.5 0.7 l4.5 0.8 -5.5 0.1 c-3 0 -6.8 -0.4 -8.5 -0.8z"/>
  <path d="M166 76.3 c0 -0.6 2.6 -1.6 5.8 -2.3 3.1 -0.7 6.3 -1.5 7 -1.7 0.6 -0.3 1.2 0 1.2 0.5 0 1.2 -2 2 -7 2.6 -1.9 0.2 -4.3 0.7 -5.2 1.1 -1 0.4 -1.8 0.3 -1.8 -0.2z"/>
  <path d="M163.4 74.3 c0.4 -0.5 1.2 -0.9 1.7 -0.9 0.5 -0.1 1.1 -0.3 1.4 -0.4 0.3 -0.1 1 -0.4 1.5 -0.5 0.6 -0.1 1.2 -0.4 1.5 -0.5 0.3 -0.1 0.8 -0.3 1.3 -0.4 0.4 -0.1 2.4 -1 4.6 -1.9 2.1 -0.9 4.1 -1.7 4.3 -1.7 0.9 0 -0.4 2.5 -1.3 2.6 -0.5 0 -1.6 0.4 -2.4 0.7 -2.2 1 -11.3 3.7 -12.4 3.7 -0.5 0 -0.6 -0.3 -0.2 -0.7z"/>
  <path d="M8.7 71.4 c-0.3 -0.3 -2.2 -0.7 -4.3 -1 -3.9 -0.5 -5.1 -1 -4.2 -1.9 0.6 -0.6 10.9 1.5 12 2.5 0.4 0.3 -0.1 0.6 -1.1 0.7 -1.1 0.1 -2.1 -0.1 -2.4 -0.3z"/>
  <path d="M6.8 67.1 c-5.2 -1.5 -8.4 -3.1 -6.2 -3.1 0.6 0 4.6 1.1 9 2.4 4.3 1.4 6.8 2.4 5.4 2.4 -1.4 0 -5.1 -0.8 -8.2 -1.7z"/>
  <path d="M156 60 c0 -0.7 13.3 -7.4 15 -7.5 0.3 -0.1 2.4 -1.1 4.8 -2.3 3.5 -1.9 4.2 -2 4.2 -0.7 0 1.3 -3.2 3.2 -6.5 3.9 -0.5 0.1 -1.9 0.7 -3 1.3 -4.4 2.4 -14.5 6.1 -14.5 5.3z"/>
  <path d="M158.6 52.6 c0.3 -0.8 1.5 -1.8 2.7 -2.2 1.1 -0.3 2.9 -1.5 4 -2.5 1.1 -1 2.4 -1.6 2.9 -1.3 0.4 0.3 0.8 0.1 0.8 -0.5 0 -0.6 1.1 -1.3 2.5 -1.7 1.4 -0.3 2.5 -1 2.5 -1.4 0 -0.5 1 -1.2 2.3 -1.6 1.2 -0.4 2.5 -1.2 2.9 -1.8 0.5 -0.7 0.8 -0.5 0.8 0.5 0 0.9 -0.7 2.2 -1.5 2.9 -0.8 0.7 -1.5 0.9 -1.5 0.4 0 -0.5 -0.4 -0.4 -0.8 0.2 -1.3 1.9 -18.2 10.6 -17.6 9z"/>
  <path d="M10.5 40 c-3.3 -2.2 -5.3 -4 -4.5 -4 0.8 0.1 4 1.8 7 4 7.1 5.2 5.3 5.2 -2.5 0z"/>
  <path d="M162 41.1 c1.4 -1.1 3.4 -2.4 4.4 -2.7 1.1 -0.4 2.8 -1.5 3.9 -2.5 1.1 -1 2.4 -1.6 2.9 -1.3 0.4 0.3 0.8 0.1 0.8 -0.5 0 -0.5 1 -1.3 2.3 -1.7 1.2 -0.4 2.5 -1.2 2.9 -1.8 0.5 -0.7 0.8 -0.5 0.8 0.5 0 1.3 -5 4.5 -7.4 4.7 -0.5 0 -1.2 0.5 -1.5 1 -0.3 0.5 -3.1 2.1 -6.1 3.6 -4.4 2.2 -5 2.3 -3 0.7z"/>
  <path d="M1 33.5 c-0.9 -1 -0.9 -1.5 -0.1 -1.5 0.6 0 1.1 0.4 1.1 0.9 0 0.5 0.8 1.2 1.8 1.4 1.4 0.4 1.4 0.5 0.1 0.6 -0.9 0 -2.2 -0.6 -2.9 -1.4z"/>
  <path d="M15.5 31 c-1 -1.1 -1.6 -2.2 -1.3 -2.5 0.3 -0.3 1.3 0.4 2.3 1.5 1 1.1 1.6 2.2 1.3 2.5 -0.3 0.3 -1.3 -0.4 -2.3 -1.5z"/>
  <path d="M159.2 30.1 c0.6 -2.2 20.8 -17.5 20.8 -15.7 0 1.3 -15.8 13.6 -17.5 13.6 -0.4 0 -1.4 0.8 -2.2 1.8 -0.9 1.1 -1.3 1.2 -1.1 0.3z"/>
  <path d="M9.6 20.1 c-5.4 -5.4 -9.7 -10.4 -9.4 -11.1 0.2 -0.7 4.8 3.6 10.2 9.4 5.4 5.9 9.7 10.9 9.4 11.1 -0.2 0.2 -4.8 -4 -10.2 -9.4z"/>
  <path d="M6.1 22.9 c-3.9 -3.3 -6.1 -6 -6.1 -7.3 0 -1.6 1.4 -0.7 6.7 4.6 3.7 3.7 6.5 7 6.1 7.3 -0.3 0.3 -3.3 -1.8 -6.7 -4.6z"/>
  <path d="M157.7 26.3 c-0.3 -0.5 4.4 -5.5 10.6 -11 7.9 -7.1 11.3 -9.6 11.6 -8.5 0.2 0.9 -1 2.8 -2.7 4.2 -1.6 1.4 -5.3 4.5 -8.2 7 -2.8 2.5 -5.7 4.7 -6.3 4.9 -0.6 0.2 -1.9 1.3 -2.8 2.4 -0.9 1.2 -1.8 1.6 -2.2 1z"/>
  <path d="M20.3 8.5 c-3.5 -4 -6.3 -7.6 -6.3 -7.9 0 -0.3 0.8 -0.6 1.8 -0.6 1.1 0 3.4 2.3 5.8 5.6 2.1 3.1 4.7 6.3 5.6 7.2 1.6 1.4 1.6 3.3 0 3.1 -0.4 0 -3.5 -3.4 -6.9 -7.4z"/>
  <path d="M150.7 13.3 c-0.8 -1.3 9.3 -12.8 11.6 -13.1 1.7 -0.3 1.3 0.5 -2 4.5 -5.6 6.6 -9 9.6 -9.6 8.6z"/>
  <path d="M147.7 10.2 c-0.4 -0.5 0 -1.5 0.8 -2.2 0.8 -0.7 1.5 -1.8 1.5 -2.4 0.1 -1.8 3.7 -5.6 5.4 -5.6 1.3 0 1.4 0.4 0.6 1.8 -2.2 3.8 -7.8 9.4 -8.3 8.4z"/>
  <path d="M26.3 7.3 c-0.7 -0.3 -1.3 -1.1 -1.3 -1.8 0 -0.7 -0.7 -1.5 -1.5 -1.9 -1.6 -0.6 -2.1 -3.6 -0.6 -3.6 1 0 5.6 6.9 5 7.4 -0.2 0.2 -1 0.1 -1.6 -0.1z"/>
 </g>
 <g fill="#fccfbc">
  <path d="M85 148.1 c-1.5 -2.9 -1.3 -3.1 2.5 -3.1 1.9 0 3.5 0.3 3.5 0.6 0 1.6 -2.2 4.4 -3.5 4.4 -0.8 0 -1.9 -0.9 -2.5 -1.9z"/>
  <path d="M98.5 129.3 c-4.8 -2.7 -5.2 -2.8 -5.8 -0.5 -0.3 0.9 -0.5 0.2 -0.6 -1.7 -0.1 -2.9 -0.4 -3.3 -2.3 -2.7 -1.3 0.3 -3.5 0.6 -5 0.6 -2.3 0 -2.8 0.5 -2.8 2.4 0 1.3 -0.7 2.6 -1.5 3 -0.9 0.3 -1.5 0 -1.5 -0.9 0 -2.5 -1.9 -2.7 -5.1 -0.5 l-3 2.2 0.7 -2.8 c0.7 -2.6 0.6 -2.7 -2.6 -2.1 -3.2 0.7 -3.2 0.7 -2.6 -2.7 0.5 -2.8 0.3 -3.5 -1.1 -3.9 -1.2 -0.3 -0.9 -0.5 0.9 -0.6 1.5 0 3 -0.6 3.3 -1.2 0.5 -0.7 1.6 -0.2 3.2 1.3 2 1.9 3.8 2.4 10.4 2.7 9.9 0.4 13.7 -0.3 18.2 -3.4 3.1 -2 3.8 -2.1 4.8 -0.9 0.6 0.8 1.8 1.4 2.6 1.4 1.2 0 1.2 0.4 -0.1 2.8 -0.8 1.5 -1.7 4 -2.1 5.5 -0.5 2.3 -0.9 2.6 -2 1.7 -1 -0.9 -1.4 -0.7 -1.7 0.7 -0.3 1.8 -0.5 1.8 -4.3 -0.4z"/>
  <path d="M58.5 113 c-0.3 -1.1 -1.1 -2 -1.6 -2 -0.5 0 -0.9 -2.1 -0.9 -4.6 0 -3.9 -0.2 -4.5 -1.8 -4 -2.5 0.8 -5.6 -5.8 -4.1 -8.7 1.1 -1.9 0.4 -1.9 -4.7 0 -0.8 0.3 -0.9 -1 -0.4 -4.2 0.4 -2.6 0.3 -4.5 -0.2 -4.5 -0.6 0 -0.8 -0.5 -0.6 -1.1 0.3 -0.8 5.3 -1.2 15.3 -1.3 l15 -0.1 2 -4.2 c1.1 -2.3 2.6 -4.2 3.3 -4.3 0.7 0 1.2 -1.3 1.2 -3 0 -3.5 2.3 -5 7.4 -5 l3.6 0 0 10.4 c0 5.6 0.5 11.7 1.1 13.5 1 2.7 0.8 3.5 -0.7 5.2 -3.5 3.9 -5.4 4.3 -8.6 1.9 -2 -1.5 -4 -2.1 -5.9 -1.8 -3.4 0.5 -3.9 -1.4 -1.2 -4.4 0.9 -1 1.4 -2.1 1 -2.4 -0.9 -0.9 -4.7 3.4 -4.7 5.4 0 2.2 4 6.2 6.3 6.2 0.9 0 1.8 0.4 2.1 0.9 0.3 0.4 -2.4 1.6 -6.1 2.5 -8.2 2 -10.8 3.6 -11.8 7.3 -1.1 4.3 -3.9 5.7 -5 2.3z"/>
  <path d="M112 111.1 c-0.9 -3.3 -1.7 -4.1 -5.8 -5.9 -2.6 -1.1 -6.6 -2.3 -9 -2.7 l-4.4 -0.7 3.6 -2.4 c4.9 -3.3 6.1 -5.8 4.2 -8.5 -0.8 -1.2 -1.3 -2.6 -1.1 -3.3 0.2 -0.6 0.6 -2.4 1 -4 0.5 -2.2 0.9 -2.6 1.8 -1.7 1.5 1.5 26.3 1.5 27.3 0 0.5 -0.8 1 -0.6 1.6 0.5 1.7 3 1.7 5.6 0 6.5 -1.4 0.8 -1.5 1.3 -0.4 3.1 1.7 2.8 0.7 4.1 -2.6 3.4 -2.1 -0.5 -2.4 -0.4 -1.6 0.6 0.8 0.8 0.9 2.1 0.1 4.5 -0.9 3.1 -1.1 3.2 -3.9 2.3 -3.8 -1.3 -4.3 -0.7 -2.7 3.7 2 5.5 -0.2 8.1 -5.4 6 -1.3 -0.6 -1.6 -0.3 -1.1 0.9 0.3 0.9 0.4 1.6 0 1.6 -0.3 0 -1 -1.7 -1.6 -3.9z"/>
  <path d="M86.8 106.3 c0.4 -3.1 0.6 -3.4 1.3 -1.8 1.2 3.1 1 5.5 -0.4 5.5 -0.9 0 -1.2 -1.1 -0.9 -3.7z"/>
  <path d="M25 90 c0 -0.5 -0.9 -1 -2 -1 -2.1 0 -4.1 -5.2 -3.9 -10 0.2 -2.3 0.2 -2.4 0.6 -0.2 0.8 3.9 2.3 2.4 2.3 -2.3 0 -4.9 0.1 -5 3.1 -3.5 2.3 1.3 2.5 3 0.4 3 -0.8 0 -1.5 0.5 -1.5 1.1 0 0.7 1 0.9 2.4 0.5 3.4 -0.8 4.5 2.5 1.7 5.3 -2 2 -2.6 3.9 -2.2 6.9 0.1 0.6 -0.1 1.2 -0.4 1.2 -0.3 0 -0.5 -0.4 -0.5 -1z"/>
  <path d="M151.1 90 c0.3 -3.6 -0.2 -5.1 -2.2 -7.1 -2.8 -2.8 -1.7 -6.1 1.7 -5.3 2.7 0.7 3.4 -1 0.8 -2 -1.3 -0.5 -1.4 -0.9 -0.4 -2.1 2.4 -2.9 4 -1.7 4 3 0 4.7 1.5 6.2 2.3 2.3 0.4 -2.2 0.4 -2.1 0.6 0.2 0.2 4.6 -1.8 10 -3.9 10 -1 0 -2.1 0.6 -2.4 1.3 -0.4 0.8 -0.5 0.7 -0.5 -0.3z"/>
  <path d="M144.5 78 c0.3 -1.8 0.9 -3.6 1.3 -4 0.4 -0.3 1.2 -1.4 1.8 -2.5 0.8 -1.4 2.3 -2.1 5.1 -2.3 3.7 -0.3 4.1 0 4.7 2.4 0.4 1.4 0.5 2.8 0.3 3.1 -0.3 0.2 -0.7 -0.8 -1.1 -2.2 -1.3 -5.3 -7.5 -2.2 -11 5.5 l-1.6 3.5 0.5 -3.5z"/>
  <path d="M31.1 77.3 c0 -0.6 -1.3 -2.5 -2.7 -4.2 -3.3 -3.9 -7.1 -4.2 -8 -0.6 -0.4 1.4 -0.8 2.4 -1.1 2.2 -0.2 -0.3 -0.1 -1.6 0.3 -3.1 0.5 -2.1 1.2 -2.6 3.6 -2.6 3.6 0 6.8 1.6 6.8 3.5 0 0.7 0.5 1.5 1.1 1.7 0.6 0.2 0.9 1.3 0.6 2.3 -0.2 1.1 -0.5 1.5 -0.6 0.8z"/>
  <path d="M80.6 60.3 c0.3 -1.2 0.1 -3 -0.5 -4 -0.6 -1.1 -1.1 -1.3 -1.1 -0.5 0 1 -0.5 0.9 -1.7 -0.4 -1.6 -1.5 -1.7 -1.5 -2.4 0.2 -0.4 1.1 -0.8 1.4 -0.8 0.8 -0.1 -1.1 -8.6 -3.5 -17.3 -4.9 -3.8 -0.6 -6.7 0.4 -10 3.3 -1.7 1.4 -1.7 1.6 0 2.8 1.9 1.4 1.7 1.9 -1.5 2.8 -2.1 0.7 -2.3 0.4 -2.3 -2.8 0 -2.5 0.4 -3.6 1.5 -3.6 1 0 1.5 -1 1.5 -2.7 0 -1.6 2 -9.3 4.3 -17.2 5.3 -17.6 5.3 -17.5 20.2 -17.6 8.2 0 10.5 0.3 12.8 1.9 2.2 1.5 3.1 1.6 3.6 0.7 0.6 -0.9 1.1 -0.8 2.1 0.4 1.9 2.2 3.2 1.8 2.4 -0.7 -0.6 -1.9 -0.4 -2.1 0.7 -1.1 1 0.8 3.5 0.9 8.9 0.3 13 -1.5 17.3 -1.3 18.8 1.1 2.2 3.5 11.2 29.5 11.2 32.3 0 2.3 -0.2 2.5 -1.9 1.6 -2.7 -1.4 -7.6 -1.3 -16.2 0.5 -11.3 2.2 -13.9 2.4 -13.9 1.3 0 -1.6 -4.1 2.4 -5.1 4.9 -0.7 1.8 -1.7 2.2 -7.3 2.5 -6.3 0.3 -6.5 0.2 -6 -1.9z"/>
  <path d="M132 61.1 c0 -0.5 -0.8 -1.2 -1.7 -1.4 -1.5 -0.4 -1.4 -0.6 0.5 -1.2 1.8 -0.6 2 -1 1.1 -2.1 -0.9 -1.1 -0.8 -1.4 0.5 -1.4 1.2 0 1.6 0.9 1.6 3.5 0 1.9 -0.4 3.5 -1 3.5 -0.5 0 -1 -0.4 -1 -0.9z"/>
 </g>
 <g fill="#fbe9df">
  <path d="M32.5 101.8 c-2.9 -1.6 -7.5 -6 -8.7 -8.3 -0.5 -1.1 0.3 -0.5 1.9 1.3 2.3 2.7 3.5 3.2 6.9 3.2 3.3 0 4.3 0.4 4.7 1.9 0.8 3.2 -1.1 4 -4.8 1.9z"/>
  <path d="M140.4 102.4 c-0.7 -0.3 -1 -1.4 -0.7 -2.4 0.4 -1.6 1.4 -2 4.7 -2 3.4 0 4.6 -0.5 6.9 -3.2 1.6 -1.8 2.4 -2.4 1.9 -1.3 -1.6 3.2 -9.6 9.9 -11.4 9.4 -0.2 0 -0.8 -0.3 -1.4 -0.5z"/>
  <path d="M128.7 95.3 c-1 -1.6 1.1 -3.9 2.3 -2.7 0.8 0.8 0.7 1.4 -0.4 2.3 -0.8 0.7 -1.7 0.8 -1.9 0.4z"/>
  <path d="M32.5 92.6 c-1.3 -2 -1.4 -2.9 -0.5 -4.7 1.4 -2.6 2.3 -1.5 3.3 3.9 0.8 3.8 -0.6 4.2 -2.8 0.8z"/>
  <path d="M140.5 93.5 c0.3 -0.8 0.8 -2.3 1.2 -3.2 0.3 -1 0.5 -2.6 0.4 -3.5 -0.3 -2.5 0.6 -2.2 2.5 0.7 1.5 2.3 1.5 2.7 0 5 -1.8 2.7 -4.8 3.5 -4.1 1z"/>
  <path d="M45.2 89.5 c0.2 -2.5 0 -4.5 -0.3 -4.5 -0.6 0 -5.9 -13.2 -5.9 -14.6 0 -0.2 0.7 -0.4 1.5 -0.4 0.8 0 1.5 0.9 1.5 1.9 0 2.3 3.6 9 5.8 10.8 1.4 1.1 1.4 1.5 0 3 -1.1 1.2 -1.3 2.5 -0.8 3.8 1.2 2.9 1.2 3.2 -0.6 3.9 -1.4 0.5 -1.5 -0.1 -1.2 -3.9z"/>
  <path d="M77 90.5 c0.6 -0.8 0.9 -1.9 0.5 -2.5 -1.1 -1.8 0.6 -14 2 -14 1 0 1.2 2 0.9 8 -0.4 8.8 -0.7 10 -3.1 10 -1.2 0 -1.3 -0.3 -0.3 -1.5z"/>
  <path d="M20.2 85.5 c-0.7 -2.2 -1.2 -5.1 -1.1 -6.5 0.1 -1.6 0.6 -0.8 1.5 2.5 0.8 2.8 1.2 5.7 1.1 6.5 -0.2 0.8 -0.9 -0.3 -1.5 -2.5z"/>
  <path d="M128.6 86.1 c-1.4 -2.6 -1.4 -3 -0.1 -3.5 0.8 -0.3 2.1 -1.8 2.7 -3.3 0.7 -1.5 1.8 -3.4 2.5 -4.1 0.7 -0.7 1.3 -2.2 1.3 -3.3 0 -1.9 1.1 -2.5 2.3 -1.3 0.3 0.4 -0.7 4.2 -2.3 8.5 -1.9 5.1 -2.4 7.9 -1.7 7.9 0.7 0 0.6 0.4 -0.3 1 -2.3 1.5 -2.8 1.2 -4.4 -1.9z"/>
  <path d="M155.9 82.8 c0.9 -3.5 1.7 -5.2 1.9 -4 0.4 2.6 -1.6 10.2 -2.7 10.2 -0.4 0 -0.1 -2.8 0.8 -6.2z"/>
  <path d="M144.1 79.8 c-0.4 -8.3 10.3 -16 12.9 -9.2 0.6 1.4 1 3.1 0.9 3.7 0 0.7 -0.5 0 -1.1 -1.5 -1.9 -5.4 -7.8 -2.6 -11.1 5.2 -0.9 1.9 -1.6 2.7 -1.6 1.8z"/>
  <path d="M31 77.1 c0 -0.5 -1.2 -2.3 -2.6 -4 -3.3 -4 -6.9 -4.1 -8.2 -0.3 -0.6 1.5 -1.1 2.2 -1.1 1.5 -0.1 -0.6 0.3 -2.3 0.9 -3.7 1.4 -3.8 6 -3.6 9.4 0.5 2.3 2.7 3.5 6.9 2.1 6.9 -0.3 0 -0.5 -0.4 -0.5 -0.9z"/>
  <path d="M38 62.3 c0 -2.1 0.7 -5.1 1.5 -6.6 1.1 -2.2 1.2 -3.4 0.4 -4.9 -0.7 -1.3 -0.7 -2.3 0 -3.2 0.6 -0.6 0.8 -2.2 0.4 -3.4 -0.3 -1.2 0 -2.9 0.7 -3.7 0.7 -0.9 1 -1.8 0.7 -2.2 -0.4 -0.3 0.3 -1.9 1.4 -3.4 1.4 -2.1 1.6 -2.9 0.7 -2.9 -0.8 0 -0.7 -0.4 0.4 -1.1 1.3 -0.7 1.5 -1.5 0.8 -3.4 -0.6 -1.6 -0.5 -2.7 0.3 -3.3 1.1 -0.9 14.5 -7.2 15.4 -7.2 0.2 0 -0.3 1 -1.2 2.3 -0.8 1.3 -3.6 9.3 -6.1 17.8 -2.5 8.5 -5.4 16.3 -6.5 17.4 -1.8 2 -1.8 2.2 -0.2 3.8 1.6 1.6 1.6 1.7 0 1.7 -0.9 0 -2.3 1.4 -3.2 3 -0.9 1.8 -2.3 3 -3.5 3 -1.6 0 -2 -0.7 -2 -3.7z"/>
  <path d="M133.2 63 c-0.8 -1.6 -2.1 -3 -3 -3 -1.3 -0.1 -1.1 -0.4 0.6 -1.3 l2.3 -1.3 -2.5 -2.7 c-1.5 -1.6 -4.6 -8.6 -7.6 -16.9 -2.8 -7.9 -6.2 -15.7 -7.6 -17.5 l-2.5 -3.3 3.3 0 c4.3 0 12.7 2.6 14.8 4.5 1.8 1.6 1.6 6.5 -0.3 6.5 -0.5 0 -0.2 0.9 0.8 2 1.1 1.2 1.5 2.8 1.2 4.1 -0.4 1.4 0.2 3.3 1.4 5 1.2 1.8 1.5 2.9 0.8 3.1 -0.8 0.3 -0.7 1.2 0.3 3.3 1.4 2.6 1.4 3.2 0.1 5.2 -1.6 2.4 -1.6 2.3 1.4 13.6 0.8 2.9 -2.1 1.9 -3.5 -1.3z"/>
 </g>
 <g fill="#ffffff">
  <path d="M2 178.7 c1.4 -1.3 16.5 -13.6 20.3 -16.6 0.9 -0.7 1.7 -1.1 1.7 -0.8 0 1.4 -20.1 18.7 -21.7 18.7 -1.5 0 -1.5 -0.2 -0.3 -1.3z"/>
  <path d="M28 166.8 c0 -15.4 1.4 -19.7 7.6 -24.4 3.3 -2.6 4.7 -2.9 12.4 -3.2 8.2 -0.4 8.8 -0.3 9.3 1.7 0.6 2.4 0.3 2.5 -2.4 1.1 -2.3 -1.3 -2.3 -1 -0.5 3.5 0.8 1.9 1.3 3.5 1 3.5 -0.2 0 -2.1 -0.9 -4.1 -2 -6.6 -3.5 -12.4 -2.4 -14.8 2.7 -1.3 2.8 -1.6 6 -1.3 16.9 l0.3 13.4 -3.7 0 -3.8 0 0 -13.2z"/>
  <path d="M140.8 164.8 c-0.5 -15.1 -0.5 -15.2 -3.3 -17.6 -2.3 -1.9 -3.6 -2.3 -7.4 -2 -2.5 0.3 -5.5 0.8 -6.5 1.3 -1.7 0.7 -1.8 0.5 -1.4 -1.9 0.5 -2.6 0.5 -2.6 -1.9 -1 -3 1.9 -3.6 1.5 -2.7 -2 0.6 -2.6 0.7 -2.6 10.4 -2.6 8.4 0 10.1 0.3 13 2.3 6.4 4.3 7.5 7.4 7.8 24 l0.4 14.7 -4 0 -3.9 0 -0.5 -15.2z"/>
  <path d="M156.5 177.3 l-1.7 -2.8 2.3 2.2 c1.2 1.2 2 2.5 1.7 2.8 -0.3 0.3 -1.3 -0.7 -2.3 -2.2z"/>
  <path d="M159.1 173.6 c-2.8 -3.5 -5.1 -6.8 -5.1 -7.2 0 -0.5 0.8 0.1 1.8 1.2 0.9 1.2 3.7 4.5 6 7.3 2.4 2.8 3.9 5.1 3.4 5.1 -0.6 0 -3.3 -2.9 -6.1 -6.4z"/>
  <path d="M75.4 176.6 c-4.8 -2.1 -5 -3.4 -0.7 -4.1 2.1 -0.3 4.9 -0.8 6.2 -1.1 2.1 -0.4 2.3 -0.2 1.7 1.8 -0.3 1.3 -0.6 2.9 -0.6 3.6 0 1.6 -2.7 1.5 -6.6 -0.2z"/>
  <path d="M91.6 175.2 c-0.2 -0.4 0.1 -2.8 0.7 -5.4 1.1 -4.6 1.1 -4.6 4.7 -4.1 5.3 0.9 10.3 2.7 10.7 4 0.3 0.9 -3 2.3 -14.4 5.8 -0.7 0.2 -1.4 0.1 -1.7 -0.3z"/>
  <path d="M0 173.8 c0 -0.7 1.5 -2.3 3.3 -3.5 1.7 -1.1 6.6 -4.5 10.7 -7.4 9.3 -6.5 7.4 -4.5 -4.7 5 -5.1 3.9 -9.3 6.6 -9.3 5.9z"/>
  <path d="M172.9 167.2 c-11.3 -11.7 -12.7 -14 -2.4 -4 5.4 5.4 9.7 10 9.4 10.2 -0.3 0.3 -3.4 -2.5 -7 -6.2z"/>
  <path d="M167.9 155.9 l-11.4 -11.1 11.8 10.2 c9.9 8.6 13.1 12 11.4 12 -0.2 0 -5.5 -5 -11.8 -11.1z"/>
  <path d="M0 157.5 c0 -0.2 1.8 -1.4 4 -2.5 5 -2.5 5.3 -1.9 0.4 0.9 -3.6 2.2 -4.4 2.4 -4.4 1.6z"/>
  <path d="M62.8 147.1 c-1.9 -6 -3.2 -11.4 -2.8 -12.1 0.5 -0.8 2.8 0.4 7.3 3.8 3.6 2.8 7.9 5.3 9.6 5.7 1.7 0.4 3.3 1.1 3.6 1.6 0.4 0.5 0 0.6 -0.8 0.3 -0.9 -0.3 -3.4 1.8 -6.7 5.5 -2.8 3.4 -5.5 6.1 -5.9 6.1 -0.4 0 -2.3 -4.9 -4.3 -10.9z"/>
  <path d="M102.5 152 c-3.3 -3.4 -6.6 -5.8 -7.3 -5.5 -0.7 0.2 -1 0 -0.7 -0.5 0.3 -0.6 2.4 -1.3 4.5 -1.6 2.6 -0.4 6.2 -2.4 10.2 -5.5 3.5 -2.7 6.4 -4.4 6.6 -3.9 0.4 1 -5.7 21.2 -6.7 22.2 -0.4 0.4 -3.4 -1.9 -6.6 -5.2z"/>
  <path d="M0 148.3 c0 -0.8 20 -11.7 20 -11 0 0.5 -18.6 11.7 -19.4 11.7 -0.3 0 -0.6 -0.3 -0.6 -0.7z"/>
  <path d="M0 139.4 c0 -0.9 23.1 -10.7 23.6 -10.1 0.3 0.3 -17.4 8.6 -21.8 10.2 -1 0.4 -1.8 0.3 -1.8 -0.1z"/>
  <path d="M169.3 113.3 c0.9 -0.2 2.5 -0.2 3.5 0 0.9 0.3 0.1 0.5 -1.8 0.5 -1.9 0 -2.7 -0.2 -1.7 -0.5z"/>
  <path d="M175.3 97.3 c0.9 -0.2 2.5 -0.2 3.5 0 0.9 0.3 0.1 0.5 -1.8 0.5 -1.9 0 -2.7 -0.2 -1.7 -0.5z"/>
  <path d="M161.8 96.3 c1.7 -0.2 4.7 -0.2 6.5 0 1.7 0.2 0.3 0.4 -3.3 0.4 -3.6 0 -5 -0.2 -3.2 -0.4z"/>
  <path d="M168.3 91.3 c1.5 -0.2 3.9 -0.2 5.5 0 1.5 0.2 0.2 0.4 -2.8 0.4 -3 0 -4.3 -0.2 -2.7 -0.4z"/>
  <path d="M3.7 86.3 c2.4 -0.2 6.2 -0.2 8.5 0 2.4 0.2 0.5 0.4 -4.2 0.4 -4.7 0 -6.6 -0.2 -4.3 -0.4z"/>
  <path d="M174.5 70.5 c1.7 -0.8 3.7 -1.4 4.5 -1.4 0.8 0 -0.1 0.7 -2 1.4 -4.6 1.8 -6.4 1.7 -2.5 0z"/>
  <path d="M169.9 53.5 c5.2 -2.5 9.6 -4.3 9.9 -4 0.7 0.7 0.7 0.7 -8.3 4.4 -11.7 4.9 -12.2 4.7 -1.6 -0.4z"/>
  <path d="M159 52.7 c0 -0.3 14.7 -9.4 20.3 -12.4 0.4 -0.2 0.7 -0.1 0.7 0.4 0 0.4 -2.4 2.1 -5.3 3.7 -2.8 1.6 -7.6 4.2 -10.4 5.8 -2.9 1.6 -5.3 2.7 -5.3 2.5z"/>
  <path d="M174 34.6 c0 -0.3 1.4 -1.2 3 -2.1 1.7 -0.9 3 -1.3 3 -1.1 0 0.3 -1.3 1.2 -3 2.1 -1.6 0.9 -3 1.3 -3 1.1z"/>
  <path d="M6 22.1 c-3.6 -3.3 -6.2 -6.2 -5.9 -6.5 0.3 -0.3 3.4 2.4 6.9 5.9 3.6 3.6 6.2 6.5 6 6.5 -0.3 -0.1 -3.4 -2.7 -7 -5.9z"/>
  <path d="M162.5 27.2 c2.4 -2.6 16.9 -13.2 17.3 -12.7 0.6 0.6 0.5 0.7 -10.8 8.6 -4.1 2.9 -7 4.7 -6.5 4.1z"/>
  <path d="M164 20.1 c10.5 -9.9 16 -14.4 16 -12.9 0 1.2 -5.5 6 -17.5 15.1 -4.5 3.5 -4.3 3.3 1.5 -2.2z"/>
  <path d="M6.5 15.8 l-7 -7.3 7.3 7 c6.7 6.4 7.7 7.5 6.9 7.5 -0.1 0 -3.4 -3.3 -7.2 -7.2z"/>
  <path d="M20.7 8 c-3.9 -4.6 -6.2 -8 -5.4 -8 1.5 0 13.4 14.7 12.6 15.5 -0.3 0.2 -3.5 -3.2 -7.2 -7.5z"/>
  <path d="M151 12.5 c0.1 -1.7 10.7 -12.8 11.9 -12.4 0.6 0.2 -1.8 3.3 -5.4 6.9 -3.6 3.5 -6.5 6 -6.5 5.5z"/>
  <path d="M150.6 5 c2 -2.7 4.2 -5 5.1 -5 0.9 0 -0.1 1.9 -2.8 5 -2.3 2.8 -4.6 5 -5.1 5 -0.4 0 0.8 -2.2 2.8 -5z"/>
  <path d="M24.5 4.4 c-1.5 -1.9 -2.5 -3.8 -2.2 -4 0.4 -0.5 3.1 2.8 5.1 6.4 1.4 2.5 -0.2 1.1 -2.9 -2.4z"/>
 </g>
</svg>